<?xml version="1.0" encoding="UTF-8" standalone="no"?>
<!-- Created with Inkscape (http://www.inkscape.org/) -->

<svg
   xmlns:dc="http://purl.org/dc/elements/1.1/"
   xmlns:cc="http://creativecommons.org/ns#"
   xmlns:rdf="http://www.w3.org/1999/02/22-rdf-syntax-ns#"
   xmlns:svg="http://www.w3.org/2000/svg"
   xmlns="http://www.w3.org/2000/svg"
   xmlns:sodipodi="http://sodipodi.sourceforge.net/DTD/sodipodi-0.dtd"
   xmlns:inkscape="http://www.inkscape.org/namespaces/inkscape"
   width="212.16515mm"
   height="41.999996mm"
   viewBox="0 0 212.16515 41.999996"
   version="1.1"
   id="svg9138"
   inkscape:version="0.92.4 5da689c313, 2019-01-14"
   sodipodi:docname="github_logo.svg">
  <defs
     id="defs9132" />
  <sodipodi:namedview
     id="base"
     pagecolor="#ffffff"
     bordercolor="#666666"
     borderopacity="1.0"
     inkscape:pageopacity="0.0"
     inkscape:pageshadow="2"
     inkscape:zoom="0.7"
     inkscape:cx="443.11829"
     inkscape:cy="-204.29713"
     inkscape:document-units="mm"
     inkscape:current-layer="layer1"
     showgrid="false"
     fit-margin-top="0"
     fit-margin-left="0"
     fit-margin-right="0"
     fit-margin-bottom="0"
     inkscape:window-width="1920"
     inkscape:window-height="1171"
     inkscape:window-x="1920"
     inkscape:window-y="0"
     inkscape:window-maximized="1" />
  <metadata
     id="metadata9135">
    <rdf:RDF>
      <cc:Work
         rdf:about="">
        <dc:format>image/svg+xml</dc:format>
        <dc:type
           rdf:resource="http://purl.org/dc/dcmitype/StillImage" />
        <dc:title></dc:title>
      </cc:Work>
    </rdf:RDF>
  </metadata>
  <g
     inkscape:label="Layer 1"
     inkscape:groupmode="layer"
     id="layer1"
     transform="translate(-18.553176,-28.671322)">
    <g
       id="g10180">
      <path
         d="m 39.856722,28.893803 c -11.764082,0 -21.303546,9.537701 -21.303546,21.303546 0,9.412464 6.104114,17.397942 14.568665,20.214873 1.064683,0.197203 1.455561,-0.462139 1.455561,-1.024819 0,-0.508 -0.01976,-2.186164 -0.02893,-3.966281 -5.926667,1.288697 -7.177264,-2.513542 -7.177264,-2.513542 -0.969081,-2.462389 -2.365375,-3.117145 -2.365375,-3.117145 -1.93287,-1.322211 0.145697,-1.295047 0.145697,-1.295047 2.139244,0.149931 3.265664,2.195689 3.265664,2.195689 1.900061,3.256492 4.983692,2.314928 6.199364,1.770592 0.191206,-1.376892 0.743303,-2.317045 1.35255,-2.848681 -4.731808,-0.538692 -9.705975,-2.365375 -9.705975,-10.5283 0,-2.325865 0.832203,-4.226279 2.194983,-5.718176 -0.221191,-0.536928 -0.950383,-2.703336 0.206375,-5.637742 0,0 1.788936,-0.572558 5.859992,2.183695 1.699331,-0.472017 3.521781,-0.708731 5.332237,-0.716845 1.810455,0.0081 3.634317,0.244828 5.336822,0.716845 4.066117,-2.756253 5.852584,-2.183695 5.852584,-2.183695 1.159581,2.934406 0.430036,5.100814 0.208844,5.637742 1.365956,1.491897 2.192514,3.392311 2.192514,5.718176 0,8.182328 -4.983692,9.983964 -9.727495,10.511367 0.764117,0.661105 1.444978,1.957564 1.444978,3.945114 0,2.850445 -0.02469,5.144559 -0.02469,5.846234 0,0.566914 0.383469,1.231194 1.463322,1.021997 8.459965,-2.820106 14.556318,-10.802762 14.556318,-20.212051 0,-11.765845 -9.538054,-21.303546 -21.303193,-21.303546"
         style="fill:#1b1817;fill-opacity:1;fill-rule:evenodd;stroke:none;stroke-width:0.03527778"
         id="path9718"
         inkscape:connector-curvature="0" />
      <path
         d="m 26.62191,59.481049 c -0.04692,0.106186 -0.213431,0.137584 -0.365125,0.06491 -0.154517,-0.0695 -0.2413,-0.213783 -0.191206,-0.319969 0.04586,-0.108656 0.212725,-0.138995 0.366889,-0.06668 0.15487,0.06985 0.243064,0.215547 0.189442,0.321733 v 0"
         style="fill:#1b1817;fill-opacity:1;fill-rule:nonzero;stroke:none;stroke-width:0.03527778"
         id="path9720"
         inkscape:connector-curvature="0" />
      <path
         d="m 27.484804,60.443427 c -0.1016,0.09419 -0.300214,0.05045 -0.434975,-0.09842 -0.139347,-0.148519 -0.165453,-0.347133 -0.06244,-0.442736 0.104775,-0.09384 0.297391,-0.04974 0.437091,0.09843 0.139347,0.150283 0.166511,0.347486 0.06032,0.442736 v 0"
         style="fill:#1b1817;fill-opacity:1;fill-rule:nonzero;stroke:none;stroke-width:0.03527778"
         id="path9722"
         inkscape:connector-curvature="0" />
      <path
         d="m 28.324768,61.670388 c -0.130528,0.09066 -0.343958,0.0056 -0.475897,-0.183797 -0.130528,-0.189442 -0.130528,-0.41663 0.0028,-0.507647 0.132292,-0.09102 0.342547,-0.0088 0.47625,0.178858 0.130175,0.192617 0.130175,0.419806 -0.0032,0.512586 v 0"
         style="fill:#1b1817;fill-opacity:1;fill-rule:nonzero;stroke:none;stroke-width:0.03527778"
         id="path9724"
         inkscape:connector-curvature="0" />
      <path
         d="m 29.475529,62.855722 c -0.116769,0.128764 -0.365477,0.09419 -0.547511,-0.08149 -0.186266,-0.171803 -0.238125,-0.415572 -0.121003,-0.544336 0.118181,-0.129117 0.3683,-0.09278 0.551745,0.08149 0.184855,0.17145 0.2413,0.416983 0.116769,0.544336 v 0"
         style="fill:#1b1817;fill-opacity:1;fill-rule:nonzero;stroke:none;stroke-width:0.03527778"
         id="path9726"
         inkscape:connector-curvature="0" />
      <path
         d="m 31.063029,63.543991 c -0.0515,0.166864 -0.291041,0.242711 -0.532341,0.171803 -0.240947,-0.07303 -0.398639,-0.268464 -0.349956,-0.437092 0.0501,-0.167922 0.290689,-0.246944 0.533753,-0.171097 0.240594,0.07267 0.398639,0.2667 0.348544,0.436386 v 0"
         style="fill:#1b1817;fill-opacity:1;fill-rule:nonzero;stroke:none;stroke-width:0.03527778"
         id="path9728"
         inkscape:connector-curvature="0" />
      <path
         d="m 32.806457,63.671697 c 0.006,0.175683 -0.198614,0.32138 -0.451908,0.324555 -0.254706,0.0056 -0.460728,-0.136525 -0.46355,-0.309386 0,-0.177447 0.200025,-0.321733 0.454731,-0.325966 0.253294,-0.0049 0.460727,0.136172 0.460727,0.310797 v 0"
         style="fill:#1b1817;fill-opacity:1;fill-rule:nonzero;stroke:none;stroke-width:0.03527778"
         id="path9730"
         inkscape:connector-curvature="0" />
      <path
         d="m 34.428882,63.395472 c 0.03034,0.17145 -0.145697,0.347486 -0.397227,0.394405 -0.247298,0.04516 -0.47625,-0.06068 -0.507648,-0.230716 -0.03069,-0.175684 0.14852,-0.35172 0.395464,-0.397228 0.251884,-0.04374 0.477309,0.05927 0.509411,0.233539 v 0"
         style="fill:#1b1817;fill-opacity:1;fill-rule:nonzero;stroke:none;stroke-width:0.03527778"
         id="path9732"
         inkscape:connector-curvature="0" />
    </g>
    <g
       style="fill:none;stroke-width:4.88248491"
       id="g10241"
       transform="matrix(0.0541903,0,0,0.0541903,75.829433,21.734855)">
      <path
         id="path10230"
         transform="matrix(64,0,0,64,0,128.002)"
         d="m 18.53,10.0301 h -0.02 c 0.009,0 0.015,0.009 0.024,0.011 0.001,0 0.005,-10e-4 0.006,-10e-4 z m 0.004,0.011 c -0.093,10e-4 -0.327,0.049 -0.574,0.049 -0.78,0 -1.05,-0.36003 -1.05,-0.83003 v -3.13 h 1.59 c 0.09,0 0.16,-0.08 0.16,-0.19 v -1.7 c 0,-0.09 -0.08,-0.17 -0.16,-0.17 h -1.59 v -2.11 c 0,-0.08 -0.05,-0.13 -0.14,-0.13 h -2.16 c -0.09,0 -0.14,0.05 -0.14,0.13 v 2.17 c 0,0 -1.09,0.27 -1.16,0.28 -0.08,0.02 -0.13,0.09 -0.13,0.17 v 1.36 c 0,0.11 0.08,0.19 0.17,0.19 h 1.11 v 3.28 c 0,2.44003 1.7,2.69003 2.86,2.69003 0.53,0 1.17,-0.17 1.27,-0.22 0.06,-0.02 0.09,-0.09 0.09,-0.16 v -1.5 c 0,-0.099 -0.068,-0.165 -0.146,-0.179 z M 42.23,7.84007 c 0,-1.81 -0.73,-2.05 -1.5,-1.97 -0.6,0.04 -1.08,0.34 -1.08,0.34 v 3.52 c 0,0 0.49,0.34003 1.22,0.36003 1.03,0.03 1.36,-0.34003 1.36,-2.25003 z m 2.43,-0.16 c 0,3.43003 -1.11,4.41003 -3.05,4.41003 -1.64,0 -2.52,-0.83 -2.52,-0.83 0,0 -0.04,0.46 -0.09,0.52 -0.03,0.06 -0.08,0.08 -0.14,0.08 h -1.48 c -0.1,0 -0.19,-0.08 -0.19,-0.17 L 37.21,0.580069 c 0,-0.090001 0.08,-0.17 0.17,-0.17 h 2.13 c 0.09,0 0.17,0.079999 0.17,0.17 V 4.35007 c 0,0 0.82,-0.53 2.02,-0.53 l -0.01,-0.02 c 1.2,0 2.97,0.45 2.97,3.88 z m -8.72,-3.61 h -0.01 -2.09 c -0.11,0 -0.17,0.08 -0.17,0.19 v 5.44 c 0,0 -0.55,0.39003 -1.3,0.39003 -0.75,0 -0.97,-0.34003 -0.97,-1.09003 v -4.75 c 0,-0.09 -0.08,-0.17 -0.17,-0.17 h -2.14 c -0.09,0 -0.17,0.08 -0.17,0.17 v 5.11 c 0,2.20003 1.23,2.75003 2.92,2.75003 1.39,0 2.52,-0.77 2.52,-0.77 0,0 0.05,0.39 0.08,0.45 0.02,0.05 0.09,0.09 0.16,0.09 h 1.34 c 0.11,0 0.17,-0.08 0.17,-0.17 l 0.02,-7.47003 c 0,-0.09 -0.08,-0.17 -0.19,-0.17 z m -23.7,-0.01 h -2.13 c -0.09,0 -0.17,0.09 -0.17,0.2 v 7.34003 c 0,0.2 0.13,0.27 0.3,0.27 h 1.92 c 0.2,0 0.25,-0.09 0.25,-0.27 v -7.36003 -0.01 c 0,-0.09 -0.08,-0.17 -0.17,-0.17 z M 11.19,0.680069 c -0.77,0 -1.38,0.610001 -1.38,1.380001 0,0.77 0.61,1.38 1.38,1.38 0.75,0 1.36,-0.61 1.36,-1.38 0,-0.77 -0.61,-1.380001 -1.36,-1.380001 z m 16.49,-0.25 h -2.11 c -0.09,0 -0.17,0.08 -0.17,0.17 V 4.69007 H 22.09 V 0.600069 c 0,-0.09 -0.08,-0.17 -0.17,-0.17 h -2.13 c -0.09,0 -0.17,0.08 -0.17,0.17 V 11.7101 c 0,0.09 0.09,0.17 0.17,0.17 h 2.13 c 0.09,0 0.17,-0.08 0.17,-0.17 V 6.96007 h 3.31 l -0.02,4.75003 c 0,0.09 0.08,0.17 0.17,0.17 h 2.13 c 0.09,0 0.17,-0.08 0.17,-0.17 V 0.600069 c 0,-0.09 -0.08,-0.17 -0.17,-0.17 z M 8.81,5.35007 v 5.74003 c 0,0.04 -0.01,0.11 -0.06,0.13 0,0 -1.25,0.89 -3.31,0.89 -2.49,0 -5.44,-0.78 -5.44,-5.92003 0,-5.14 2.58,-6.20000021 5.1,-6.1900002107 2.18,0 3.06,0.4900002107 3.2,0.5800002107 0.04,0.05 0.06,0.09 0.06,0.14 l -0.42,1.78 c 0,0.09 -0.09,0.2 -0.2,0.17 -0.36,-0.11 -0.9,-0.33 -2.17,-0.33 -1.47,0 -3.05,0.42 -3.05,3.73 0,3.31 1.5,3.7 2.58,3.7 0.92,0 1.25,-0.11 1.25,-0.11 v -2.3 H 4.88 c -0.11,0 -0.19,-0.08 -0.19,-0.17 v -1.84 c 0,-0.09 0.08,-0.17 0.19,-0.17 h 3.74 c 0.11,0 0.19,0.08 0.19,0.17 z"
         inkscape:connector-curvature="0"
         style="clip-rule:evenodd;fill:#1b1f23;fill-rule:evenodd;stroke-width:4.88248491" />
    </g>
  </g>
</svg>
