<svg width="2880" height="1024" viewBox="0 0 2880 1024" fill="none" xmlns="http://www.w3.org/2000/svg">
<path fill-rule="evenodd" clip-rule="evenodd" d="M18.53 10.0301H18.51C18.519 10.0301 18.525 10.0391 18.534 10.0411C18.535 10.0411 18.539 10.0401 18.54 10.0401L18.53 10.0301ZM18.534 10.0411C18.441 10.0421 18.207 10.0901 17.96 10.0901C17.18 10.0901 16.91 9.73007 16.91 9.26007V6.13007H18.5C18.59 6.13007 18.66 6.05007 18.66 5.94007V4.24007C18.66 4.15007 18.58 4.07007 18.5 4.07007H16.91V1.96007C16.91 1.88007 16.86 1.83007 16.77 1.83007H14.61C14.52 1.83007 14.47 1.88007 14.47 1.96007V4.13007C14.47 4.13007 13.38 4.40007 13.31 4.41007C13.23 4.43007 13.18 4.50007 13.18 4.58007V5.94007C13.18 6.05007 13.26 6.13007 13.35 6.13007H14.46V9.41007C14.46 11.8501 16.16 12.1001 17.32 12.1001C17.85 12.1001 18.49 11.9301 18.59 11.8801C18.65 11.8601 18.68 11.7901 18.68 11.7201V10.2201C18.68 10.1211 18.612 10.0551 18.534 10.0411ZM42.23 7.84007C42.23 6.03007 41.5 5.79007 40.73 5.87007C40.13 5.91007 39.65 6.21007 39.65 6.21007V9.73007C39.65 9.73007 40.14 10.0701 40.87 10.0901C41.9 10.1201 42.23 9.75007 42.23 7.84007ZM44.66 7.68007C44.66 11.1101 43.55 12.0901 41.61 12.0901C39.97 12.0901 39.09 11.2601 39.09 11.2601C39.09 11.2601 39.05 11.7201 39 11.7801C38.97 11.8401 38.92 11.8601 38.86 11.8601H37.38C37.28 11.8601 37.19 11.7801 37.19 11.6901L37.21 0.580069C37.21 0.490068 37.29 0.410069 37.38 0.410069H39.51C39.6 0.410069 39.68 0.490068 39.68 0.580069V4.35007C39.68 4.35007 40.5 3.82007 41.7 3.82007L41.69 3.80007C42.89 3.80007 44.66 4.25007 44.66 7.68007ZM35.94 4.07007H35.93H33.84C33.73 4.07007 33.67 4.15007 33.67 4.26007V9.70007C33.67 9.70007 33.12 10.0901 32.37 10.0901C31.62 10.0901 31.4 9.75007 31.4 9.00007V4.25007C31.4 4.16007 31.32 4.08007 31.23 4.08007H29.09C29 4.08007 28.92 4.16007 28.92 4.25007V9.36007C28.92 11.5601 30.15 12.1101 31.84 12.1101C33.23 12.1101 34.36 11.3401 34.36 11.3401C34.36 11.3401 34.41 11.7301 34.44 11.7901C34.46 11.8401 34.53 11.8801 34.6 11.8801H35.94C36.05 11.8801 36.11 11.8001 36.11 11.7101L36.13 4.24007C36.13 4.15007 36.05 4.07007 35.94 4.07007ZM12.24 4.06007H10.11C10.02 4.06007 9.94 4.15007 9.94 4.26007V11.6001C9.94 11.8001 10.07 11.8701 10.24 11.8701H12.16C12.36 11.8701 12.41 11.7801 12.41 11.6001V4.24007V4.23007C12.41 4.14007 12.33 4.06007 12.24 4.06007ZM11.19 0.680069C10.42 0.680069 9.81 1.29007 9.81 2.06007C9.81 2.83007 10.42 3.44007 11.19 3.44007C11.94 3.44007 12.55 2.83007 12.55 2.06007C12.55 1.29007 11.94 0.680069 11.19 0.680069ZM27.68 0.430069H25.57C25.48 0.430069 25.4 0.510069 25.4 0.600069V4.69007H22.09V0.600069C22.09 0.510069 22.01 0.430069 21.92 0.430069H19.79C19.7 0.430069 19.62 0.510069 19.62 0.600069V11.7101C19.62 11.8001 19.71 11.8801 19.79 11.8801H21.92C22.01 11.8801 22.09 11.8001 22.09 11.7101V6.96007H25.4L25.38 11.7101C25.38 11.8001 25.46 11.8801 25.55 11.8801H27.68C27.77 11.8801 27.85 11.8001 27.85 11.7101V0.600069C27.85 0.510069 27.77 0.430069 27.68 0.430069ZM8.81 5.35007V11.0901C8.81 11.1301 8.8 11.2001 8.75 11.2201C8.75 11.2201 7.5 12.1101 5.44 12.1101C2.95 12.1101 0 11.3301 0 6.19007C0 1.05007 2.58 -0.00993021 5.1 6.97893e-05C7.28 6.97893e-05 8.16 0.49007 8.3 0.58007C8.34 0.63007 8.36 0.67007 8.36 0.72007L7.94 2.50007C7.94 2.59007 7.85 2.70007 7.74 2.67007C7.38 2.56007 6.84 2.34007 5.57 2.34007C4.1 2.34007 2.52 2.76007 2.52 6.07007C2.52 9.38007 4.02 9.77007 5.1 9.77007C6.02 9.77007 6.35 9.66007 6.35 9.66007V7.36007H4.88C4.77 7.36007 4.69 7.28007 4.69 7.19007V5.35007C4.69 5.26007 4.77 5.18007 4.88 5.18007H8.62C8.73 5.18007 8.81 5.26007 8.81 5.35007Z" transform="translate(0 128.002) scale(64)" fill="#1B1F23"/>
</svg>