<?xml version="1.0" encoding="utf-8" standalone="no"?>
<!DOCTYPE svg PUBLIC "-//W3C//DTD SVG 1.1//EN"
  "http://www.w3.org/Graphics/SVG/1.1/DTD/svg11.dtd">
<!-- Created with matplotlib (https://matplotlib.org/) -->
<svg height="345.6pt" version="1.1" viewBox="0 0 460.8 345.6" width="460.8pt" xmlns="http://www.w3.org/2000/svg" xmlns:xlink="http://www.w3.org/1999/xlink">
 <defs>
  <style type="text/css">
*{stroke-linecap:butt;stroke-linejoin:round;}
  </style>
 </defs>
 <g id="figure_1">
  <g id="patch_1">
   <path d="M 0 345.6 
L 460.8 345.6 
L 460.8 0 
L 0 0 
z
" style="fill:#ffffff;"/>
  </g>
  <g id="axes_1">
   <g id="patch_2">
    <path d="M 57.6 307.584 
L 414.72 307.584 
L 414.72 41.472 
L 57.6 41.472 
z
" style="fill:#ffffff;"/>
   </g>
   <g id="matplotlib.axis_1">
    <g id="xtick_1">
     <g id="line2d_1">
      <defs>
       <path d="M 0 0 
L 0 3.5 
" id="m74ae420457" style="stroke:#000000;stroke-width:0.8;"/>
      </defs>
      <g>
       <use style="stroke:#000000;stroke-width:0.8;" x="57.6" xlink:href="#m74ae420457" y="307.584"/>
      </g>
     </g>
     <g id="text_1">
      <!-- 1 -->
      <defs>
       <path d="M 12.40625 8.296875 
L 28.515625 8.296875 
L 28.515625 63.921875 
L 10.984375 60.40625 
L 10.984375 69.390625 
L 28.421875 72.90625 
L 38.28125 72.90625 
L 38.28125 8.296875 
L 54.390625 8.296875 
L 54.390625 0 
L 12.40625 0 
z
" id="DejaVuSans-49"/>
      </defs>
      <g transform="translate(54.41875 322.182437)scale(0.1 -0.1)">
       <use xlink:href="#DejaVuSans-49"/>
      </g>
     </g>
    </g>
    <g id="xtick_2">
     <g id="line2d_2">
      <g>
       <use style="stroke:#000000;stroke-width:0.8;" x="97.324138" xlink:href="#m74ae420457" y="307.584"/>
      </g>
     </g>
     <g id="text_2">
      <!-- 2 -->
      <defs>
       <path d="M 19.1875 8.296875 
L 53.609375 8.296875 
L 53.609375 0 
L 7.328125 0 
L 7.328125 8.296875 
Q 12.9375 14.109375 22.625 23.890625 
Q 32.328125 33.6875 34.8125 36.53125 
Q 39.546875 41.84375 41.421875 45.53125 
Q 43.3125 49.21875 43.3125 52.78125 
Q 43.3125 58.59375 39.234375 62.25 
Q 35.15625 65.921875 28.609375 65.921875 
Q 23.96875 65.921875 18.8125 64.3125 
Q 13.671875 62.703125 7.8125 59.421875 
L 7.8125 69.390625 
Q 13.765625 71.78125 18.9375 73 
Q 24.125 74.21875 28.421875 74.21875 
Q 39.75 74.21875 46.484375 68.546875 
Q 53.21875 62.890625 53.21875 53.421875 
Q 53.21875 48.921875 51.53125 44.890625 
Q 49.859375 40.875 45.40625 35.40625 
Q 44.1875 33.984375 37.640625 27.21875 
Q 31.109375 20.453125 19.1875 8.296875 
z
" id="DejaVuSans-50"/>
      </defs>
      <g transform="translate(94.142888 322.182437)scale(0.1 -0.1)">
       <use xlink:href="#DejaVuSans-50"/>
      </g>
     </g>
    </g>
    <g id="xtick_3">
     <g id="line2d_3">
      <g>
       <use style="stroke:#000000;stroke-width:0.8;" x="137.048276" xlink:href="#m74ae420457" y="307.584"/>
      </g>
     </g>
     <g id="text_3">
      <!-- 3 -->
      <defs>
       <path d="M 40.578125 39.3125 
Q 47.65625 37.796875 51.625 33 
Q 55.609375 28.21875 55.609375 21.1875 
Q 55.609375 10.40625 48.1875 4.484375 
Q 40.765625 -1.421875 27.09375 -1.421875 
Q 22.515625 -1.421875 17.65625 -0.515625 
Q 12.796875 0.390625 7.625 2.203125 
L 7.625 11.71875 
Q 11.71875 9.328125 16.59375 8.109375 
Q 21.484375 6.890625 26.8125 6.890625 
Q 36.078125 6.890625 40.9375 10.546875 
Q 45.796875 14.203125 45.796875 21.1875 
Q 45.796875 27.640625 41.28125 31.265625 
Q 36.765625 34.90625 28.71875 34.90625 
L 20.21875 34.90625 
L 20.21875 43.015625 
L 29.109375 43.015625 
Q 36.375 43.015625 40.234375 45.921875 
Q 44.09375 48.828125 44.09375 54.296875 
Q 44.09375 59.90625 40.109375 62.90625 
Q 36.140625 65.921875 28.71875 65.921875 
Q 24.65625 65.921875 20.015625 65.03125 
Q 15.375 64.15625 9.8125 62.3125 
L 9.8125 71.09375 
Q 15.4375 72.65625 20.34375 73.4375 
Q 25.25 74.21875 29.59375 74.21875 
Q 40.828125 74.21875 47.359375 69.109375 
Q 53.90625 64.015625 53.90625 55.328125 
Q 53.90625 49.265625 50.4375 45.09375 
Q 46.96875 40.921875 40.578125 39.3125 
z
" id="DejaVuSans-51"/>
      </defs>
      <g transform="translate(133.867026 322.182437)scale(0.1 -0.1)">
       <use xlink:href="#DejaVuSans-51"/>
      </g>
     </g>
    </g>
    <g id="xtick_4">
     <g id="line2d_4">
      <g>
       <use style="stroke:#000000;stroke-width:0.8;" x="176.772414" xlink:href="#m74ae420457" y="307.584"/>
      </g>
     </g>
     <g id="text_4">
      <!-- 4 -->
      <defs>
       <path d="M 37.796875 64.3125 
L 12.890625 25.390625 
L 37.796875 25.390625 
z
M 35.203125 72.90625 
L 47.609375 72.90625 
L 47.609375 25.390625 
L 58.015625 25.390625 
L 58.015625 17.1875 
L 47.609375 17.1875 
L 47.609375 0 
L 37.796875 0 
L 37.796875 17.1875 
L 4.890625 17.1875 
L 4.890625 26.703125 
z
" id="DejaVuSans-52"/>
      </defs>
      <g transform="translate(173.591164 322.182437)scale(0.1 -0.1)">
       <use xlink:href="#DejaVuSans-52"/>
      </g>
     </g>
    </g>
    <g id="xtick_5">
     <g id="line2d_5">
      <g>
       <use style="stroke:#000000;stroke-width:0.8;" x="216.496552" xlink:href="#m74ae420457" y="307.584"/>
      </g>
     </g>
     <g id="text_5">
      <!-- 5 -->
      <defs>
       <path d="M 10.796875 72.90625 
L 49.515625 72.90625 
L 49.515625 64.59375 
L 19.828125 64.59375 
L 19.828125 46.734375 
Q 21.96875 47.46875 24.109375 47.828125 
Q 26.265625 48.1875 28.421875 48.1875 
Q 40.625 48.1875 47.75 41.5 
Q 54.890625 34.8125 54.890625 23.390625 
Q 54.890625 11.625 47.5625 5.09375 
Q 40.234375 -1.421875 26.90625 -1.421875 
Q 22.3125 -1.421875 17.546875 -0.640625 
Q 12.796875 0.140625 7.71875 1.703125 
L 7.71875 11.625 
Q 12.109375 9.234375 16.796875 8.0625 
Q 21.484375 6.890625 26.703125 6.890625 
Q 35.15625 6.890625 40.078125 11.328125 
Q 45.015625 15.765625 45.015625 23.390625 
Q 45.015625 31 40.078125 35.4375 
Q 35.15625 39.890625 26.703125 39.890625 
Q 22.75 39.890625 18.8125 39.015625 
Q 14.890625 38.140625 10.796875 36.28125 
z
" id="DejaVuSans-53"/>
      </defs>
      <g transform="translate(213.315302 322.182437)scale(0.1 -0.1)">
       <use xlink:href="#DejaVuSans-53"/>
      </g>
     </g>
    </g>
    <g id="xtick_6">
     <g id="line2d_6">
      <g>
       <use style="stroke:#000000;stroke-width:0.8;" x="256.22069" xlink:href="#m74ae420457" y="307.584"/>
      </g>
     </g>
     <g id="text_6">
      <!-- 6 -->
      <defs>
       <path d="M 33.015625 40.375 
Q 26.375 40.375 22.484375 35.828125 
Q 18.609375 31.296875 18.609375 23.390625 
Q 18.609375 15.53125 22.484375 10.953125 
Q 26.375 6.390625 33.015625 6.390625 
Q 39.65625 6.390625 43.53125 10.953125 
Q 47.40625 15.53125 47.40625 23.390625 
Q 47.40625 31.296875 43.53125 35.828125 
Q 39.65625 40.375 33.015625 40.375 
z
M 52.59375 71.296875 
L 52.59375 62.3125 
Q 48.875 64.0625 45.09375 64.984375 
Q 41.3125 65.921875 37.59375 65.921875 
Q 27.828125 65.921875 22.671875 59.328125 
Q 17.53125 52.734375 16.796875 39.40625 
Q 19.671875 43.65625 24.015625 45.921875 
Q 28.375 48.1875 33.59375 48.1875 
Q 44.578125 48.1875 50.953125 41.515625 
Q 57.328125 34.859375 57.328125 23.390625 
Q 57.328125 12.15625 50.6875 5.359375 
Q 44.046875 -1.421875 33.015625 -1.421875 
Q 20.359375 -1.421875 13.671875 8.265625 
Q 6.984375 17.96875 6.984375 36.375 
Q 6.984375 53.65625 15.1875 63.9375 
Q 23.390625 74.21875 37.203125 74.21875 
Q 40.921875 74.21875 44.703125 73.484375 
Q 48.484375 72.75 52.59375 71.296875 
z
" id="DejaVuSans-54"/>
      </defs>
      <g transform="translate(253.03944 322.182437)scale(0.1 -0.1)">
       <use xlink:href="#DejaVuSans-54"/>
      </g>
     </g>
    </g>
    <g id="xtick_7">
     <g id="line2d_7">
      <g>
       <use style="stroke:#000000;stroke-width:0.8;" x="295.944828" xlink:href="#m74ae420457" y="307.584"/>
      </g>
     </g>
     <g id="text_7">
      <!-- 7 -->
      <defs>
       <path d="M 8.203125 72.90625 
L 55.078125 72.90625 
L 55.078125 68.703125 
L 28.609375 0 
L 18.3125 0 
L 43.21875 64.59375 
L 8.203125 64.59375 
z
" id="DejaVuSans-55"/>
      </defs>
      <g transform="translate(292.763578 322.182437)scale(0.1 -0.1)">
       <use xlink:href="#DejaVuSans-55"/>
      </g>
     </g>
    </g>
    <g id="xtick_8">
     <g id="line2d_8">
      <g>
       <use style="stroke:#000000;stroke-width:0.8;" x="335.668966" xlink:href="#m74ae420457" y="307.584"/>
      </g>
     </g>
     <g id="text_8">
      <!-- 8 -->
      <defs>
       <path d="M 31.78125 34.625 
Q 24.75 34.625 20.71875 30.859375 
Q 16.703125 27.09375 16.703125 20.515625 
Q 16.703125 13.921875 20.71875 10.15625 
Q 24.75 6.390625 31.78125 6.390625 
Q 38.8125 6.390625 42.859375 10.171875 
Q 46.921875 13.96875 46.921875 20.515625 
Q 46.921875 27.09375 42.890625 30.859375 
Q 38.875 34.625 31.78125 34.625 
z
M 21.921875 38.8125 
Q 15.578125 40.375 12.03125 44.71875 
Q 8.5 49.078125 8.5 55.328125 
Q 8.5 64.0625 14.71875 69.140625 
Q 20.953125 74.21875 31.78125 74.21875 
Q 42.671875 74.21875 48.875 69.140625 
Q 55.078125 64.0625 55.078125 55.328125 
Q 55.078125 49.078125 51.53125 44.71875 
Q 48 40.375 41.703125 38.8125 
Q 48.828125 37.15625 52.796875 32.3125 
Q 56.78125 27.484375 56.78125 20.515625 
Q 56.78125 9.90625 50.3125 4.234375 
Q 43.84375 -1.421875 31.78125 -1.421875 
Q 19.734375 -1.421875 13.25 4.234375 
Q 6.78125 9.90625 6.78125 20.515625 
Q 6.78125 27.484375 10.78125 32.3125 
Q 14.796875 37.15625 21.921875 38.8125 
z
M 18.3125 54.390625 
Q 18.3125 48.734375 21.84375 45.5625 
Q 25.390625 42.390625 31.78125 42.390625 
Q 38.140625 42.390625 41.71875 45.5625 
Q 45.3125 48.734375 45.3125 54.390625 
Q 45.3125 60.0625 41.71875 63.234375 
Q 38.140625 66.40625 31.78125 66.40625 
Q 25.390625 66.40625 21.84375 63.234375 
Q 18.3125 60.0625 18.3125 54.390625 
z
" id="DejaVuSans-56"/>
      </defs>
      <g transform="translate(332.487716 322.182437)scale(0.1 -0.1)">
       <use xlink:href="#DejaVuSans-56"/>
      </g>
     </g>
    </g>
    <g id="xtick_9">
     <g id="line2d_9">
      <g>
       <use style="stroke:#000000;stroke-width:0.8;" x="375.393103" xlink:href="#m74ae420457" y="307.584"/>
      </g>
     </g>
     <g id="text_9">
      <!-- 9 -->
      <defs>
       <path d="M 10.984375 1.515625 
L 10.984375 10.5 
Q 14.703125 8.734375 18.5 7.8125 
Q 22.3125 6.890625 25.984375 6.890625 
Q 35.75 6.890625 40.890625 13.453125 
Q 46.046875 20.015625 46.78125 33.40625 
Q 43.953125 29.203125 39.59375 26.953125 
Q 35.25 24.703125 29.984375 24.703125 
Q 19.046875 24.703125 12.671875 31.3125 
Q 6.296875 37.9375 6.296875 49.421875 
Q 6.296875 60.640625 12.9375 67.421875 
Q 19.578125 74.21875 30.609375 74.21875 
Q 43.265625 74.21875 49.921875 64.515625 
Q 56.59375 54.828125 56.59375 36.375 
Q 56.59375 19.140625 48.40625 8.859375 
Q 40.234375 -1.421875 26.421875 -1.421875 
Q 22.703125 -1.421875 18.890625 -0.6875 
Q 15.09375 0.046875 10.984375 1.515625 
z
M 30.609375 32.421875 
Q 37.25 32.421875 41.125 36.953125 
Q 45.015625 41.5 45.015625 49.421875 
Q 45.015625 57.28125 41.125 61.84375 
Q 37.25 66.40625 30.609375 66.40625 
Q 23.96875 66.40625 20.09375 61.84375 
Q 16.21875 57.28125 16.21875 49.421875 
Q 16.21875 41.5 20.09375 36.953125 
Q 23.96875 32.421875 30.609375 32.421875 
z
" id="DejaVuSans-57"/>
      </defs>
      <g transform="translate(372.211853 322.182437)scale(0.1 -0.1)">
       <use xlink:href="#DejaVuSans-57"/>
      </g>
     </g>
    </g>
    <g id="xtick_10">
     <g id="line2d_10">
      <g>
       <use style="stroke:#000000;stroke-width:0.8;" x="415.117241" xlink:href="#m74ae420457" y="307.584"/>
      </g>
     </g>
     <g id="text_10">
      <!-- 10 -->
      <defs>
       <path d="M 31.78125 66.40625 
Q 24.171875 66.40625 20.328125 58.90625 
Q 16.5 51.421875 16.5 36.375 
Q 16.5 21.390625 20.328125 13.890625 
Q 24.171875 6.390625 31.78125 6.390625 
Q 39.453125 6.390625 43.28125 13.890625 
Q 47.125 21.390625 47.125 36.375 
Q 47.125 51.421875 43.28125 58.90625 
Q 39.453125 66.40625 31.78125 66.40625 
z
M 31.78125 74.21875 
Q 44.046875 74.21875 50.515625 64.515625 
Q 56.984375 54.828125 56.984375 36.375 
Q 56.984375 17.96875 50.515625 8.265625 
Q 44.046875 -1.421875 31.78125 -1.421875 
Q 19.53125 -1.421875 13.0625 8.265625 
Q 6.59375 17.96875 6.59375 36.375 
Q 6.59375 54.828125 13.0625 64.515625 
Q 19.53125 74.21875 31.78125 74.21875 
z
" id="DejaVuSans-48"/>
      </defs>
      <g transform="translate(408.754741 322.182437)scale(0.1 -0.1)">
       <use xlink:href="#DejaVuSans-49"/>
       <use x="63.623047" xlink:href="#DejaVuSans-48"/>
      </g>
     </g>
    </g>
    <g id="text_11">
     <!-- Energy (keV) -->
     <defs>
      <path d="M 9.8125 72.90625 
L 55.90625 72.90625 
L 55.90625 64.59375 
L 19.671875 64.59375 
L 19.671875 43.015625 
L 54.390625 43.015625 
L 54.390625 34.71875 
L 19.671875 34.71875 
L 19.671875 8.296875 
L 56.78125 8.296875 
L 56.78125 0 
L 9.8125 0 
z
" id="DejaVuSans-69"/>
      <path d="M 54.890625 33.015625 
L 54.890625 0 
L 45.90625 0 
L 45.90625 32.71875 
Q 45.90625 40.484375 42.875 44.328125 
Q 39.84375 48.1875 33.796875 48.1875 
Q 26.515625 48.1875 22.3125 43.546875 
Q 18.109375 38.921875 18.109375 30.90625 
L 18.109375 0 
L 9.078125 0 
L 9.078125 54.6875 
L 18.109375 54.6875 
L 18.109375 46.1875 
Q 21.34375 51.125 25.703125 53.5625 
Q 30.078125 56 35.796875 56 
Q 45.21875 56 50.046875 50.171875 
Q 54.890625 44.34375 54.890625 33.015625 
z
" id="DejaVuSans-110"/>
      <path d="M 56.203125 29.59375 
L 56.203125 25.203125 
L 14.890625 25.203125 
Q 15.484375 15.921875 20.484375 11.0625 
Q 25.484375 6.203125 34.421875 6.203125 
Q 39.59375 6.203125 44.453125 7.46875 
Q 49.3125 8.734375 54.109375 11.28125 
L 54.109375 2.78125 
Q 49.265625 0.734375 44.1875 -0.34375 
Q 39.109375 -1.421875 33.890625 -1.421875 
Q 20.796875 -1.421875 13.15625 6.1875 
Q 5.515625 13.8125 5.515625 26.8125 
Q 5.515625 40.234375 12.765625 48.109375 
Q 20.015625 56 32.328125 56 
Q 43.359375 56 49.78125 48.890625 
Q 56.203125 41.796875 56.203125 29.59375 
z
M 47.21875 32.234375 
Q 47.125 39.59375 43.09375 43.984375 
Q 39.0625 48.390625 32.421875 48.390625 
Q 24.90625 48.390625 20.390625 44.140625 
Q 15.875 39.890625 15.1875 32.171875 
z
" id="DejaVuSans-101"/>
      <path d="M 41.109375 46.296875 
Q 39.59375 47.171875 37.8125 47.578125 
Q 36.03125 48 33.890625 48 
Q 26.265625 48 22.1875 43.046875 
Q 18.109375 38.09375 18.109375 28.8125 
L 18.109375 0 
L 9.078125 0 
L 9.078125 54.6875 
L 18.109375 54.6875 
L 18.109375 46.1875 
Q 20.953125 51.171875 25.484375 53.578125 
Q 30.03125 56 36.53125 56 
Q 37.453125 56 38.578125 55.875 
Q 39.703125 55.765625 41.0625 55.515625 
z
" id="DejaVuSans-114"/>
      <path d="M 45.40625 27.984375 
Q 45.40625 37.75 41.375 43.109375 
Q 37.359375 48.484375 30.078125 48.484375 
Q 22.859375 48.484375 18.828125 43.109375 
Q 14.796875 37.75 14.796875 27.984375 
Q 14.796875 18.265625 18.828125 12.890625 
Q 22.859375 7.515625 30.078125 7.515625 
Q 37.359375 7.515625 41.375 12.890625 
Q 45.40625 18.265625 45.40625 27.984375 
z
M 54.390625 6.78125 
Q 54.390625 -7.171875 48.1875 -13.984375 
Q 42 -20.796875 29.203125 -20.796875 
Q 24.46875 -20.796875 20.265625 -20.09375 
Q 16.0625 -19.390625 12.109375 -17.921875 
L 12.109375 -9.1875 
Q 16.0625 -11.328125 19.921875 -12.34375 
Q 23.78125 -13.375 27.78125 -13.375 
Q 36.625 -13.375 41.015625 -8.765625 
Q 45.40625 -4.15625 45.40625 5.171875 
L 45.40625 9.625 
Q 42.625 4.78125 38.28125 2.390625 
Q 33.9375 0 27.875 0 
Q 17.828125 0 11.671875 7.65625 
Q 5.515625 15.328125 5.515625 27.984375 
Q 5.515625 40.671875 11.671875 48.328125 
Q 17.828125 56 27.875 56 
Q 33.9375 56 38.28125 53.609375 
Q 42.625 51.21875 45.40625 46.390625 
L 45.40625 54.6875 
L 54.390625 54.6875 
z
" id="DejaVuSans-103"/>
      <path d="M 32.171875 -5.078125 
Q 28.375 -14.84375 24.75 -17.8125 
Q 21.140625 -20.796875 15.09375 -20.796875 
L 7.90625 -20.796875 
L 7.90625 -13.28125 
L 13.1875 -13.28125 
Q 16.890625 -13.28125 18.9375 -11.515625 
Q 21 -9.765625 23.484375 -3.21875 
L 25.09375 0.875 
L 2.984375 54.6875 
L 12.5 54.6875 
L 29.59375 11.921875 
L 46.6875 54.6875 
L 56.203125 54.6875 
z
" id="DejaVuSans-121"/>
      <path id="DejaVuSans-32"/>
      <path d="M 31 75.875 
Q 24.46875 64.65625 21.28125 53.65625 
Q 18.109375 42.671875 18.109375 31.390625 
Q 18.109375 20.125 21.3125 9.0625 
Q 24.515625 -2 31 -13.1875 
L 23.1875 -13.1875 
Q 15.875 -1.703125 12.234375 9.375 
Q 8.59375 20.453125 8.59375 31.390625 
Q 8.59375 42.28125 12.203125 53.3125 
Q 15.828125 64.359375 23.1875 75.875 
z
" id="DejaVuSans-40"/>
      <path d="M 9.078125 75.984375 
L 18.109375 75.984375 
L 18.109375 31.109375 
L 44.921875 54.6875 
L 56.390625 54.6875 
L 27.390625 29.109375 
L 57.625 0 
L 45.90625 0 
L 18.109375 26.703125 
L 18.109375 0 
L 9.078125 0 
z
" id="DejaVuSans-107"/>
      <path d="M 28.609375 0 
L 0.78125 72.90625 
L 11.078125 72.90625 
L 34.1875 11.53125 
L 57.328125 72.90625 
L 67.578125 72.90625 
L 39.796875 0 
z
" id="DejaVuSans-86"/>
      <path d="M 8.015625 75.875 
L 15.828125 75.875 
Q 23.140625 64.359375 26.78125 53.3125 
Q 30.421875 42.28125 30.421875 31.390625 
Q 30.421875 20.453125 26.78125 9.375 
Q 23.140625 -1.703125 15.828125 -13.1875 
L 8.015625 -13.1875 
Q 14.5 -2 17.703125 9.0625 
Q 20.90625 20.125 20.90625 31.390625 
Q 20.90625 42.671875 17.703125 53.65625 
Q 14.5 64.65625 8.015625 75.875 
z
" id="DejaVuSans-41"/>
     </defs>
     <g transform="translate(203.686562 335.860562)scale(0.1 -0.1)">
      <use xlink:href="#DejaVuSans-69"/>
      <use x="63.183594" xlink:href="#DejaVuSans-110"/>
      <use x="126.5625" xlink:href="#DejaVuSans-101"/>
      <use x="188.085938" xlink:href="#DejaVuSans-114"/>
      <use x="229.183594" xlink:href="#DejaVuSans-103"/>
      <use x="292.660156" xlink:href="#DejaVuSans-121"/>
      <use x="351.839844" xlink:href="#DejaVuSans-32"/>
      <use x="383.626953" xlink:href="#DejaVuSans-40"/>
      <use x="422.640625" xlink:href="#DejaVuSans-107"/>
      <use x="480.503906" xlink:href="#DejaVuSans-101"/>
      <use x="542.027344" xlink:href="#DejaVuSans-86"/>
      <use x="610.435547" xlink:href="#DejaVuSans-41"/>
     </g>
    </g>
   </g>
   <g id="matplotlib.axis_2">
    <g id="ytick_1">
     <g id="line2d_11">
      <defs>
       <path d="M 0 0 
L -3.5 0 
" id="m2db06d71d0" style="stroke:#000000;stroke-width:0.8;"/>
      </defs>
      <g>
       <use style="stroke:#000000;stroke-width:0.8;" x="57.6" xlink:href="#m2db06d71d0" y="281.364567"/>
      </g>
     </g>
     <g id="text_12">
      <!-- −40 -->
      <defs>
       <path d="M 10.59375 35.5 
L 73.1875 35.5 
L 73.1875 27.203125 
L 10.59375 27.203125 
z
" id="DejaVuSans-8722"/>
      </defs>
      <g transform="translate(29.495313 285.163785)scale(0.1 -0.1)">
       <use xlink:href="#DejaVuSans-8722"/>
       <use x="83.789062" xlink:href="#DejaVuSans-52"/>
       <use x="147.412109" xlink:href="#DejaVuSans-48"/>
      </g>
     </g>
    </g>
    <g id="ytick_2">
     <g id="line2d_12">
      <g>
       <use style="stroke:#000000;stroke-width:0.8;" x="57.6" xlink:href="#m2db06d71d0" y="244.458018"/>
      </g>
     </g>
     <g id="text_13">
      <!-- −20 -->
      <g transform="translate(29.495313 248.257237)scale(0.1 -0.1)">
       <use xlink:href="#DejaVuSans-8722"/>
       <use x="83.789062" xlink:href="#DejaVuSans-50"/>
       <use x="147.412109" xlink:href="#DejaVuSans-48"/>
      </g>
     </g>
    </g>
    <g id="ytick_3">
     <g id="line2d_13">
      <g>
       <use style="stroke:#000000;stroke-width:0.8;" x="57.6" xlink:href="#m2db06d71d0" y="207.551469"/>
      </g>
     </g>
     <g id="text_14">
      <!-- 0 -->
      <g transform="translate(44.2375 211.350688)scale(0.1 -0.1)">
       <use xlink:href="#DejaVuSans-48"/>
      </g>
     </g>
    </g>
    <g id="ytick_4">
     <g id="line2d_14">
      <g>
       <use style="stroke:#000000;stroke-width:0.8;" x="57.6" xlink:href="#m2db06d71d0" y="170.644921"/>
      </g>
     </g>
     <g id="text_15">
      <!-- 20 -->
      <g transform="translate(37.875 174.444139)scale(0.1 -0.1)">
       <use xlink:href="#DejaVuSans-50"/>
       <use x="63.623047" xlink:href="#DejaVuSans-48"/>
      </g>
     </g>
    </g>
    <g id="ytick_5">
     <g id="line2d_15">
      <g>
       <use style="stroke:#000000;stroke-width:0.8;" x="57.6" xlink:href="#m2db06d71d0" y="133.738372"/>
      </g>
     </g>
     <g id="text_16">
      <!-- 40 -->
      <g transform="translate(37.875 137.537591)scale(0.1 -0.1)">
       <use xlink:href="#DejaVuSans-52"/>
       <use x="63.623047" xlink:href="#DejaVuSans-48"/>
      </g>
     </g>
    </g>
    <g id="ytick_6">
     <g id="line2d_16">
      <g>
       <use style="stroke:#000000;stroke-width:0.8;" x="57.6" xlink:href="#m2db06d71d0" y="96.831823"/>
      </g>
     </g>
     <g id="text_17">
      <!-- 60 -->
      <g transform="translate(37.875 100.631042)scale(0.1 -0.1)">
       <use xlink:href="#DejaVuSans-54"/>
       <use x="63.623047" xlink:href="#DejaVuSans-48"/>
      </g>
     </g>
    </g>
    <g id="ytick_7">
     <g id="line2d_17">
      <g>
       <use style="stroke:#000000;stroke-width:0.8;" x="57.6" xlink:href="#m2db06d71d0" y="59.925274"/>
      </g>
     </g>
     <g id="text_18">
      <!-- 80 -->
      <g transform="translate(37.875 63.724493)scale(0.1 -0.1)">
       <use xlink:href="#DejaVuSans-56"/>
       <use x="63.623047" xlink:href="#DejaVuSans-48"/>
      </g>
     </g>
    </g>
    <g id="text_19">
     <!-- Intensity -->
     <defs>
      <path d="M 9.8125 72.90625 
L 19.671875 72.90625 
L 19.671875 0 
L 9.8125 0 
z
" id="DejaVuSans-73"/>
      <path d="M 18.3125 70.21875 
L 18.3125 54.6875 
L 36.8125 54.6875 
L 36.8125 47.703125 
L 18.3125 47.703125 
L 18.3125 18.015625 
Q 18.3125 11.328125 20.140625 9.421875 
Q 21.96875 7.515625 27.59375 7.515625 
L 36.8125 7.515625 
L 36.8125 0 
L 27.59375 0 
Q 17.1875 0 13.234375 3.875 
Q 9.28125 7.765625 9.28125 18.015625 
L 9.28125 47.703125 
L 2.6875 47.703125 
L 2.6875 54.6875 
L 9.28125 54.6875 
L 9.28125 70.21875 
z
" id="DejaVuSans-116"/>
      <path d="M 44.28125 53.078125 
L 44.28125 44.578125 
Q 40.484375 46.53125 36.375 47.5 
Q 32.28125 48.484375 27.875 48.484375 
Q 21.1875 48.484375 17.84375 46.4375 
Q 14.5 44.390625 14.5 40.28125 
Q 14.5 37.15625 16.890625 35.375 
Q 19.28125 33.59375 26.515625 31.984375 
L 29.59375 31.296875 
Q 39.15625 29.25 43.1875 25.515625 
Q 47.21875 21.78125 47.21875 15.09375 
Q 47.21875 7.46875 41.1875 3.015625 
Q 35.15625 -1.421875 24.609375 -1.421875 
Q 20.21875 -1.421875 15.453125 -0.5625 
Q 10.6875 0.296875 5.421875 2 
L 5.421875 11.28125 
Q 10.40625 8.6875 15.234375 7.390625 
Q 20.0625 6.109375 24.8125 6.109375 
Q 31.15625 6.109375 34.5625 8.28125 
Q 37.984375 10.453125 37.984375 14.40625 
Q 37.984375 18.0625 35.515625 20.015625 
Q 33.0625 21.96875 24.703125 23.78125 
L 21.578125 24.515625 
Q 13.234375 26.265625 9.515625 29.90625 
Q 5.8125 33.546875 5.8125 39.890625 
Q 5.8125 47.609375 11.28125 51.796875 
Q 16.75 56 26.8125 56 
Q 31.78125 56 36.171875 55.265625 
Q 40.578125 54.546875 44.28125 53.078125 
z
" id="DejaVuSans-115"/>
      <path d="M 9.421875 54.6875 
L 18.40625 54.6875 
L 18.40625 0 
L 9.421875 0 
z
M 9.421875 75.984375 
L 18.40625 75.984375 
L 18.40625 64.59375 
L 9.421875 64.59375 
z
" id="DejaVuSans-105"/>
     </defs>
     <g transform="translate(23.415625 196.2905)rotate(-90)scale(0.1 -0.1)">
      <use xlink:href="#DejaVuSans-73"/>
      <use x="29.492188" xlink:href="#DejaVuSans-110"/>
      <use x="92.871094" xlink:href="#DejaVuSans-116"/>
      <use x="132.080078" xlink:href="#DejaVuSans-101"/>
      <use x="193.603516" xlink:href="#DejaVuSans-110"/>
      <use x="256.982422" xlink:href="#DejaVuSans-115"/>
      <use x="309.082031" xlink:href="#DejaVuSans-105"/>
      <use x="336.865234" xlink:href="#DejaVuSans-116"/>
      <use x="376.074219" xlink:href="#DejaVuSans-121"/>
     </g>
    </g>
   </g>
   <g id="line2d_18">
    <path clip-path="url(#p7d1fdb3c48)" d="M 57.6 205.590266 
L 57.997241 205.726753 
L 60.38069 205.477499 
L 61.969655 205.197209 
L 64.353103 205.703036 
L 65.147586 205.846041 
L 65.544828 205.934295 
L 65.942069 205.856664 
L 67.133793 205.976788 
L 67.531034 205.820709 
L 67.928276 205.90406 
L 68.325517 205.86647 
L 69.12 205.916317 
L 70.311724 205.92122 
L 70.708966 205.815805 
L 71.503448 205.885265 
L 71.90069 205.887716 
L 72.297931 205.761056 
L 72.695172 205.77985 
L 73.092414 205.911415 
L 73.489655 205.637663 
L 73.886897 205.773313 
L 75.078621 205.568205 
L 75.475862 205.627857 
L 75.873103 205.476681 
L 76.667586 205.382706 
L 77.462069 205.214371 
L 79.448276 204.698737 
L 79.845517 204.434793 
L 80.242759 204.368602 
L 81.831724 203.037436 
L 82.228966 202.368993 
L 82.626207 201.17593 
L 83.023448 199.277647 
L 83.42069 196.040032 
L 83.817931 191.228546 
L 84.215172 184.678135 
L 84.612414 176.106863 
L 86.598621 122.838977 
L 86.995862 119.898817 
L 87.393103 121.453884 
L 87.790345 127.808178 
L 88.584828 149.844732 
L 89.776552 182.222544 
L 90.571034 194.228371 
L 91.365517 200.009013 
L 92.16 202.851122 
L 92.557241 203.817831 
L 93.748966 205.520808 
L 94.94069 206.096911 
L 96.132414 206.322449 
L 97.721379 206.320815 
L 98.515862 206.338793 
L 99.707586 206.365759 
L 103.68 206.355953 
L 104.474483 206.43195 
L 105.666207 206.436853 
L 107.255172 206.369028 
L 108.049655 206.465454 
L 118.377931 206.545536 
L 119.172414 206.521021 
L 120.364138 206.50713 
L 121.158621 206.489969 
L 121.555862 206.565965 
L 122.350345 206.54145 
L 126.72 206.525107 
L 127.117241 206.610909 
L 127.911724 206.528376 
L 129.103448 206.62807 
L 130.295172 206.538999 
L 133.075862 206.612544 
L 133.473103 206.542268 
L 134.267586 206.527559 
L 135.856552 206.553708 
L 137.445517 206.585577 
L 143.006897 206.724496 
L 143.801379 206.655854 
L 145.787586 206.709787 
L 151.746207 206.724496 
L 156.513103 206.548805 
L 159.691034 206.655854 
L 161.677241 206.508763 
L 162.868966 206.435219 
L 164.06069 206.478529 
L 165.252414 206.602738 
L 168.033103 206.89365 
L 172.402759 206.959023 
L 175.977931 206.964743 
L 177.169655 206.932873 
L 177.964138 206.95412 
L 179.155862 206.941045 
L 180.347586 206.968829 
L 208.551724 206.705701 
L 214.907586 206.355953 
L 215.702069 206.300386 
L 220.468966 205.92122 
L 221.263448 205.774947 
L 221.66069 205.832149 
L 222.057931 205.686693 
L 222.852414 205.598439 
L 224.838621 205.052571 
L 225.235862 204.879332 
L 226.030345 204.044187 
L 226.427586 203.368389 
L 226.824828 202.301168 
L 227.222069 200.88992 
L 227.61931 198.927084 
L 228.016552 196.336664 
L 228.811034 188.039964 
L 229.605517 176.007991 
L 231.988966 131.4544 
L 232.386207 128.162828 
L 232.783448 126.101118 
L 233.18069 127.685594 
L 233.577931 130.5318 
L 233.975172 135.331021 
L 234.769655 150.59408 
L 236.755862 188.22137 
L 237.550345 197.085188 
L 238.344828 202.165519 
L 239.13931 204.869525 
L 239.933793 206.092826 
L 240.331034 206.349416 
L 241.522759 206.614995 
L 242.714483 206.641962 
L 243.111724 206.5676 
L 243.906207 206.604372 
L 247.084138 206.297934 
L 248.673103 205.612331 
L 249.467586 204.765746 
L 250.262069 203.421506 
L 251.056552 201.721798 
L 252.248276 198.851904 
L 253.042759 197.144843 
L 253.837241 196.36036 
L 254.234483 196.50827 
L 255.028966 197.407152 
L 256.22069 200.16591 
L 257.412414 203.167365 
L 258.604138 205.385159 
L 259.398621 206.148393 
L 260.193103 206.693443 
L 260.987586 206.89937 
L 262.17931 207.047277 
L 264.562759 207.084867 
L 270.124138 206.968012 
L 270.521379 206.860963 
L 271.315862 206.91081 
L 273.302069 206.897735 
L 275.288276 206.944314 
L 275.685517 206.89937 
L 276.082759 207.012139 
L 276.877241 206.990075 
L 280.055172 206.984355 
L 282.041379 206.94268 
L 282.835862 206.912444 
L 283.233103 206.977818 
L 284.424828 206.909176 
L 288.397241 206.789869 
L 289.191724 206.800493 
L 293.958621 206.591298 
L 294.355862 206.633791 
L 295.150345 206.520204 
L 296.342069 206.483432 
L 301.903448 206.27914 
L 304.286897 206.063408 
L 304.684138 206.06259 
L 305.081379 205.881997 
L 305.478621 205.844406 
L 306.670345 205.183319 
L 307.067586 204.802518 
L 307.464828 204.241942 
L 307.862069 203.46645 
L 308.25931 202.385337 
L 309.053793 199.082349 
L 309.848276 193.6155 
L 310.642759 186.345982 
L 311.437241 176.450905 
L 312.628966 160.510416 
L 313.423448 152.15488 
L 313.82069 149.12809 
L 314.217931 148.301123 
L 314.615172 148.077214 
L 315.012414 149.521157 
L 315.409655 151.91137 
L 316.204138 159.768436 
L 318.587586 190.55521 
L 319.382069 197.440661 
L 320.176552 201.895037 
L 320.971034 204.460126 
L 321.368276 205.289551 
L 322.162759 206.2677 
L 322.56 206.570051 
L 324.148966 206.990076 
L 327.326897 207.091404 
L 328.518621 207.060352 
L 329.710345 207.047277 
L 333.285517 206.968012 
L 333.682759 207.032568 
L 334.08 206.931239 
L 335.668966 206.923885 
L 338.052414 206.771075 
L 338.449655 206.585577 
L 339.244138 206.432767 
L 341.230345 204.98965 
L 343.216552 201.951423 
L 344.408276 200.115249 
L 345.6 199.309521 
L 346.394483 199.519534 
L 347.188966 200.237005 
L 347.983448 201.408823 
L 349.969655 204.664418 
L 350.366897 205.166975 
L 350.764138 205.441544 
L 351.161379 205.903243 
L 352.353103 206.611727 
L 353.147586 206.891198 
L 355.133793 207.201722 
L 356.325517 207.251569 
L 363.873103 207.290793 
L 368.64 207.303868 
L 382.146207 207.012139 
L 385.324138 206.91081 
L 388.89931 207.227054 
L 390.091034 207.252386 
L 404.391724 207.300599 
L 405.186207 207.278535 
L 406.377931 207.305502 
L 408.364138 207.319394 
L 414.72 207.289159 
L 414.72 207.289159 
" style="fill:none;stroke:#1f77b4;stroke-linecap:square;stroke-width:1.5;"/>
   </g>
   <g id="line2d_19">
    <path clip-path="url(#p7d1fdb3c48)" d="M 57.6 207.87078 
L 58.394483 207.712637 
L 62.366897 207.305475 
L 63.161379 207.523507 
L 63.558621 207.37113 
L 64.353103 207.538976 
L 64.750345 207.668811 
L 65.147586 207.632081 
L 65.544828 207.717257 
L 66.33931 207.60823 
L 67.531034 207.614272 
L 68.325517 207.691041 
L 69.517241 207.606549 
L 70.311724 207.582045 
L 71.90069 207.42292 
L 72.297931 207.515899 
L 74.681379 207.226243 
L 75.078621 207.028228 
L 75.475862 207.128504 
L 75.873103 207.043305 
L 76.270345 206.816314 
L 76.667586 206.7823 
L 78.653793 205.891626 
L 79.448276 205.399879 
L 79.845517 204.902782 
L 80.242759 204.741583 
L 81.037241 203.869351 
L 81.831724 202.364495 
L 82.228966 201.346514 
L 82.626207 199.023628 
L 83.023448 195.520268 
L 83.42069 189.638438 
L 83.817931 180.75878 
L 84.215172 168.668654 
L 85.009655 132.504624 
L 86.201379 67.118056 
L 86.598621 54.39467 
L 86.995862 48.687322 
L 87.393103 51.299616 
L 87.790345 63.43123 
L 88.584828 104.043928 
L 89.37931 146.525302 
L 90.173793 176.34328 
L 90.571034 185.733369 
L 90.968276 192.186358 
L 91.365517 196.435223 
L 92.16 201.637792 
L 92.557241 203.282555 
L 93.351724 205.492217 
L 94.146207 206.831152 
L 94.94069 207.411304 
L 95.735172 207.715188 
L 96.926897 207.82021 
L 100.104828 207.798975 
L 101.296552 207.885244 
L 103.68 207.875243 
L 105.666207 207.842093 
L 108.446897 207.868792 
L 109.638621 207.894765 
L 110.035862 207.814349 
L 110.433103 207.897072 
L 111.227586 207.864652 
L 111.624828 207.919794 
L 112.022069 207.822007 
L 113.611034 207.895509 
L 121.555862 207.823471 
L 123.144828 207.829315 
L 123.93931 207.871782 
L 125.131034 207.822039 
L 125.528276 207.883037 
L 126.322759 207.85887 
L 132.281379 207.875162 
L 132.678621 207.931529 
L 133.075862 207.843831 
L 134.267586 207.923778 
L 134.664828 207.820567 
L 135.45931 207.934712 
L 137.842759 207.883548 
L 139.431724 207.879443 
L 141.815172 207.838991 
L 144.595862 207.852689 
L 147.773793 207.823986 
L 148.965517 207.762752 
L 150.951724 207.75916 
L 152.54069 207.64705 
L 156.115862 207.34703 
L 163.663448 207.966688 
L 164.855172 207.914542 
L 166.841379 207.828602 
L 167.635862 207.740849 
L 173.197241 207.728494 
L 176.375172 207.741935 
L 177.964138 207.727292 
L 178.758621 207.735112 
L 182.731034 207.750507 
L 188.292414 207.725482 
L 189.881379 207.739981 
L 190.675862 207.742493 
L 191.867586 207.740996 
L 193.05931 207.753694 
L 193.456552 207.705426 
L 194.251034 207.741187 
L 207.757241 207.888808 
L 208.551724 207.913543 
L 211.332414 208.002251 
L 214.907586 208.101777 
L 215.702069 208.149287 
L 220.866207 208.376452 
L 222.455172 208.47703 
L 222.852414 208.456988 
L 224.044138 208.675678 
L 224.838621 208.826472 
L 225.235862 208.909771 
L 226.030345 209.361857 
L 226.427586 209.749678 
L 227.222069 211.135886 
L 227.61931 212.199848 
L 228.016552 213.652078 
L 228.811034 218.182149 
L 229.605517 224.867877 
L 231.988966 249.426202 
L 232.386207 251.121513 
L 232.783448 252.175757 
L 233.18069 251.306212 
L 233.577931 249.763398 
L 233.975172 247.083916 
L 234.769655 238.583625 
L 236.755862 218.019128 
L 237.550345 213.209098 
L 238.344828 210.392499 
L 239.13931 208.904463 
L 239.933793 208.264443 
L 240.331034 208.106262 
L 242.714483 207.945176 
L 243.508966 207.99288 
L 244.70069 208.02255 
L 246.686897 208.176174 
L 247.481379 208.231006 
L 247.878621 208.266596 
L 249.467586 208.980263 
L 250.262069 209.747696 
L 251.056552 210.646907 
L 251.851034 211.774655 
L 253.44 213.40241 
L 253.837241 213.611051 
L 254.234483 213.508574 
L 255.028966 213.041414 
L 257.809655 209.437058 
L 258.604138 208.658954 
L 259.795862 208.094113 
L 260.590345 207.872088 
L 262.576552 207.75949 
L 264.562759 207.759025 
L 266.548966 207.773541 
L 269.329655 207.834053 
L 270.124138 207.790408 
L 270.521379 207.86681 
L 271.315862 207.844242 
L 273.69931 207.802441 
L 275.685517 207.84592 
L 276.48 207.805939 
L 289.588966 207.952011 
L 290.78069 208.015104 
L 292.766897 208.061078 
L 304.684138 208.480464 
L 305.478621 208.662691 
L 306.670345 209.169825 
L 307.067586 209.395232 
L 307.862069 210.393599 
L 308.25931 211.171824 
L 309.053793 213.567347 
L 309.848276 217.539723 
L 310.642759 222.843959 
L 311.437241 230.04324 
L 312.628966 241.570914 
L 313.423448 247.641846 
L 313.82069 249.925095 
L 314.217931 250.440599 
L 314.615172 250.598562 
L 315.012414 249.58804 
L 315.409655 247.909116 
L 316.204138 242.0985 
L 318.587586 219.755044 
L 319.382069 214.75099 
L 320.176552 211.508827 
L 320.971034 209.683851 
L 321.765517 208.623187 
L 322.56 208.152688 
L 323.751724 207.87432 
L 324.546207 207.81519 
L 326.135172 207.824528 
L 327.326897 207.752259 
L 328.518621 207.797626 
L 332.888276 207.82898 
L 334.08 207.870099 
L 336.066207 207.880948 
L 339.641379 208.446043 
L 340.435862 208.766173 
L 341.627586 209.696982 
L 342.422069 210.471491 
L 344.408276 212.832652 
L 345.6 213.382138 
L 346.791724 212.994991 
L 347.586207 212.327884 
L 349.175172 210.369737 
L 350.366897 209.061087 
L 352.353103 208.032187 
L 353.147586 207.829805 
L 354.736552 207.655742 
L 357.914483 207.617408 
L 359.90069 207.633535 
L 364.270345 207.614143 
L 370.228966 207.619356 
L 378.173793 207.651633 
L 381.351724 207.623285 
L 383.337931 207.513504 
L 384.132414 207.482123 
L 387.707586 207.528039 
L 388.89931 207.57585 
L 414.72 207.599496 
L 414.72 207.599496 
" style="fill:none;stroke:#ff7f0e;stroke-linecap:square;stroke-width:1.5;"/>
   </g>
   <g id="line2d_20">
    <path clip-path="url(#p7d1fdb3c48)" d="M 57.6 207.215613 
L 57.997241 207.40105 
L 58.394483 207.369927 
L 58.791724 207.545029 
L 59.188966 207.47731 
L 59.983448 207.614213 
L 60.38069 207.679324 
L 61.175172 207.617883 
L 61.969655 207.65908 
L 62.366897 207.607034 
L 63.161379 207.722378 
L 63.558621 207.487342 
L 63.955862 207.602743 
L 65.942069 207.468259 
L 66.33931 207.530904 
L 67.133793 207.481078 
L 70.311724 207.542188 
L 70.708966 207.365413 
L 71.90069 207.50095 
L 72.297931 207.437568 
L 73.092414 207.460259 
L 73.489655 207.445704 
L 73.886897 207.557884 
L 74.284138 207.391429 
L 75.475862 207.483422 
L 75.873103 207.364588 
L 76.667586 207.497948 
L 77.064828 207.310828 
L 77.462069 207.406573 
L 77.85931 207.309364 
L 78.256552 207.407042 
L 79.845517 207.112925 
L 80.64 207.181685 
L 82.626207 206.718878 
L 83.023448 206.459669 
L 83.817931 205.484215 
L 84.612414 203.799968 
L 85.406897 201.485091 
L 86.201379 198.751035 
L 86.995862 197.712116 
L 87.393103 197.761334 
L 87.790345 198.693555 
L 89.776552 204.721319 
L 90.173793 205.564784 
L 90.968276 206.530981 
L 91.762759 206.963035 
L 92.954483 207.308456 
L 93.748966 207.396699 
L 94.146207 207.466393 
L 95.337931 207.394442 
L 96.132414 207.511969 
L 99.707586 207.490942 
L 100.104828 207.413502 
L 100.502069 207.499083 
L 101.693793 207.418696 
L 103.282759 207.48648 
L 104.077241 207.471089 
L 106.857931 207.492965 
L 107.652414 207.422718 
L 108.049655 207.504509 
L 109.638621 207.458346 
L 111.227586 207.555567 
L 111.624828 207.43063 
L 126.72 207.413618 
L 127.117241 207.530582 
L 127.514483 207.381116 
L 128.706207 207.413176 
L 129.103448 207.399986 
L 129.50069 207.5466 
L 129.897931 207.383354 
L 130.692414 207.460993 
L 131.884138 207.463492 
L 135.856552 207.377216 
L 136.253793 207.46608 
L 137.445517 207.361807 
L 137.842759 207.464647 
L 138.637241 207.426913 
L 142.609655 207.448664 
L 143.404138 207.420729 
L 144.595862 207.427604 
L 145.390345 207.422758 
L 147.376552 207.405173 
L 148.965517 207.433919 
L 150.554483 207.455821 
L 151.348966 207.396654 
L 151.746207 207.516128 
L 152.143448 207.447639 
L 152.937931 207.449648 
L 159.691034 207.553553 
L 160.088276 207.702897 
L 160.882759 207.771809 
L 163.663448 208.063752 
L 168.827586 207.489632 
L 172.8 207.484167 
L 173.594483 207.518338 
L 174.388966 207.486165 
L 175.183448 207.506793 
L 177.169655 207.480055 
L 179.155862 207.552577 
L 180.347586 207.493428 
L 180.744828 207.583572 
L 181.936552 207.496735 
L 182.333793 207.598908 
L 183.922759 207.587735 
L 186.306207 207.690299 
L 187.497931 207.541959 
L 187.895172 207.645477 
L 188.689655 207.612479 
L 189.881379 207.534493 
L 190.675862 207.595449 
L 193.853793 207.516922 
L 194.251034 207.655176 
L 194.648276 207.555952 
L 195.442759 207.630117 
L 197.031724 207.700528 
L 199.017931 207.716396 
L 199.812414 207.69716 
L 201.401379 207.762573 
L 203.784828 207.799424 
L 204.57931 207.931604 
L 205.373793 207.847486 
L 205.771034 207.850471 
L 206.168276 207.976218 
L 206.565517 207.878826 
L 207.36 207.90486 
L 208.154483 207.960874 
L 214.907586 208.432693 
L 219.674483 208.893549 
L 221.263448 209.171094 
L 221.66069 209.088063 
L 222.057931 209.250047 
L 222.852414 209.356934 
L 223.646897 209.607829 
L 224.044138 209.652998 
L 225.235862 210.29054 
L 226.030345 211.276799 
L 226.427586 212.171973 
L 227.222069 215.109994 
L 228.016552 220.792362 
L 228.811034 230.913916 
L 229.605517 245.795005 
L 231.988966 300.958451 
L 232.386207 305.053489 
L 232.783448 307.584 
L 233.18069 305.69985 
L 233.577931 301.827425 
L 233.975172 296.117824 
L 234.769655 277.601364 
L 236.358621 238.410401 
L 237.153103 224.989285 
L 237.550345 219.921173 
L 238.344828 213.540926 
L 238.742069 211.472292 
L 239.536552 209.311162 
L 239.933793 208.671957 
L 240.728276 208.16975 
L 241.125517 208.01774 
L 242.317241 207.865656 
L 242.714483 207.777008 
L 243.508966 207.759197 
L 243.906207 207.677296 
L 245.097931 207.788766 
L 246.289655 207.959028 
L 247.878621 208.561314 
L 248.673103 209.261077 
L 249.070345 209.682707 
L 250.262069 211.901492 
L 253.042759 219.790187 
L 253.837241 220.795568 
L 254.631724 220.123276 
L 255.028966 219.412635 
L 255.823448 217.253777 
L 257.412414 212.382732 
L 258.206897 210.397095 
L 259.001379 209.019506 
L 259.795862 208.224124 
L 260.590345 207.685038 
L 260.987586 207.687138 
L 261.384828 207.521641 
L 267.343448 207.369927 
L 268.535172 207.436862 
L 269.329655 207.348566 
L 271.713103 207.368767 
L 272.904828 207.334486 
L 274.096552 207.318793 
L 280.055172 207.199058 
L 281.644138 207.192845 
L 282.835862 207.090453 
L 283.233103 207.198589 
L 284.027586 207.060972 
L 285.21931 207.075173 
L 287.205517 206.967267 
L 288 207.019971 
L 288.397241 206.948234 
L 289.191724 206.96626 
L 291.972414 206.79767 
L 292.369655 206.833963 
L 292.766897 206.744592 
L 293.164138 206.801317 
L 293.958621 206.706921 
L 302.30069 206.277293 
L 304.684138 205.936062 
L 305.081379 205.682391 
L 305.478621 205.638752 
L 305.875862 205.312217 
L 306.273103 205.177046 
L 306.670345 204.81268 
L 307.067586 204.260389 
L 307.862069 202.485991 
L 308.25931 200.996911 
L 309.053793 196.607103 
L 309.848276 189.268454 
L 310.642759 179.427919 
L 311.437241 166.30191 
L 312.628966 144.907015 
L 313.423448 133.679544 
L 313.82069 129.487454 
L 314.217931 128.668726 
L 314.615172 128.410072 
L 315.012414 130.056284 
L 315.409655 133.178081 
L 316.204138 143.884111 
L 318.190345 179.256634 
L 318.984828 190.07941 
L 319.77931 197.607605 
L 320.573793 202.273632 
L 321.368276 204.87762 
L 321.765517 205.710093 
L 322.56 206.564242 
L 323.354483 206.944536 
L 324.148966 207.114634 
L 325.34069 207.192713 
L 328.121379 207.230442 
L 333.682759 207.14844 
L 334.08 207.043435 
L 334.874483 207.112331 
L 336.463448 207.015121 
L 337.257931 206.923231 
L 338.846897 206.540696 
L 339.244138 206.361056 
L 340.435862 205.452418 
L 342.024828 203.065675 
L 342.422069 202.358441 
L 343.613793 199.437582 
L 344.011034 198.843138 
L 344.408276 197.861322 
L 345.202759 197.108767 
L 345.6 196.880971 
L 345.997241 197.06114 
L 346.394483 197.031101 
L 347.188966 198.099514 
L 348.777931 201.384647 
L 349.969655 204.117105 
L 350.764138 205.205879 
L 351.558621 206.145199 
L 352.750345 206.971491 
L 353.942069 207.278565 
L 355.133793 207.452209 
L 357.12 207.49897 
L 359.90069 207.491484 
L 370.626207 207.501229 
L 377.37931 207.443735 
L 378.173793 207.457538 
L 380.954483 207.484774 
L 385.721379 207.595483 
L 388.104828 207.517643 
L 389.296552 207.543715 
L 389.693793 207.484583 
L 390.488276 207.564639 
L 391.282759 207.502504 
L 392.077241 207.528236 
L 393.666207 207.520392 
L 396.049655 207.515956 
L 407.966897 207.502661 
L 414.72 207.490547 
L 414.72 207.490547 
" style="fill:none;stroke:#2ca02c;stroke-linecap:square;stroke-width:1.5;"/>
   </g>
   <g id="line2d_21">
    <path clip-path="url(#p7d1fdb3c48)" d="M 314.936938 307.584 
L 314.936938 41.472 
" style="fill:none;stroke:#1f77b4;stroke-dasharray:0.5,0.825;stroke-dashoffset:0;stroke-width:0.5;"/>
   </g>
   <g id="line2d_22">
    <path clip-path="url(#p7d1fdb3c48)" d="M 346.183945 307.584 
L 346.183945 41.472 
" style="fill:none;stroke:#1f77b4;stroke-dasharray:0.5,0.825;stroke-dashoffset:0;stroke-width:0.5;"/>
   </g>
   <g id="line2d_23">
    <path clip-path="url(#p7d1fdb3c48)" d="M 86.983945 307.584 
L 86.983945 41.472 
" style="fill:none;stroke:#ff7f0e;stroke-dasharray:0.5,0.825;stroke-dashoffset:0;stroke-width:0.5;"/>
   </g>
   <g id="line2d_24">
    <path clip-path="url(#p7d1fdb3c48)" d="M 90.924579 307.584 
L 90.924579 41.472 
" style="fill:none;stroke:#ff7f0e;stroke-dasharray:0.5,0.825;stroke-dashoffset:0;stroke-width:0.5;"/>
   </g>
   <g id="line2d_25">
    <path clip-path="url(#p7d1fdb3c48)" d="M 232.970152 307.584 
L 232.970152 41.472 
" style="fill:none;stroke:#2ca02c;stroke-dasharray:0.5,0.825;stroke-dashoffset:0;stroke-width:0.5;"/>
   </g>
   <g id="line2d_26">
    <path clip-path="url(#p7d1fdb3c48)" d="M 254.103393 307.584 
L 254.103393 41.472 
" style="fill:none;stroke:#2ca02c;stroke-dasharray:0.5,0.825;stroke-dashoffset:0;stroke-width:0.5;"/>
   </g>
   <g id="patch_3">
    <path d="M 57.6 307.584 
L 57.6 41.472 
" style="fill:none;stroke:#000000;stroke-linecap:square;stroke-linejoin:miter;stroke-width:0.8;"/>
   </g>
   <g id="patch_4">
    <path d="M 414.72 307.584 
L 414.72 41.472 
" style="fill:none;stroke:#000000;stroke-linecap:square;stroke-linejoin:miter;stroke-width:0.8;"/>
   </g>
   <g id="patch_5">
    <path d="M 57.6 307.584 
L 414.72 307.584 
" style="fill:none;stroke:#000000;stroke-linecap:square;stroke-linejoin:miter;stroke-width:0.8;"/>
   </g>
   <g id="patch_6">
    <path d="M 57.6 41.472 
L 414.72 41.472 
" style="fill:none;stroke:#000000;stroke-linecap:square;stroke-linejoin:miter;stroke-width:0.8;"/>
   </g>
   <g id="text_20">
    <!-- Ni-K$_\alpha$ -->
    <defs>
     <path d="M 9.8125 72.90625 
L 23.09375 72.90625 
L 55.421875 11.921875 
L 55.421875 72.90625 
L 64.984375 72.90625 
L 64.984375 0 
L 51.703125 0 
L 19.390625 60.984375 
L 19.390625 0 
L 9.8125 0 
z
" id="DejaVuSans-78"/>
     <path d="M 4.890625 31.390625 
L 31.203125 31.390625 
L 31.203125 23.390625 
L 4.890625 23.390625 
z
" id="DejaVuSans-45"/>
     <path d="M 9.8125 72.90625 
L 19.671875 72.90625 
L 19.671875 42.09375 
L 52.390625 72.90625 
L 65.09375 72.90625 
L 28.90625 38.921875 
L 67.671875 0 
L 54.6875 0 
L 19.671875 35.109375 
L 19.671875 0 
L 9.8125 0 
z
" id="DejaVuSans-75"/>
     <path d="M 40.921875 25.4375 
L 40.96875 36.71875 
Q 41.015625 48.25 32.328125 48.296875 
Q 25.828125 48.34375 21.78125 42.921875 
Q 16.703125 36.234375 14.984375 27.296875 
Q 12.890625 16.546875 15.53125 11.421875 
Q 18.265625 6.203125 24.171875 6.203125 
Q 30.71875 6.203125 36.234375 16.609375 
z
M 33.84375 55.90625 
Q 49.078125 56.15625 48.875 40.375 
Q 48.875 40.375 56.5 54.6875 
L 64.5 54.6875 
L 48.734375 25.046875 
L 48.578125 14.359375 
Q 48.578125 11.96875 49.90625 9.96875 
Q 51.421875 7.625 52.984375 7.625 
L 57.328125 7.625 
L 55.859375 0 
L 50.4375 0 
Q 45.84375 0 42.53125 4.109375 
Q 40.96875 6.15625 40.921875 10.453125 
Q 37.75 5.21875 32.28125 0.78125 
Q 29.6875 -1.265625 22.703125 -1.21875 
Q 11.28125 -1.125 7.125 6.203125 
Q 2.875 13.8125 5.515625 27.296875 
Q 8.34375 41.796875 15.765625 48.390625 
Q 24.125 55.765625 33.84375 55.90625 
z
" id="DejaVuSans-Oblique-945"/>
    </defs>
    <g style="fill:#1f77b4;" transform="translate(320.895559 133.738372)scale(0.1 -0.1)">
     <use transform="translate(0 0.015625)" xlink:href="#DejaVuSans-78"/>
     <use transform="translate(74.804688 0.015625)" xlink:href="#DejaVuSans-105"/>
     <use transform="translate(102.587891 0.015625)" xlink:href="#DejaVuSans-45"/>
     <use transform="translate(138.671875 0.015625)" xlink:href="#DejaVuSans-75"/>
     <use transform="translate(205.205078 -16.390625)scale(0.7)" xlink:href="#DejaVuSans-Oblique-945"/>
    </g>
   </g>
   <g id="text_21">
    <!-- Ni-K$_\beta$ -->
    <defs>
     <path d="M 13.625 3.375 
L 8.9375 -20.796875 
L -0.09375 -20.796875 
L 14.5 54.34375 
Q 18.84375 76.609375 39.65625 76.609375 
Q 60.75 76.609375 57.171875 57.8125 
Q 54.734375 44.4375 45.21875 39.546875 
Q 58.015625 35.15625 55.515625 22.125 
Q 51.125 -1.078125 27.484375 -1.03125 
Q 17.140625 -0.984375 13.625 3.375 
z
M 15.921875 15.09375 
Q 19.671875 6.59375 29.296875 6.640625 
Q 43.359375 6.640625 46.34375 21.96875 
Q 49.03125 35.75 26.171875 34.671875 
L 27.78125 42.96875 
Q 45.453125 42.671875 48.53125 58.59375 
Q 50.640625 69.34375 39.203125 69.28125 
Q 26.421875 69.28125 23.484375 54.046875 
z
" id="DejaVuSans-Oblique-946"/>
    </defs>
    <g style="fill:#1f77b4;" transform="translate(352.142566 189.098195)scale(0.1 -0.1)">
     <use transform="translate(0 0.015625)" xlink:href="#DejaVuSans-78"/>
     <use transform="translate(74.804688 0.015625)" xlink:href="#DejaVuSans-105"/>
     <use transform="translate(102.587891 0.015625)" xlink:href="#DejaVuSans-45"/>
     <use transform="translate(138.671875 0.015625)" xlink:href="#DejaVuSans-75"/>
     <use transform="translate(205.205078 -16.390625)scale(0.7)" xlink:href="#DejaVuSans-Oblique-946"/>
    </g>
   </g>
   <g id="text_22">
    <!-- Si-K$_\alpha$ -->
    <defs>
     <path d="M 53.515625 70.515625 
L 53.515625 60.890625 
Q 47.90625 63.578125 42.921875 64.890625 
Q 37.9375 66.21875 33.296875 66.21875 
Q 25.25 66.21875 20.875 63.09375 
Q 16.5 59.96875 16.5 54.203125 
Q 16.5 49.359375 19.40625 46.890625 
Q 22.3125 44.4375 30.421875 42.921875 
L 36.375 41.703125 
Q 47.40625 39.59375 52.65625 34.296875 
Q 57.90625 29 57.90625 20.125 
Q 57.90625 9.515625 50.796875 4.046875 
Q 43.703125 -1.421875 29.984375 -1.421875 
Q 24.8125 -1.421875 18.96875 -0.25 
Q 13.140625 0.921875 6.890625 3.21875 
L 6.890625 13.375 
Q 12.890625 10.015625 18.65625 8.296875 
Q 24.421875 6.59375 29.984375 6.59375 
Q 38.421875 6.59375 43.015625 9.90625 
Q 47.609375 13.234375 47.609375 19.390625 
Q 47.609375 24.75 44.3125 27.78125 
Q 41.015625 30.8125 33.5 32.328125 
L 27.484375 33.5 
Q 16.453125 35.6875 11.515625 40.375 
Q 6.59375 45.0625 6.59375 53.421875 
Q 6.59375 63.09375 13.40625 68.65625 
Q 20.21875 74.21875 32.171875 74.21875 
Q 37.3125 74.21875 42.625 73.28125 
Q 47.953125 72.359375 53.515625 70.515625 
z
" id="DejaVuSans-83"/>
    </defs>
    <g style="fill:#ff7f0e;" transform="translate(92.942566 133.738372)scale(0.1 -0.1)">
     <use transform="translate(0 0.015625)" xlink:href="#DejaVuSans-83"/>
     <use transform="translate(63.476562 0.015625)" xlink:href="#DejaVuSans-105"/>
     <use transform="translate(91.259766 0.015625)" xlink:href="#DejaVuSans-45"/>
     <use transform="translate(127.34375 0.015625)" xlink:href="#DejaVuSans-75"/>
     <use transform="translate(193.876953 -16.390625)scale(0.7)" xlink:href="#DejaVuSans-Oblique-945"/>
    </g>
   </g>
   <g id="text_23">
    <!-- Si-K$_\beta$ -->
    <g style="fill:#ff7f0e;" transform="translate(96.8832 189.098195)scale(0.1 -0.1)">
     <use transform="translate(0 0.015625)" xlink:href="#DejaVuSans-83"/>
     <use transform="translate(63.476562 0.015625)" xlink:href="#DejaVuSans-105"/>
     <use transform="translate(91.259766 0.015625)" xlink:href="#DejaVuSans-45"/>
     <use transform="translate(127.34375 0.015625)" xlink:href="#DejaVuSans-75"/>
     <use transform="translate(193.876953 -16.390625)scale(0.7)" xlink:href="#DejaVuSans-Oblique-946"/>
    </g>
   </g>
   <g id="text_24">
    <!-- Cr-K$_\alpha$ -->
    <defs>
     <path d="M 64.40625 67.28125 
L 64.40625 56.890625 
Q 59.421875 61.53125 53.78125 63.8125 
Q 48.140625 66.109375 41.796875 66.109375 
Q 29.296875 66.109375 22.65625 58.46875 
Q 16.015625 50.828125 16.015625 36.375 
Q 16.015625 21.96875 22.65625 14.328125 
Q 29.296875 6.6875 41.796875 6.6875 
Q 48.140625 6.6875 53.78125 8.984375 
Q 59.421875 11.28125 64.40625 15.921875 
L 64.40625 5.609375 
Q 59.234375 2.09375 53.4375 0.328125 
Q 47.65625 -1.421875 41.21875 -1.421875 
Q 24.65625 -1.421875 15.125 8.703125 
Q 5.609375 18.84375 5.609375 36.375 
Q 5.609375 53.953125 15.125 64.078125 
Q 24.65625 74.21875 41.21875 74.21875 
Q 47.75 74.21875 53.53125 72.484375 
Q 59.328125 70.75 64.40625 67.28125 
z
" id="DejaVuSans-67"/>
    </defs>
    <g style="fill:#2ca02c;" transform="translate(238.928772 133.738372)scale(0.1 -0.1)">
     <use transform="translate(0 0.78125)" xlink:href="#DejaVuSans-67"/>
     <use transform="translate(69.824219 0.78125)" xlink:href="#DejaVuSans-114"/>
     <use transform="translate(110.9375 0.78125)" xlink:href="#DejaVuSans-45"/>
     <use transform="translate(147.021484 0.78125)" xlink:href="#DejaVuSans-75"/>
     <use transform="translate(213.554688 -15.625)scale(0.7)" xlink:href="#DejaVuSans-Oblique-945"/>
    </g>
   </g>
   <g id="text_25">
    <!-- Cr-K$_\beta$ -->
    <g style="fill:#2ca02c;" transform="translate(260.062014 189.098195)scale(0.1 -0.1)">
     <use transform="translate(0 0.78125)" xlink:href="#DejaVuSans-67"/>
     <use transform="translate(69.824219 0.78125)" xlink:href="#DejaVuSans-114"/>
     <use transform="translate(110.9375 0.78125)" xlink:href="#DejaVuSans-45"/>
     <use transform="translate(147.021484 0.78125)" xlink:href="#DejaVuSans-75"/>
     <use transform="translate(213.554688 -15.625)scale(0.7)" xlink:href="#DejaVuSans-Oblique-946"/>
    </g>
   </g>
   <g id="legend_1">
    <g id="patch_7">
     <path d="M 295.52625 93.506375 
L 407.72 93.506375 
Q 409.72 93.506375 409.72 91.506375 
L 409.72 48.472 
Q 409.72 46.472 407.72 46.472 
L 295.52625 46.472 
Q 293.52625 46.472 293.52625 48.472 
L 293.52625 91.506375 
Q 293.52625 93.506375 295.52625 93.506375 
z
" style="fill:#ffffff;opacity:0.8;stroke:#cccccc;stroke-linejoin:miter;"/>
    </g>
    <g id="line2d_27">
     <path d="M 297.52625 54.570438 
L 317.52625 54.570438 
" style="fill:none;stroke:#2ca02c;stroke-linecap:square;stroke-width:1.5;"/>
    </g>
    <g id="line2d_28"/>
    <g id="text_26">
     <!-- Factor 2: Ni-rich -->
     <defs>
      <path d="M 9.8125 72.90625 
L 51.703125 72.90625 
L 51.703125 64.59375 
L 19.671875 64.59375 
L 19.671875 43.109375 
L 48.578125 43.109375 
L 48.578125 34.8125 
L 19.671875 34.8125 
L 19.671875 0 
L 9.8125 0 
z
" id="DejaVuSans-70"/>
      <path d="M 34.28125 27.484375 
Q 23.390625 27.484375 19.1875 25 
Q 14.984375 22.515625 14.984375 16.5 
Q 14.984375 11.71875 18.140625 8.90625 
Q 21.296875 6.109375 26.703125 6.109375 
Q 34.1875 6.109375 38.703125 11.40625 
Q 43.21875 16.703125 43.21875 25.484375 
L 43.21875 27.484375 
z
M 52.203125 31.203125 
L 52.203125 0 
L 43.21875 0 
L 43.21875 8.296875 
Q 40.140625 3.328125 35.546875 0.953125 
Q 30.953125 -1.421875 24.3125 -1.421875 
Q 15.921875 -1.421875 10.953125 3.296875 
Q 6 8.015625 6 15.921875 
Q 6 25.140625 12.171875 29.828125 
Q 18.359375 34.515625 30.609375 34.515625 
L 43.21875 34.515625 
L 43.21875 35.40625 
Q 43.21875 41.609375 39.140625 45 
Q 35.0625 48.390625 27.6875 48.390625 
Q 23 48.390625 18.546875 47.265625 
Q 14.109375 46.140625 10.015625 43.890625 
L 10.015625 52.203125 
Q 14.9375 54.109375 19.578125 55.046875 
Q 24.21875 56 28.609375 56 
Q 40.484375 56 46.34375 49.84375 
Q 52.203125 43.703125 52.203125 31.203125 
z
" id="DejaVuSans-97"/>
      <path d="M 48.78125 52.59375 
L 48.78125 44.1875 
Q 44.96875 46.296875 41.140625 47.34375 
Q 37.3125 48.390625 33.40625 48.390625 
Q 24.65625 48.390625 19.8125 42.84375 
Q 14.984375 37.3125 14.984375 27.296875 
Q 14.984375 17.28125 19.8125 11.734375 
Q 24.65625 6.203125 33.40625 6.203125 
Q 37.3125 6.203125 41.140625 7.25 
Q 44.96875 8.296875 48.78125 10.40625 
L 48.78125 2.09375 
Q 45.015625 0.34375 40.984375 -0.53125 
Q 36.96875 -1.421875 32.421875 -1.421875 
Q 20.0625 -1.421875 12.78125 6.34375 
Q 5.515625 14.109375 5.515625 27.296875 
Q 5.515625 40.671875 12.859375 48.328125 
Q 20.21875 56 33.015625 56 
Q 37.15625 56 41.109375 55.140625 
Q 45.0625 54.296875 48.78125 52.59375 
z
" id="DejaVuSans-99"/>
      <path d="M 30.609375 48.390625 
Q 23.390625 48.390625 19.1875 42.75 
Q 14.984375 37.109375 14.984375 27.296875 
Q 14.984375 17.484375 19.15625 11.84375 
Q 23.34375 6.203125 30.609375 6.203125 
Q 37.796875 6.203125 41.984375 11.859375 
Q 46.1875 17.53125 46.1875 27.296875 
Q 46.1875 37.015625 41.984375 42.703125 
Q 37.796875 48.390625 30.609375 48.390625 
z
M 30.609375 56 
Q 42.328125 56 49.015625 48.375 
Q 55.71875 40.765625 55.71875 27.296875 
Q 55.71875 13.875 49.015625 6.21875 
Q 42.328125 -1.421875 30.609375 -1.421875 
Q 18.84375 -1.421875 12.171875 6.21875 
Q 5.515625 13.875 5.515625 27.296875 
Q 5.515625 40.765625 12.171875 48.375 
Q 18.84375 56 30.609375 56 
z
" id="DejaVuSans-111"/>
      <path d="M 11.71875 12.40625 
L 22.015625 12.40625 
L 22.015625 0 
L 11.71875 0 
z
M 11.71875 51.703125 
L 22.015625 51.703125 
L 22.015625 39.3125 
L 11.71875 39.3125 
z
" id="DejaVuSans-58"/>
      <path d="M 54.890625 33.015625 
L 54.890625 0 
L 45.90625 0 
L 45.90625 32.71875 
Q 45.90625 40.484375 42.875 44.328125 
Q 39.84375 48.1875 33.796875 48.1875 
Q 26.515625 48.1875 22.3125 43.546875 
Q 18.109375 38.921875 18.109375 30.90625 
L 18.109375 0 
L 9.078125 0 
L 9.078125 75.984375 
L 18.109375 75.984375 
L 18.109375 46.1875 
Q 21.34375 51.125 25.703125 53.5625 
Q 30.078125 56 35.796875 56 
Q 45.21875 56 50.046875 50.171875 
Q 54.890625 44.34375 54.890625 33.015625 
z
" id="DejaVuSans-104"/>
     </defs>
     <g transform="translate(325.52625 58.070438)scale(0.1 -0.1)">
      <use xlink:href="#DejaVuSans-70"/>
      <use x="57.378906" xlink:href="#DejaVuSans-97"/>
      <use x="118.658203" xlink:href="#DejaVuSans-99"/>
      <use x="173.638672" xlink:href="#DejaVuSans-116"/>
      <use x="212.847656" xlink:href="#DejaVuSans-111"/>
      <use x="274.029297" xlink:href="#DejaVuSans-114"/>
      <use x="315.142578" xlink:href="#DejaVuSans-32"/>
      <use x="346.929688" xlink:href="#DejaVuSans-50"/>
      <use x="410.552734" xlink:href="#DejaVuSans-58"/>
      <use x="444.244141" xlink:href="#DejaVuSans-32"/>
      <use x="476.03125" xlink:href="#DejaVuSans-78"/>
      <use x="550.835938" xlink:href="#DejaVuSans-105"/>
      <use x="578.619141" xlink:href="#DejaVuSans-45"/>
      <use x="614.703125" xlink:href="#DejaVuSans-114"/>
      <use x="655.816406" xlink:href="#DejaVuSans-105"/>
      <use x="683.599609" xlink:href="#DejaVuSans-99"/>
      <use x="738.580078" xlink:href="#DejaVuSans-104"/>
     </g>
    </g>
    <g id="line2d_29">
     <path d="M 297.52625 69.248563 
L 317.52625 69.248563 
" style="fill:none;stroke:#ff7f0e;stroke-linecap:square;stroke-width:1.5;"/>
    </g>
    <g id="line2d_30"/>
    <g id="text_27">
     <!-- Factor 1: Si-rich -->
     <g transform="translate(325.52625 72.748563)scale(0.1 -0.1)">
      <use xlink:href="#DejaVuSans-70"/>
      <use x="57.378906" xlink:href="#DejaVuSans-97"/>
      <use x="118.658203" xlink:href="#DejaVuSans-99"/>
      <use x="173.638672" xlink:href="#DejaVuSans-116"/>
      <use x="212.847656" xlink:href="#DejaVuSans-111"/>
      <use x="274.029297" xlink:href="#DejaVuSans-114"/>
      <use x="315.142578" xlink:href="#DejaVuSans-32"/>
      <use x="346.929688" xlink:href="#DejaVuSans-49"/>
      <use x="410.552734" xlink:href="#DejaVuSans-58"/>
      <use x="444.244141" xlink:href="#DejaVuSans-32"/>
      <use x="476.03125" xlink:href="#DejaVuSans-83"/>
      <use x="539.507812" xlink:href="#DejaVuSans-105"/>
      <use x="567.291016" xlink:href="#DejaVuSans-45"/>
      <use x="603.375" xlink:href="#DejaVuSans-114"/>
      <use x="644.488281" xlink:href="#DejaVuSans-105"/>
      <use x="672.271484" xlink:href="#DejaVuSans-99"/>
      <use x="727.251953" xlink:href="#DejaVuSans-104"/>
     </g>
    </g>
    <g id="line2d_31">
     <path d="M 297.52625 83.926688 
L 317.52625 83.926688 
" style="fill:none;stroke:#1f77b4;stroke-linecap:square;stroke-width:1.5;"/>
    </g>
    <g id="line2d_32"/>
    <g id="text_28">
     <!-- Factor 0: Mean -->
     <defs>
      <path d="M 9.8125 72.90625 
L 24.515625 72.90625 
L 43.109375 23.296875 
L 61.8125 72.90625 
L 76.515625 72.90625 
L 76.515625 0 
L 66.890625 0 
L 66.890625 64.015625 
L 48.09375 14.015625 
L 38.1875 14.015625 
L 19.390625 64.015625 
L 19.390625 0 
L 9.8125 0 
z
" id="DejaVuSans-77"/>
     </defs>
     <g transform="translate(325.52625 87.426688)scale(0.1 -0.1)">
      <use xlink:href="#DejaVuSans-70"/>
      <use x="57.378906" xlink:href="#DejaVuSans-97"/>
      <use x="118.658203" xlink:href="#DejaVuSans-99"/>
      <use x="173.638672" xlink:href="#DejaVuSans-116"/>
      <use x="212.847656" xlink:href="#DejaVuSans-111"/>
      <use x="274.029297" xlink:href="#DejaVuSans-114"/>
      <use x="315.142578" xlink:href="#DejaVuSans-32"/>
      <use x="346.929688" xlink:href="#DejaVuSans-48"/>
      <use x="410.552734" xlink:href="#DejaVuSans-58"/>
      <use x="444.244141" xlink:href="#DejaVuSans-32"/>
      <use x="476.03125" xlink:href="#DejaVuSans-77"/>
      <use x="562.310547" xlink:href="#DejaVuSans-101"/>
      <use x="623.833984" xlink:href="#DejaVuSans-97"/>
      <use x="685.113281" xlink:href="#DejaVuSans-110"/>
     </g>
    </g>
   </g>
  </g>
 </g>
 <defs>
  <clipPath id="p7d1fdb3c48">
   <rect height="266.112" width="357.12" x="57.6" y="41.472"/>
  </clipPath>
 </defs>
</svg>
