<?xml version="1.0" encoding="utf-8" standalone="no"?>
<!DOCTYPE svg PUBLIC "-//W3C//DTD SVG 1.1//EN"
  "http://www.w3.org/Graphics/SVG/1.1/DTD/svg11.dtd">
<!-- Created with matplotlib (https://matplotlib.org/) -->
<svg height="144pt" version="1.1" viewBox="0 0 720 144" width="720pt" xmlns="http://www.w3.org/2000/svg" xmlns:xlink="http://www.w3.org/1999/xlink">
 <defs>
  <style type="text/css">
*{stroke-linecap:butt;stroke-linejoin:round;}
  </style>
 </defs>
 <g id="figure_1">
  <g id="patch_1">
   <path d="M 0 144 
L 720 144 
L 720 0 
L 0 0 
z
" style="fill:none;opacity:0;"/>
  </g>
  <g id="axes_1">
   <g id="patch_2">
    <path clip-path="url(#p6080645479)" d="M 104.22365 50.539912 
Q 109.171057 42.699504 115.509533 38.981372 
Q 121.84801 35.26324 130.052149 35.26324 
Q 141.105508 35.26324 146.531923 43.002612 
Q 151.95984 50.721778 150.89967 64.988088 
L 147.726669 107.685984 
L 136.046885 107.685984 
L 139.191355 65.372026 
Q 139.946688 55.207785 136.694495 50.297426 
Q 133.464011 45.366859 126.088369 45.366859 
Q 117.055733 45.366859 111.355859 51.368409 
Q 105.677694 57.349752 104.907344 67.716065 
L 101.937066 107.685984 
L 90.257282 107.685984 
L 93.401752 65.372026 
Q 94.16159 55.147163 90.928103 50.257011 
Q 87.694615 45.366859 80.177523 45.366859 
Q 71.26613 45.366859 65.564754 51.388616 
Q 59.883586 57.410374 59.11774 67.716065 
L 56.147462 107.685984 
L 44.467678 107.685984 
L 49.723479 36.960648 
L 61.403263 36.960648 
L 60.586361 47.953386 
Q 65.050721 41.446655 70.837465 38.354947 
Q 76.624209 35.26324 84.262546 35.26324 
Q 91.981711 35.26324 97.085722 39.183444 
Q 102.191235 43.083441 104.22365 50.539912 
z
M 205.682874 72.141451 
Q 191.598428 72.141451 185.923918 75.354402 
Q 180.249407 78.567353 179.671269 86.34714 
Q 179.211762 92.530555 183.023326 96.167858 
Q 186.836391 99.784953 193.828096 99.784953 
Q 203.507363 99.784953 209.856317 92.934699 
Q 216.205271 86.084445 217.049202 74.727977 
L 217.241414 72.141451 
z
M 229.217971 67.332128 
L 226.219162 107.685984 
L 214.599999 107.685984 
L 215.397379 96.95594 
Q 210.939026 103.381842 204.769846 106.453342 
Q 198.600666 109.524842 190.01259 109.524842 
Q 179.161302 109.524842 173.188901 103.422256 
Q 167.236707 97.31967 167.996545 87.094807 
Q 168.882523 75.172536 177.31488 69.110365 
Q 185.767443 63.048193 201.609919 63.048193 
L 217.91716 63.048193 
L 218.002755 61.896381 
Q 218.598913 53.874107 213.650683 49.489136 
Q 208.702453 45.104165 199.164637 45.104165 
Q 193.102465 45.104165 187.235283 46.559086 
Q 181.388307 48.014008 175.877772 50.92385 
L 176.676654 40.173599 
Q 183.225136 37.708316 189.316786 36.495881 
Q 195.409937 35.26324 201.088171 35.26324 
Q 216.445672 35.26324 223.431734 43.224892 
Q 230.419297 51.166337 229.217971 67.332128 
z
M 268.388373 16.874653 
L 266.895726 36.960648 
L 290.821096 36.960648 
L 290.149856 45.993284 
L 266.224485 45.993284 
L 263.371336 84.387037 
Q 262.728627 93.035736 264.909672 95.501019 
Q 267.090716 97.966302 274.365322 97.966302 
L 286.287593 97.966302 
L 285.565296 107.685984 
L 273.643025 107.685984 
Q 260.185004 107.685984 255.444984 102.674588 
Q 250.706465 97.642986 251.691552 84.387037 
L 254.544701 45.993284 
L 246.017246 45.993284 
L 246.688487 36.960648 
L 255.215942 36.960648 
L 256.708589 16.874653 
z
M 312.873141 97.077183 
L 310.086065 134.581818 
L 298.406281 134.581818 
L 305.660787 36.960648 
L 317.340571 36.960648 
L 316.543191 47.690692 
Q 320.689426 41.386033 326.493374 38.33474 
Q 332.319031 35.26324 340.078611 35.26324 
Q 352.970829 35.26324 360.253472 45.488103 
Q 367.556321 55.712966 366.317454 72.383938 
Q 365.078587 89.05491 356.254558 99.29998 
Q 347.452239 109.524842 334.56002 109.524842 
Q 326.800441 109.524842 321.431288 106.453342 
Q 316.082342 103.381842 312.873141 97.077183 
z
M 354.253733 72.383938 
Q 355.205783 59.572548 350.473792 52.277735 
Q 345.741801 44.982922 336.5273 44.982922 
Q 327.292592 44.982922 321.476405 52.277735 
Q 315.660217 59.572548 314.708166 72.383938 
Q 313.756116 85.195327 318.488107 92.49014 
Q 323.220098 99.784953 332.454806 99.784953 
Q 341.669307 99.784953 347.485494 92.49014 
Q 353.301682 85.195327 354.253733 72.383938 
z
M 390.244013 9.418182 
L 401.863175 9.418182 
L 394.560616 107.685984 
L 382.941454 107.685984 
z
M 450.924099 45.104165 
Q 441.588354 45.104165 435.610509 52.398978 
Q 429.632663 59.693792 428.689622 72.383938 
Q 427.746582 85.074083 432.599816 92.368897 
Q 437.473258 99.66371 446.869624 99.66371 
Q 456.164954 99.66371 462.124094 92.348689 
Q 468.104943 85.013462 469.043478 72.383938 
Q 469.977509 59.815035 465.088365 52.4596 
Q 460.219428 45.104165 450.924099 45.104165 
z
M 451.655406 35.26324 
Q 466.810835 35.26324 474.726724 45.124372 
Q 482.664322 54.965298 481.369894 72.383938 
Q 480.07997 89.741956 470.675253 99.643503 
Q 461.292244 109.524842 446.136815 109.524842 
Q 430.920764 109.524842 423.026584 99.643503 
Q 415.154112 89.741956 416.444036 72.383938 
Q 417.738464 54.965298 427.078055 45.124372 
Q 436.439355 35.26324 451.655406 35.26324 
z
M 516.242786 16.874653 
L 514.750139 36.960648 
L 538.675509 36.960648 
L 538.004269 45.993284 
L 514.078898 45.993284 
L 511.225749 84.387037 
Q 510.58304 93.035736 512.764085 95.501019 
Q 514.945129 97.966302 522.219735 97.966302 
L 534.142006 97.966302 
L 533.419709 107.685984 
L 521.497438 107.685984 
Q 508.039417 107.685984 503.299397 102.674588 
Q 498.560878 97.642986 499.545965 84.387037 
L 502.399114 45.993284 
L 493.871659 45.993284 
L 494.5429 36.960648 
L 503.070355 36.960648 
L 504.563002 16.874653 
z
M 556.006519 9.418182 
L 567.625681 9.418182 
L 560.323122 107.685984 
L 548.703959 107.685984 
z
M 589.890756 36.960648 
L 601.509918 36.960648 
L 596.254118 107.685984 
L 584.634956 107.685984 
z
M 591.937515 9.418182 
L 603.556677 9.418182 
L 602.461969 24.149259 
L 590.842807 24.149259 
z
M 673.970139 72.383938 
Q 674.922189 59.572548 670.190198 52.277735 
Q 665.458207 44.982922 656.243706 44.982922 
Q 647.008998 44.982922 641.19281 52.277735 
Q 635.376623 59.572548 634.424572 72.383938 
Q 633.472522 85.195327 638.204513 92.49014 
Q 642.936504 99.784953 652.171212 99.784953 
Q 661.385713 99.784953 667.2019 92.49014 
Q 673.018088 85.195327 673.970139 72.383938 
z
M 636.259597 47.690692 
Q 640.405832 41.386033 646.20978 38.33474 
Q 652.035437 35.26324 659.795017 35.26324 
Q 672.687235 35.26324 679.969878 45.488103 
Q 687.272727 55.712966 686.03386 72.383938 
Q 684.794993 89.05491 675.970964 99.29998 
Q 667.168645 109.524842 654.276426 109.524842 
Q 646.516847 109.524842 641.147693 106.453342 
Q 635.798747 103.381842 632.589547 97.077183 
L 631.801177 107.685984 
L 620.121393 107.685984 
L 627.423952 9.418182 
L 639.103736 9.418182 
z
" style="fill:#11557c;"/>
   </g>
  </g>
  <g id="axes_2">
   <g id="patch_3">
    <path d="M 500.4 72.72 
C 500.4 65.628785 499.003185 58.606523 496.289495 52.055095 
C 493.575804 45.503666 489.598012 39.55048 484.583766 34.536234 
C 479.56952 29.521988 473.616334 25.544196 467.064905 22.830505 
C 460.513477 20.116815 453.491215 18.72 446.4 18.72 
C 439.308785 18.72 432.286523 20.116815 425.735095 22.830505 
C 419.183666 25.544196 413.23048 29.521988 408.216234 34.536234 
C 403.201988 39.55048 399.224196 45.503666 396.510505 52.055095 
C 393.796815 58.606523 392.4 65.628785 392.4 72.72 
C 392.4 79.811215 393.796815 86.833477 396.510505 93.384905 
C 399.224196 99.936334 403.201988 105.88952 408.216234 110.903766 
C 413.23048 115.918012 419.183666 119.895804 425.735095 122.609495 
C 432.286523 125.323185 439.308785 126.72 446.4 126.72 
C 453.491215 126.72 460.513477 125.323185 467.064905 122.609495 
C 473.616334 119.895804 479.56952 115.918012 484.583766 110.903766 
C 489.598012 105.88952 493.575804 99.936334 496.289495 93.384905 
C 499.003185 86.833477 500.4 79.811215 500.4 72.72 
M 446.4 72.72 
C 446.4 72.72 446.4 72.72 446.4 72.72 
C 446.4 72.72 446.4 72.72 446.4 72.72 
C 446.4 72.72 446.4 72.72 446.4 72.72 
C 446.4 72.72 446.4 72.72 446.4 72.72 
C 446.4 72.72 446.4 72.72 446.4 72.72 
C 446.4 72.72 446.4 72.72 446.4 72.72 
C 446.4 72.72 446.4 72.72 446.4 72.72 
C 446.4 72.72 446.4 72.72 446.4 72.72 
C 446.4 72.72 446.4 72.72 446.4 72.72 
C 446.4 72.72 446.4 72.72 446.4 72.72 
C 446.4 72.72 446.4 72.72 446.4 72.72 
C 446.4 72.72 446.4 72.72 446.4 72.72 
C 446.4 72.72 446.4 72.72 446.4 72.72 
C 446.4 72.72 446.4 72.72 446.4 72.72 
C 446.4 72.72 446.4 72.72 446.4 72.72 
C 446.4 72.72 446.4 72.72 446.4 72.72 
M 500.4 72.72 
z
" style="fill:#ffffff;"/>
   </g>
   <g id="patch_4">
    <path d="M 446.4 72.72 
L 446.4 72.72 
L 446.4 72.72 
L 446.4 72.72 
L 446.4 72.72 
L 446.4 72.72 
L 446.4 72.72 
L 446.4 72.72 
L 446.4 72.72 
L 446.4 72.72 
L 446.4 72.72 
L 446.4 72.72 
L 446.4 72.72 
L 446.4 72.72 
L 446.4 72.72 
L 446.4 72.72 
L 446.4 72.72 
L 446.4 72.72 
L 446.4 72.72 
L 446.4 72.72 
L 446.4 72.72 
L 446.4 72.72 
L 446.4 72.72 
L 446.4 72.72 
L 446.4 72.72 
L 446.4 72.72 
L 446.4 72.72 
L 446.4 72.72 
L 446.4 72.72 
L 446.4 72.72 
L 446.4 72.72 
L 446.4 72.72 
L 446.4 72.72 
L 446.4 72.72 
L 446.4 72.72 
L 446.4 72.72 
L 446.4 72.72 
L 446.4 72.72 
L 446.4 72.72 
L 446.4 72.72 
L 446.4 72.72 
L 446.4 72.72 
L 446.4 72.72 
L 446.4 72.72 
L 446.4 72.72 
L 446.4 72.72 
L 446.4 72.72 
L 446.4 72.72 
L 446.4 72.72 
L 446.4 72.72 
L 446.4 72.72 
L 446.4 72.72 
L 446.4 72.72 
L 446.4 72.72 
L 446.4 72.72 
L 446.4 72.72 
L 446.4 72.72 
L 446.4 72.72 
L 446.4 72.72 
L 446.4 72.72 
L 446.4 72.72 
L 446.4 72.72 
L 446.4 72.72 
L 446.4 72.72 
L 446.4 72.72 
L 446.4 72.72 
L 446.4 72.72 
L 446.4 72.72 
L 446.4 72.72 
L 446.4 72.72 
L 446.4 72.72 
L 446.4 72.72 
L 446.4 72.72 
L 446.4 72.72 
L 446.4 72.72 
L 446.4 72.72 
L 446.4 72.72 
L 446.4 72.72 
L 446.4 72.72 
L 446.4 72.72 
L 446.4 72.72 
L 446.4 72.72 
L 446.4 72.72 
L 446.4 72.72 
L 446.4 72.72 
L 446.4 72.72 
L 446.4 72.72 
L 446.4 72.72 
L 446.4 72.72 
L 446.4 72.72 
L 446.4 72.72 
L 446.4 72.72 
L 446.4 72.72 
L 446.4 72.72 
L 446.4 72.72 
L 446.4 72.72 
L 446.4 72.72 
L 446.4 72.72 
L 446.4 72.72 
L 446.4 72.72 
L 446.4 72.72 
L 446.9748 72.72 
L 447.5496 72.72 
L 448.1244 72.72 
L 448.6992 72.72 
L 449.274 72.72 
L 449.8488 72.72 
L 450.4236 72.72 
L 450.9984 72.72 
L 451.5732 72.72 
L 452.148 72.72 
L 452.7228 72.72 
L 453.2976 72.72 
L 453.8724 72.72 
L 454.4472 72.72 
L 455.022 72.72 
L 455.5968 72.72 
L 456.1716 72.72 
L 456.7464 72.72 
L 457.3212 72.72 
L 457.896 72.72 
L 458.4708 72.72 
L 459.0456 72.72 
L 459.6204 72.72 
L 460.1952 72.72 
L 460.77 72.72 
L 461.3448 72.72 
L 461.9196 72.72 
L 462.4944 72.72 
L 463.0692 72.72 
L 463.644 72.72 
L 464.2188 72.72 
L 464.7936 72.72 
L 465.3684 72.72 
L 465.9432 72.72 
L 466.518 72.72 
L 467.0928 72.72 
L 467.6676 72.72 
L 468.2424 72.72 
L 468.8172 72.72 
L 469.392 72.72 
L 469.9668 72.72 
L 470.5416 72.72 
L 471.1164 72.72 
L 471.6912 72.72 
L 472.266 72.72 
L 472.8408 72.72 
L 473.4156 72.72 
L 473.9904 72.72 
L 474.5652 72.72 
L 475.14 72.72 
L 475.7148 72.72 
L 476.2896 72.72 
L 476.8644 72.72 
L 477.4392 72.72 
L 478.014 72.72 
L 478.5888 72.72 
L 479.1636 72.72 
L 479.7384 72.72 
L 480.3132 72.72 
L 480.888 72.72 
L 481.4628 72.72 
L 482.0376 72.72 
L 482.6124 72.72 
L 483.1872 72.72 
L 483.762 72.72 
L 484.3368 72.72 
L 484.9116 72.72 
L 485.4864 72.72 
L 486.0612 72.72 
L 486.636 72.72 
L 487.2108 72.72 
L 487.7856 72.72 
L 488.3604 72.72 
L 488.9352 72.72 
L 489.51 72.72 
L 490.0848 72.72 
L 490.6596 72.72 
L 491.2344 72.72 
L 491.8092 72.72 
L 492.384 72.72 
L 492.9588 72.72 
L 493.5336 72.72 
L 494.1084 72.72 
L 494.6832 72.72 
L 495.258 72.72 
L 495.8328 72.72 
L 496.4076 72.72 
L 496.9824 72.72 
L 497.5572 72.72 
L 498.132 72.72 
L 498.7068 72.72 
L 499.2816 72.72 
L 499.8564 72.72 
L 500.4312 72.72 
L 501.006 72.72 
L 501.5808 72.72 
L 502.1556 72.72 
L 502.7304 72.72 
L 503.3052 72.72 
L 503.88 72.72 
L 503.766576 76.329199 
L 503.426753 79.924154 
L 502.861871 83.490678 
L 502.07416 87.014695 
L 501.066729 90.482297 
L 499.843552 93.879799 
L 498.409459 97.193794 
L 496.770108 100.411201 
L 494.931969 103.519324 
L 492.902297 106.505896 
L 490.689101 109.359131 
L 488.301117 112.067768 
L 485.747768 114.621117 
L 483.039131 117.009101 
L 480.185896 119.222297 
L 477.199324 121.251969 
L 474.091201 123.090108 
L 470.873794 124.729459 
L 467.559799 126.163552 
L 464.162297 127.386729 
L 460.694695 128.39416 
L 457.170678 129.181871 
L 453.604154 129.746753 
L 450.009199 130.086576 
L 446.4 130.2 
L 442.790801 130.086576 
L 439.195846 129.746753 
L 435.629322 129.181871 
L 432.105305 128.39416 
L 428.637703 127.386729 
L 425.240201 126.163552 
L 421.926206 124.729459 
L 418.708799 123.090108 
L 415.600676 121.251969 
L 412.614104 119.222297 
L 409.760869 117.009101 
L 407.052232 114.621117 
L 404.498883 112.067768 
L 402.110899 109.359131 
L 399.897703 106.505896 
L 397.868031 103.519324 
L 396.029892 100.411201 
L 394.390541 97.193794 
L 392.956448 93.879799 
L 391.733271 90.482297 
L 390.72584 87.014695 
L 389.938129 83.490678 
L 389.373247 79.924154 
L 389.033424 76.329199 
L 388.92 72.72 
L 389.033424 69.110801 
L 389.373247 65.515846 
L 389.938129 61.949322 
L 390.72584 58.425305 
L 391.733271 54.957703 
L 392.956448 51.560201 
L 394.390541 48.246206 
L 396.029892 45.028799 
L 397.868031 41.920676 
L 399.897703 38.934104 
L 402.110899 36.080869 
L 404.498883 33.372232 
L 407.052232 30.818883 
L 409.760869 28.430899 
L 412.614104 26.217703 
L 415.600676 24.188031 
L 418.708799 22.349892 
L 421.926206 20.710541 
L 425.240201 19.276448 
L 428.637703 18.053271 
L 432.105305 17.04584 
L 435.629322 16.258129 
L 439.195846 15.693247 
L 442.790801 15.353424 
L 446.4 15.24 
L 450.009199 15.353424 
L 453.604154 15.693247 
L 457.170678 16.258129 
L 460.694695 17.04584 
L 464.162297 18.053271 
L 467.559799 19.276448 
L 470.873794 20.710541 
L 474.091201 22.349892 
L 477.199324 24.188031 
L 480.185896 26.217703 
L 483.039131 28.430899 
L 485.747768 30.818883 
L 488.301117 33.372232 
L 490.689101 36.080869 
L 492.902297 38.934104 
L 494.931969 41.920676 
L 496.770108 45.028799 
L 498.409459 48.246206 
L 499.843552 51.560201 
L 501.066729 54.957703 
L 502.07416 58.425305 
L 502.861871 61.949322 
L 503.426753 65.515846 
L 503.766576 69.110801 
L 503.88 72.72 
L 503.3052 72.72 
L 502.7304 72.72 
L 502.1556 72.72 
L 501.5808 72.72 
L 501.006 72.72 
L 500.4312 72.72 
L 499.8564 72.72 
L 499.2816 72.72 
L 498.7068 72.72 
L 498.132 72.72 
L 497.5572 72.72 
L 496.9824 72.72 
L 496.4076 72.72 
L 495.8328 72.72 
L 495.258 72.72 
L 494.6832 72.72 
L 494.1084 72.72 
L 493.5336 72.72 
L 492.9588 72.72 
L 492.384 72.72 
L 491.8092 72.72 
L 491.2344 72.72 
L 490.6596 72.72 
L 490.0848 72.72 
L 489.51 72.72 
L 488.9352 72.72 
L 488.3604 72.72 
L 487.7856 72.72 
L 487.2108 72.72 
L 486.636 72.72 
L 486.0612 72.72 
L 485.4864 72.72 
L 484.9116 72.72 
L 484.3368 72.72 
L 483.762 72.72 
L 483.1872 72.72 
L 482.6124 72.72 
L 482.0376 72.72 
L 481.4628 72.72 
L 480.888 72.72 
L 480.3132 72.72 
L 479.7384 72.72 
L 479.1636 72.72 
L 478.5888 72.72 
L 478.014 72.72 
L 477.4392 72.72 
L 476.8644 72.72 
L 476.2896 72.72 
L 475.7148 72.72 
L 475.14 72.72 
L 474.5652 72.72 
L 473.9904 72.72 
L 473.4156 72.72 
L 472.8408 72.72 
L 472.266 72.72 
L 471.6912 72.72 
L 471.1164 72.72 
L 470.5416 72.72 
L 469.9668 72.72 
L 469.392 72.72 
L 468.8172 72.72 
L 468.2424 72.72 
L 467.6676 72.72 
L 467.0928 72.72 
L 466.518 72.72 
L 465.9432 72.72 
L 465.3684 72.72 
L 464.7936 72.72 
L 464.2188 72.72 
L 463.644 72.72 
L 463.0692 72.72 
L 462.4944 72.72 
L 461.9196 72.72 
L 461.3448 72.72 
L 460.77 72.72 
L 460.1952 72.72 
L 459.6204 72.72 
L 459.0456 72.72 
L 458.4708 72.72 
L 457.896 72.72 
L 457.3212 72.72 
L 456.7464 72.72 
L 456.1716 72.72 
L 455.5968 72.72 
L 455.022 72.72 
L 454.4472 72.72 
L 453.8724 72.72 
L 453.2976 72.72 
L 452.7228 72.72 
L 452.148 72.72 
L 451.5732 72.72 
L 450.9984 72.72 
L 450.4236 72.72 
L 449.8488 72.72 
L 449.274 72.72 
L 448.6992 72.72 
L 448.1244 72.72 
L 447.5496 72.72 
L 446.9748 72.72 
z
" style="fill:#ffffff;"/>
   </g>
   <g id="matplotlib.axis_1">
    <g id="xtick_1">
     <g id="line2d_1">
      <path clip-path="url(#p0ad12dc914)" d="M 446.4 72.72 
L 500.4 72.72 
" style="fill:none;stroke:#e6e6e6;stroke-linecap:square;stroke-width:0.5;"/>
     </g>
    </g>
    <g id="xtick_2">
     <g id="line2d_2">
      <path clip-path="url(#p0ad12dc914)" d="M 446.4 72.72 
L 484.583766 34.536234 
" style="fill:none;stroke:#e6e6e6;stroke-linecap:square;stroke-width:0.5;"/>
     </g>
    </g>
    <g id="xtick_3">
     <g id="line2d_3">
      <path clip-path="url(#p0ad12dc914)" d="M 446.4 72.72 
L 446.4 18.72 
" style="fill:none;stroke:#e6e6e6;stroke-linecap:square;stroke-width:0.5;"/>
     </g>
    </g>
    <g id="xtick_4">
     <g id="line2d_4">
      <path clip-path="url(#p0ad12dc914)" d="M 446.4 72.72 
L 408.216234 34.536234 
" style="fill:none;stroke:#e6e6e6;stroke-linecap:square;stroke-width:0.5;"/>
     </g>
    </g>
    <g id="xtick_5">
     <g id="line2d_5">
      <path clip-path="url(#p0ad12dc914)" d="M 446.4 72.72 
L 392.4 72.72 
" style="fill:none;stroke:#e6e6e6;stroke-linecap:square;stroke-width:0.5;"/>
     </g>
    </g>
    <g id="xtick_6">
     <g id="line2d_6">
      <path clip-path="url(#p0ad12dc914)" d="M 446.4 72.72 
L 408.216234 110.903766 
" style="fill:none;stroke:#e6e6e6;stroke-linecap:square;stroke-width:0.5;"/>
     </g>
    </g>
    <g id="xtick_7">
     <g id="line2d_7">
      <path clip-path="url(#p0ad12dc914)" d="M 446.4 72.72 
L 446.4 126.72 
" style="fill:none;stroke:#e6e6e6;stroke-linecap:square;stroke-width:0.5;"/>
     </g>
    </g>
    <g id="xtick_8">
     <g id="line2d_8">
      <path clip-path="url(#p0ad12dc914)" d="M 446.4 72.72 
L 484.583766 110.903766 
" style="fill:none;stroke:#e6e6e6;stroke-linecap:square;stroke-width:0.5;"/>
     </g>
    </g>
   </g>
   <g id="matplotlib.axis_2">
    <g id="ytick_1">
     <g id="line2d_9">
      <path clip-path="url(#p0ad12dc914)" d="M 452.4 72.72 
L 452.268886 71.47253 
L 451.881273 70.27958 
L 451.254102 69.193288 
L 450.414784 68.261131 
L 449.4 67.523848 
L 448.254102 67.013661 
L 447.027171 66.752869 
L 445.772829 66.752869 
L 444.545898 67.013661 
L 443.4 67.523848 
L 442.385216 68.261131 
L 441.545898 69.193288 
L 440.918727 70.27958 
L 440.531114 71.47253 
L 440.4 72.72 
L 440.531114 73.96747 
L 440.918727 75.16042 
L 441.545898 76.246712 
L 442.385216 77.178869 
L 443.4 77.916152 
L 444.545898 78.426339 
L 445.772829 78.687131 
L 447.027171 78.687131 
L 448.254102 78.426339 
L 449.4 77.916152 
L 450.414784 77.178869 
L 451.254102 76.246712 
L 451.881273 75.16042 
L 452.268886 73.96747 
L 452.4 72.72 
L 452.4 72.72 
" style="fill:none;stroke:#e6e6e6;stroke-linecap:square;stroke-width:0.5;"/>
     </g>
    </g>
    <g id="ytick_2">
     <g id="line2d_10">
      <path clip-path="url(#p0ad12dc914)" d="M 464.4 72.72 
L 464.301394 70.838488 
L 464.006657 68.97759 
L 463.519017 67.157694 
L 462.843818 65.39874 
L 461.988457 63.72 
L 460.962306 62.139865 
L 459.776607 60.675649 
L 458.444351 59.343393 
L 456.980135 58.157694 
L 455.4 57.131543 
L 453.72126 56.276182 
L 451.962306 55.600983 
L 450.14241 55.113343 
L 448.281512 54.818606 
L 446.4 54.72 
L 444.518488 54.818606 
L 442.65759 55.113343 
L 440.837694 55.600983 
L 439.07874 56.276182 
L 437.4 57.131543 
L 435.819865 58.157694 
L 434.355649 59.343393 
L 433.023393 60.675649 
L 431.837694 62.139865 
L 430.811543 63.72 
L 429.956182 65.39874 
L 429.280983 67.157694 
L 428.793343 68.97759 
L 428.498606 70.838488 
L 428.4 72.72 
L 428.498606 74.601512 
L 428.793343 76.46241 
L 429.280983 78.282306 
L 429.956182 80.04126 
L 430.811543 81.72 
L 431.837694 83.300135 
L 433.023393 84.764351 
L 434.355649 86.096607 
L 435.819865 87.282306 
L 437.4 88.308457 
L 439.07874 89.163818 
L 440.837694 89.839017 
L 442.65759 90.326657 
L 444.518488 90.621394 
L 446.4 90.72 
L 448.281512 90.621394 
L 450.14241 90.326657 
L 451.962306 89.839017 
L 453.72126 89.163818 
L 455.4 88.308457 
L 456.980135 87.282306 
L 458.444351 86.096607 
L 459.776607 84.764351 
L 460.962306 83.300135 
L 461.988457 81.72 
L 462.843818 80.04126 
L 463.519017 78.282306 
L 464.006657 76.46241 
L 464.301394 74.601512 
L 464.4 72.72 
L 464.4 72.72 
" style="fill:none;stroke:#e6e6e6;stroke-linecap:square;stroke-width:0.5;"/>
     </g>
    </g>
    <g id="ytick_3">
     <g id="line2d_11">
      <path clip-path="url(#p0ad12dc914)" d="M 476.4 72.72 
L 476.235657 69.584146 
L 475.744428 66.482649 
L 474.931695 63.44949 
L 473.806364 60.517901 
L 472.380762 57.72 
L 470.67051 55.086442 
L 468.694345 52.646082 
L 466.473918 50.425655 
L 464.033558 48.44949 
L 461.4 46.739238 
L 458.602099 45.313636 
L 455.67051 44.188305 
L 452.637351 43.375572 
L 449.535854 42.884343 
L 446.4 42.72 
L 443.264146 42.884343 
L 440.162649 43.375572 
L 437.12949 44.188305 
L 434.197901 45.313636 
L 431.4 46.739238 
L 428.766442 48.44949 
L 426.326082 50.425655 
L 424.105655 52.646082 
L 422.12949 55.086442 
L 420.419238 57.72 
L 418.993636 60.517901 
L 417.868305 63.44949 
L 417.055572 66.482649 
L 416.564343 69.584146 
L 416.4 72.72 
L 416.564343 75.855854 
L 417.055572 78.957351 
L 417.868305 81.99051 
L 418.993636 84.922099 
L 420.419238 87.72 
L 422.12949 90.353558 
L 424.105655 92.793918 
L 426.326082 95.014345 
L 428.766442 96.99051 
L 431.4 98.700762 
L 434.197901 100.126364 
L 437.12949 101.251695 
L 440.162649 102.064428 
L 443.264146 102.555657 
L 446.4 102.72 
L 449.535854 102.555657 
L 452.637351 102.064428 
L 455.67051 101.251695 
L 458.602099 100.126364 
L 461.4 98.700762 
L 464.033558 96.99051 
L 466.473918 95.014345 
L 468.694345 92.793918 
L 470.67051 90.353558 
L 472.380762 87.72 
L 473.806364 84.922099 
L 474.931695 81.99051 
L 475.744428 78.957351 
L 476.235657 75.855854 
L 476.4 72.72 
L 476.4 72.72 
" style="fill:none;stroke:#e6e6e6;stroke-linecap:square;stroke-width:0.5;"/>
     </g>
    </g>
    <g id="ytick_4">
     <g id="line2d_12">
      <path clip-path="url(#p0ad12dc914)" d="M 488.4 72.72 
L 488.29769 69.790228 
L 487.991259 66.87473 
L 487.482199 63.987709 
L 486.772991 61.143231 
L 485.86709 58.355154 
L 484.768909 55.637061 
L 483.483799 53.002194 
L 482.01802 50.463391 
L 480.378714 48.033019 
L 478.573867 45.72292 
L 476.612272 43.544348 
L 474.503485 41.507917 
L 472.257782 39.623548 
L 469.886102 37.900422 
L 467.4 36.346933 
L 464.811588 34.97065 
L 462.133477 33.778278 
L 459.378714 32.775626 
L 456.56072 31.967579 
L 453.693223 31.358074 
L 450.790195 30.95008 
L 447.865779 30.745585 
L 444.934221 30.745585 
L 442.009805 30.95008 
L 439.106777 31.358074 
L 436.23928 31.967579 
L 433.421286 32.775626 
L 430.666523 33.778278 
L 427.988412 34.97065 
L 425.4 36.346933 
L 422.913898 37.900422 
L 420.542218 39.623548 
L 418.296515 41.507917 
L 416.187728 43.544348 
L 414.226133 45.72292 
L 412.421286 48.033019 
L 410.78198 50.463391 
L 409.316201 53.002194 
L 408.031091 55.637061 
L 406.93291 58.355154 
L 406.027009 61.143231 
L 405.317801 63.987709 
L 404.808741 66.87473 
L 404.50231 69.790228 
L 404.4 72.72 
L 404.50231 75.649772 
L 404.808741 78.56527 
L 405.317801 81.452291 
L 406.027009 84.296769 
L 406.93291 87.084846 
L 408.031091 89.802939 
L 409.316201 92.437806 
L 410.78198 94.976609 
L 412.421286 97.406981 
L 414.226133 99.71708 
L 416.187728 101.895652 
L 418.296515 103.932083 
L 420.542218 105.816452 
L 422.913898 107.539578 
L 425.4 109.093067 
L 427.988412 110.46935 
L 430.666523 111.661722 
L 433.421286 112.664374 
L 436.23928 113.472421 
L 439.106777 114.081926 
L 442.009805 114.48992 
L 444.934221 114.694415 
L 447.865779 114.694415 
L 450.790195 114.48992 
L 453.693223 114.081926 
L 456.56072 113.472421 
L 459.378714 112.664374 
L 462.133477 111.661722 
L 464.811588 110.46935 
L 467.4 109.093067 
L 469.886102 107.539578 
L 472.257782 105.816452 
L 474.503485 103.932083 
L 476.612272 101.895652 
L 478.573867 99.71708 
L 480.378714 97.406981 
L 482.01802 94.976609 
L 483.483799 92.437806 
L 484.768909 89.802939 
L 485.86709 87.084846 
L 486.772991 84.296769 
L 487.482199 81.452291 
L 487.991259 78.56527 
L 488.29769 75.649772 
L 488.4 72.72 
L 488.4 72.72 
" style="fill:none;stroke:#e6e6e6;stroke-linecap:square;stroke-width:0.5;"/>
     </g>
    </g>
   </g>
   <g id="patch_5">
    <path clip-path="url(#p0ad12dc914)" d="M 446.4 72.72 
L 446.4 72.72 
L 446.4 72.72 
L 446.4 72.72 
L 446.4 72.72 
L 446.4 72.72 
L 446.4 72.72 
L 446.4 72.72 
L 446.4 72.72 
L 446.4 72.72 
L 446.4 72.72 
L 446.4 72.72 
L 446.4 72.72 
L 446.4 72.72 
L 446.4 72.72 
L 446.4 72.72 
L 446.4 72.72 
L 446.4 72.72 
L 446.4 72.72 
L 446.4 72.72 
L 446.4 72.72 
L 446.4 72.72 
L 446.4 72.72 
L 446.4 72.72 
L 446.4 72.72 
L 446.4 72.72 
L 446.4 72.72 
L 446.4 72.72 
L 446.4 72.72 
L 446.4 72.72 
L 446.4 72.72 
L 446.4 72.72 
L 446.4 72.72 
L 446.4 72.72 
L 446.4 72.72 
L 446.4 72.72 
L 446.4 72.72 
L 446.4 72.72 
L 446.4 72.72 
L 446.4 72.72 
L 446.4 72.72 
L 446.4 72.72 
L 446.4 72.72 
L 446.4 72.72 
L 446.4 72.72 
L 446.4 72.72 
L 446.4 72.72 
L 446.4 72.72 
L 446.4 72.72 
L 446.4 72.72 
L 446.4 72.72 
L 446.4 72.72 
L 446.4 72.72 
L 446.4 72.72 
L 446.4 72.72 
L 446.4 72.72 
L 446.4 72.72 
L 446.4 72.72 
L 446.4 72.72 
L 446.4 72.72 
L 446.4 72.72 
L 446.4 72.72 
L 446.4 72.72 
L 446.4 72.72 
L 446.4 72.72 
L 446.4 72.72 
L 446.4 72.72 
L 446.4 72.72 
L 446.4 72.72 
L 446.4 72.72 
L 446.4 72.72 
L 446.4 72.72 
L 446.4 72.72 
L 446.4 72.72 
L 446.4 72.72 
L 446.4 72.72 
L 446.4 72.72 
L 446.4 72.72 
L 446.4 72.72 
L 446.4 72.72 
L 446.4 72.72 
L 446.4 72.72 
L 446.4 72.72 
L 446.4 72.72 
L 446.4 72.72 
L 446.4 72.72 
L 446.4 72.72 
L 446.4 72.72 
L 446.4 72.72 
L 446.4 72.72 
L 446.4 72.72 
L 446.4 72.72 
L 446.4 72.72 
L 446.4 72.72 
L 446.4 72.72 
L 446.4 72.72 
L 446.4 72.72 
L 446.4 72.72 
L 446.4 72.72 
L 446.4 72.72 
L 446.4 72.72 
L 446.514127 72.682918 
L 446.628254 72.645836 
L 446.74238 72.608754 
L 446.856507 72.571672 
L 446.970634 72.53459 
L 447.084761 72.497508 
L 447.198887 72.460426 
L 447.313014 72.423344 
L 447.427141 72.386262 
L 447.541268 72.34918 
L 447.655395 72.312098 
L 447.769521 72.275016 
L 447.883648 72.237933 
L 447.997775 72.200851 
L 448.111902 72.163769 
L 448.226029 72.126687 
L 448.340155 72.089605 
L 448.454282 72.052523 
L 448.568409 72.015441 
L 448.682536 71.978359 
L 448.796662 71.941277 
L 448.910789 71.904195 
L 449.024916 71.867113 
L 449.139043 71.830031 
L 449.25317 71.792949 
L 449.367296 71.755867 
L 449.481423 71.718785 
L 449.59555 71.681703 
L 449.709677 71.644621 
L 449.823803 71.607539 
L 449.93793 71.570457 
L 450.052057 71.533375 
L 450.166184 71.496293 
L 450.280311 71.459211 
L 450.394437 71.422129 
L 450.508564 71.385047 
L 450.622691 71.347965 
L 450.736818 71.310883 
L 450.850944 71.2738 
L 450.965071 71.236718 
L 451.079198 71.199636 
L 451.193325 71.162554 
L 451.307452 71.125472 
L 451.421578 71.08839 
L 451.535705 71.051308 
L 451.649832 71.014226 
L 451.763959 70.977144 
L 451.878086 70.940062 
L 451.992212 70.90298 
L 452.106339 70.865898 
L 452.220466 70.828816 
L 452.334593 70.791734 
L 452.448719 70.754652 
L 452.562846 70.71757 
L 452.676973 70.680488 
L 452.7911 70.643406 
L 452.905227 70.606324 
L 453.019353 70.569242 
L 453.13348 70.53216 
L 453.247607 70.495078 
L 453.361734 70.457996 
L 453.47586 70.420914 
L 453.589987 70.383832 
L 453.704114 70.346749 
L 453.818241 70.309667 
L 453.932368 70.272585 
L 454.046494 70.235503 
L 454.160621 70.198421 
L 454.274748 70.161339 
L 454.388875 70.124257 
L 454.503002 70.087175 
L 454.617128 70.050093 
L 454.731255 70.013011 
L 454.845382 69.975929 
L 454.959509 69.938847 
L 455.073635 69.901765 
L 455.187762 69.864683 
L 455.301889 69.827601 
L 455.416016 69.790519 
L 455.530143 69.753437 
L 455.644269 69.716355 
L 455.758396 69.679273 
L 455.872523 69.642191 
L 455.98665 69.605109 
L 456.100776 69.568027 
L 456.214903 69.530945 
L 456.32903 69.493863 
L 456.443157 69.456781 
L 456.557284 69.419699 
L 456.67141 69.382616 
L 456.785537 69.345534 
L 456.899664 69.308452 
L 457.013791 69.27137 
L 457.127918 69.234288 
L 457.242044 69.197206 
L 457.356171 69.160124 
L 457.470298 69.123042 
L 457.584425 69.08596 
L 457.698551 69.048878 
L 457.812678 69.011796 
L 457.824272 69.047668 
L 457.835752 69.083577 
L 457.84712 69.119521 
L 457.858375 69.155501 
L 457.869516 69.191516 
L 457.880545 69.227566 
L 457.89146 69.26365 
L 457.902261 69.299769 
L 457.91295 69.335921 
L 457.923524 69.372107 
L 457.933985 69.408325 
L 457.944332 69.444577 
L 457.954565 69.48086 
L 457.964684 69.517176 
L 457.974689 69.553523 
L 457.98458 69.589902 
L 457.994356 69.626311 
L 458.004018 69.662751 
L 458.013565 69.699221 
L 458.022998 69.735721 
L 458.032316 69.772251 
L 458.041519 69.808809 
L 458.050607 69.845396 
L 458.059581 69.882012 
L 458.068439 69.918656 
L 458.077182 69.955327 
L 458.08581 69.992025 
L 458.094322 70.028751 
L 458.10272 70.065503 
L 458.111001 70.102281 
L 458.119167 70.139085 
L 458.127217 70.175915 
L 458.135152 70.212769 
L 458.142971 70.249649 
L 458.150674 70.286552 
L 458.158261 70.32348 
L 458.165731 70.360432 
L 458.173086 70.397406 
L 458.180325 70.434404 
L 458.187447 70.471424 
L 458.194453 70.508467 
L 458.201342 70.545531 
L 458.208116 70.582617 
L 458.214772 70.619723 
L 458.221312 70.656851 
L 458.227735 70.693999 
L 458.234042 70.731167 
L 458.240231 70.768354 
L 458.246304 70.805561 
L 458.25226 70.842786 
L 458.258099 70.880031 
L 458.263821 70.917293 
L 458.269426 70.954573 
L 458.274913 70.991871 
L 458.280284 71.029185 
L 458.285537 71.066517 
L 458.290673 71.103864 
L 458.295692 71.141228 
L 458.300593 71.178607 
L 458.305376 71.216001 
L 458.310043 71.25341 
L 458.314591 71.290834 
L 458.319022 71.328272 
L 458.323336 71.365723 
L 458.327531 71.403188 
L 458.331609 71.440666 
L 458.33557 71.478157 
L 458.339412 71.515659 
L 458.343137 71.553174 
L 458.346744 71.5907 
L 458.350232 71.628238 
L 458.353603 71.665786 
L 458.356856 71.703344 
L 458.359991 71.740913 
L 458.363008 71.778491 
L 458.365907 71.816078 
L 458.368688 71.853675 
L 458.37135 71.89128 
L 458.373894 71.928893 
L 458.376321 71.966514 
L 458.378629 72.004142 
L 458.380819 72.041778 
L 458.38289 72.07942 
L 458.384843 72.117068 
L 458.386678 72.154723 
L 458.388395 72.192383 
L 458.389994 72.230048 
L 458.391474 72.267718 
L 458.392835 72.305392 
L 458.394079 72.343071 
L 458.395204 72.380753 
L 458.39621 72.418439 
L 458.397098 72.456127 
L 458.397868 72.493819 
L 458.39852 72.531512 
L 458.399053 72.569208 
L 458.399467 72.606904 
L 458.399763 72.644602 
L 458.399941 72.682301 
L 458.4 72.72 
L 458.28 72.72 
L 458.16 72.72 
L 458.04 72.72 
L 457.92 72.72 
L 457.8 72.72 
L 457.68 72.72 
L 457.56 72.72 
L 457.44 72.72 
L 457.32 72.72 
L 457.2 72.72 
L 457.08 72.72 
L 456.96 72.72 
L 456.84 72.72 
L 456.72 72.72 
L 456.6 72.72 
L 456.48 72.72 
L 456.36 72.72 
L 456.24 72.72 
L 456.12 72.72 
L 456 72.72 
L 455.88 72.72 
L 455.76 72.72 
L 455.64 72.72 
L 455.52 72.72 
L 455.4 72.72 
L 455.28 72.72 
L 455.16 72.72 
L 455.04 72.72 
L 454.92 72.72 
L 454.8 72.72 
L 454.68 72.72 
L 454.56 72.72 
L 454.44 72.72 
L 454.32 72.72 
L 454.2 72.72 
L 454.08 72.72 
L 453.96 72.72 
L 453.84 72.72 
L 453.72 72.72 
L 453.6 72.72 
L 453.48 72.72 
L 453.36 72.72 
L 453.24 72.72 
L 453.12 72.72 
L 453 72.72 
L 452.88 72.72 
L 452.76 72.72 
L 452.64 72.72 
L 452.52 72.72 
L 452.4 72.72 
L 452.28 72.72 
L 452.16 72.72 
L 452.04 72.72 
L 451.92 72.72 
L 451.8 72.72 
L 451.68 72.72 
L 451.56 72.72 
L 451.44 72.72 
L 451.32 72.72 
L 451.2 72.72 
L 451.08 72.72 
L 450.96 72.72 
L 450.84 72.72 
L 450.72 72.72 
L 450.6 72.72 
L 450.48 72.72 
L 450.36 72.72 
L 450.24 72.72 
L 450.12 72.72 
L 450 72.72 
L 449.88 72.72 
L 449.76 72.72 
L 449.64 72.72 
L 449.52 72.72 
L 449.4 72.72 
L 449.28 72.72 
L 449.16 72.72 
L 449.04 72.72 
L 448.92 72.72 
L 448.8 72.72 
L 448.68 72.72 
L 448.56 72.72 
L 448.44 72.72 
L 448.32 72.72 
L 448.2 72.72 
L 448.08 72.72 
L 447.96 72.72 
L 447.84 72.72 
L 447.72 72.72 
L 447.6 72.72 
L 447.48 72.72 
L 447.36 72.72 
L 447.24 72.72 
L 447.12 72.72 
L 447 72.72 
L 446.88 72.72 
L 446.76 72.72 
L 446.64 72.72 
L 446.52 72.72 
z
" style="fill:#004cff;fill-opacity:0.6;stroke:#4c4c4c;stroke-linejoin:miter;stroke-width:0.7;"/>
   </g>
   <g id="patch_6">
    <path clip-path="url(#p0ad12dc914)" d="M 446.4 72.72 
L 446.4 72.72 
L 446.4 72.72 
L 446.4 72.72 
L 446.4 72.72 
L 446.4 72.72 
L 446.4 72.72 
L 446.4 72.72 
L 446.4 72.72 
L 446.4 72.72 
L 446.4 72.72 
L 446.4 72.72 
L 446.4 72.72 
L 446.4 72.72 
L 446.4 72.72 
L 446.4 72.72 
L 446.4 72.72 
L 446.4 72.72 
L 446.4 72.72 
L 446.4 72.72 
L 446.4 72.72 
L 446.4 72.72 
L 446.4 72.72 
L 446.4 72.72 
L 446.4 72.72 
L 446.4 72.72 
L 446.4 72.72 
L 446.4 72.72 
L 446.4 72.72 
L 446.4 72.72 
L 446.4 72.72 
L 446.4 72.72 
L 446.4 72.72 
L 446.4 72.72 
L 446.4 72.72 
L 446.4 72.72 
L 446.4 72.72 
L 446.4 72.72 
L 446.4 72.72 
L 446.4 72.72 
L 446.4 72.72 
L 446.4 72.72 
L 446.4 72.72 
L 446.4 72.72 
L 446.4 72.72 
L 446.4 72.72 
L 446.4 72.72 
L 446.4 72.72 
L 446.4 72.72 
L 446.4 72.72 
L 446.4 72.72 
L 446.4 72.72 
L 446.4 72.72 
L 446.4 72.72 
L 446.4 72.72 
L 446.4 72.72 
L 446.4 72.72 
L 446.4 72.72 
L 446.4 72.72 
L 446.4 72.72 
L 446.4 72.72 
L 446.4 72.72 
L 446.4 72.72 
L 446.4 72.72 
L 446.4 72.72 
L 446.4 72.72 
L 446.4 72.72 
L 446.4 72.72 
L 446.4 72.72 
L 446.4 72.72 
L 446.4 72.72 
L 446.4 72.72 
L 446.4 72.72 
L 446.4 72.72 
L 446.4 72.72 
L 446.4 72.72 
L 446.4 72.72 
L 446.4 72.72 
L 446.4 72.72 
L 446.4 72.72 
L 446.4 72.72 
L 446.4 72.72 
L 446.4 72.72 
L 446.4 72.72 
L 446.4 72.72 
L 446.4 72.72 
L 446.4 72.72 
L 446.4 72.72 
L 446.4 72.72 
L 446.4 72.72 
L 446.4 72.72 
L 446.4 72.72 
L 446.4 72.72 
L 446.4 72.72 
L 446.4 72.72 
L 446.4 72.72 
L 446.4 72.72 
L 446.4 72.72 
L 446.4 72.72 
L 446.4 72.72 
L 446.4 72.72 
L 446.526495 72.382955 
L 446.65299 72.045911 
L 446.779485 71.708866 
L 446.90598 71.371822 
L 447.032475 71.034777 
L 447.15897 70.697733 
L 447.285465 70.360688 
L 447.411959 70.023644 
L 447.538454 69.686599 
L 447.664949 69.349554 
L 447.791444 69.01251 
L 447.917939 68.675465 
L 448.044434 68.338421 
L 448.170929 68.001376 
L 448.297424 67.664332 
L 448.423919 67.327287 
L 448.550414 66.990243 
L 448.676909 66.653198 
L 448.803404 66.316153 
L 448.929899 65.979109 
L 449.056394 65.642064 
L 449.182889 65.30502 
L 449.309384 64.967975 
L 449.435878 64.630931 
L 449.562373 64.293886 
L 449.688868 63.956842 
L 449.815363 63.619797 
L 449.941858 63.282753 
L 450.068353 62.945708 
L 450.194848 62.608663 
L 450.321343 62.271619 
L 450.447838 61.934574 
L 450.574333 61.59753 
L 450.700828 61.260485 
L 450.827323 60.923441 
L 450.953818 60.586396 
L 451.080313 60.249352 
L 451.206808 59.912307 
L 451.333303 59.575262 
L 451.459797 59.238218 
L 451.586292 58.901173 
L 451.712787 58.564129 
L 451.839282 58.227084 
L 451.965777 57.89004 
L 452.092272 57.552995 
L 452.218767 57.215951 
L 452.345262 56.878906 
L 452.471757 56.541861 
L 452.598252 56.204817 
L 452.724747 55.867772 
L 452.851242 55.530728 
L 452.977737 55.193683 
L 453.104232 54.856639 
L 453.230727 54.519594 
L 453.357222 54.18255 
L 453.483716 53.845505 
L 453.610211 53.50846 
L 453.736706 53.171416 
L 453.863201 52.834371 
L 453.989696 52.497327 
L 454.116191 52.160282 
L 454.242686 51.823238 
L 454.369181 51.486193 
L 454.495676 51.149149 
L 454.622171 50.812104 
L 454.748666 50.475059 
L 454.875161 50.138015 
L 455.001656 49.80097 
L 455.128151 49.463926 
L 455.254646 49.126881 
L 455.381141 48.789837 
L 455.507635 48.452792 
L 455.63413 48.115748 
L 455.760625 47.778703 
L 455.88712 47.441658 
L 456.013615 47.104614 
L 456.14011 46.767569 
L 456.266605 46.430525 
L 456.3931 46.09348 
L 456.519595 45.756436 
L 456.64609 45.419391 
L 456.772585 45.082347 
L 456.89908 44.745302 
L 457.025575 44.408258 
L 457.15207 44.071213 
L 457.278565 43.734168 
L 457.405059 43.397124 
L 457.531554 43.060079 
L 457.658049 42.723035 
L 457.784544 42.38599 
L 457.911039 42.048946 
L 458.037534 41.711901 
L 458.164029 41.374857 
L 458.290524 41.037812 
L 458.417019 40.700767 
L 458.543514 40.363723 
L 458.670009 40.026678 
L 458.796504 39.689634 
L 458.922999 39.352589 
L 459.049494 39.015545 
L 459.155317 39.05545 
L 459.261014 39.095689 
L 459.366584 39.136258 
L 459.472026 39.17716 
L 459.57734 39.218392 
L 459.682523 39.259955 
L 459.787575 39.301849 
L 459.892495 39.344072 
L 459.997282 39.386624 
L 460.101934 39.429506 
L 460.206452 39.472716 
L 460.310833 39.516254 
L 460.415077 39.56012 
L 460.519182 39.604314 
L 460.623148 39.648834 
L 460.726974 39.69368 
L 460.830659 39.738852 
L 460.934201 39.78435 
L 461.037599 39.830173 
L 461.140853 39.876321 
L 461.243962 39.922793 
L 461.346924 39.969588 
L 461.449738 40.016707 
L 461.552404 40.064148 
L 461.654921 40.111912 
L 461.757286 40.159998 
L 461.859501 40.208405 
L 461.961563 40.257132 
L 462.063471 40.306181 
L 462.165224 40.355549 
L 462.266822 40.405236 
L 462.368264 40.455243 
L 462.469547 40.505568 
L 462.570672 40.556211 
L 462.671638 40.607171 
L 462.772443 40.658448 
L 462.873086 40.710042 
L 462.973567 40.761951 
L 463.073884 40.814176 
L 463.174037 40.866716 
L 463.274024 40.919571 
L 463.373845 40.972739 
L 463.473498 41.02622 
L 463.572982 41.080015 
L 463.672297 41.134121 
L 463.771442 41.188539 
L 463.870415 41.243269 
L 463.969216 41.298309 
L 464.067843 41.353659 
L 464.166296 41.409319 
L 464.264573 41.465288 
L 464.362675 41.521565 
L 464.460599 41.578151 
L 464.558344 41.635043 
L 464.655911 41.692243 
L 464.753297 41.749748 
L 464.850502 41.80756 
L 464.947525 41.865676 
L 465.044365 41.924097 
L 465.141022 41.982822 
L 465.237493 42.04185 
L 465.333778 42.101181 
L 465.429876 42.160814 
L 465.525786 42.220749 
L 465.621508 42.280985 
L 465.71704 42.341521 
L 465.812381 42.402357 
L 465.907531 42.463493 
L 466.002488 42.524927 
L 466.097252 42.586659 
L 466.191821 42.648688 
L 466.286195 42.711014 
L 466.380373 42.773636 
L 466.474354 42.836554 
L 466.568136 42.899767 
L 466.661719 42.963274 
L 466.755103 43.027075 
L 466.848285 43.091169 
L 466.941266 43.155555 
L 467.034044 43.220233 
L 467.126618 43.285202 
L 467.218988 43.350462 
L 467.311152 43.416012 
L 467.40311 43.481851 
L 467.49486 43.547978 
L 467.586403 43.614393 
L 467.677736 43.681096 
L 467.768859 43.748085 
L 467.859772 43.81536 
L 467.950472 43.882921 
L 468.04096 43.950766 
L 468.131234 44.018895 
L 468.221294 44.087307 
L 468.311139 44.156002 
L 468.400767 44.224978 
L 468.490178 44.294236 
L 468.579371 44.363775 
L 468.668345 44.433593 
L 468.757099 44.503691 
L 468.845633 44.574067 
L 468.621177 44.855526 
L 468.39672 45.136985 
L 468.172264 45.418445 
L 467.947808 45.699904 
L 467.723351 45.981363 
L 467.498895 46.262823 
L 467.274439 46.544282 
L 467.049982 46.825741 
L 466.825526 47.107201 
L 466.60107 47.38866 
L 466.376613 47.670119 
L 466.152157 47.951579 
L 465.927701 48.233038 
L 465.703244 48.514497 
L 465.478788 48.795957 
L 465.254332 49.077416 
L 465.029875 49.358875 
L 464.805419 49.640335 
L 464.580963 49.921794 
L 464.356506 50.203253 
L 464.13205 50.484713 
L 463.907594 50.766172 
L 463.683137 51.047631 
L 463.458681 51.329091 
L 463.234225 51.61055 
L 463.009768 51.892009 
L 462.785312 52.173469 
L 462.560856 52.454928 
L 462.336399 52.736387 
L 462.111943 53.017847 
L 461.887487 53.299306 
L 461.66303 53.580765 
L 461.438574 53.862225 
L 461.214118 54.143684 
L 460.989661 54.425143 
L 460.765205 54.706603 
L 460.540749 54.988062 
L 460.316292 55.269521 
L 460.091836 55.550981 
L 459.86738 55.83244 
L 459.642923 56.113899 
L 459.418467 56.395359 
L 459.194011 56.676818 
L 458.969554 56.958277 
L 458.745098 57.239737 
L 458.520642 57.521196 
L 458.296185 57.802655 
L 458.071729 58.084115 
L 457.847273 58.365574 
L 457.622816 58.647033 
L 457.39836 58.928493 
L 457.173904 59.209952 
L 456.949447 59.491411 
L 456.724991 59.772871 
L 456.500535 60.05433 
L 456.276078 60.335789 
L 456.051622 60.617249 
L 455.827166 60.898708 
L 455.602709 61.180167 
L 455.378253 61.461627 
L 455.153797 61.743086 
L 454.92934 62.024545 
L 454.704884 62.306005 
L 454.480428 62.587464 
L 454.255972 62.868923 
L 454.031515 63.150383 
L 453.807059 63.431842 
L 453.582603 63.713301 
L 453.358146 63.994761 
L 453.13369 64.27622 
L 452.909234 64.557679 
L 452.684777 64.839139 
L 452.460321 65.120598 
L 452.235865 65.402057 
L 452.011408 65.683517 
L 451.786952 65.964976 
L 451.562496 66.246435 
L 451.338039 66.527895 
L 451.113583 66.809354 
L 450.889127 67.090813 
L 450.66467 67.372273 
L 450.440214 67.653732 
L 450.215758 67.935191 
L 449.991301 68.216651 
L 449.766845 68.49811 
L 449.542389 68.779569 
L 449.317932 69.061029 
L 449.093476 69.342488 
L 448.86902 69.623947 
L 448.644563 69.905407 
L 448.420107 70.186866 
L 448.195651 70.468325 
L 447.971194 70.749785 
L 447.746738 71.031244 
L 447.522282 71.312703 
L 447.297825 71.594163 
L 447.073369 71.875622 
L 446.848913 72.157081 
L 446.624456 72.438541 
z
" style="fill:#ceff29;fill-opacity:0.6;stroke:#4c4c4c;stroke-linejoin:miter;stroke-width:0.7;"/>
   </g>
   <g id="patch_7">
    <path clip-path="url(#p0ad12dc914)" d="M 446.4 72.72 
L 446.4 72.72 
L 446.4 72.72 
L 446.4 72.72 
L 446.4 72.72 
L 446.4 72.72 
L 446.4 72.72 
L 446.4 72.72 
L 446.4 72.72 
L 446.4 72.72 
L 446.4 72.72 
L 446.4 72.72 
L 446.4 72.72 
L 446.4 72.72 
L 446.4 72.72 
L 446.4 72.72 
L 446.4 72.72 
L 446.4 72.72 
L 446.4 72.72 
L 446.4 72.72 
L 446.4 72.72 
L 446.4 72.72 
L 446.4 72.72 
L 446.4 72.72 
L 446.4 72.72 
L 446.4 72.72 
L 446.4 72.72 
L 446.4 72.72 
L 446.4 72.72 
L 446.4 72.72 
L 446.4 72.72 
L 446.4 72.72 
L 446.4 72.72 
L 446.4 72.72 
L 446.4 72.72 
L 446.4 72.72 
L 446.4 72.72 
L 446.4 72.72 
L 446.4 72.72 
L 446.4 72.72 
L 446.4 72.72 
L 446.4 72.72 
L 446.4 72.72 
L 446.4 72.72 
L 446.4 72.72 
L 446.4 72.72 
L 446.4 72.72 
L 446.4 72.72 
L 446.4 72.72 
L 446.4 72.72 
L 446.4 72.72 
L 446.4 72.72 
L 446.4 72.72 
L 446.4 72.72 
L 446.4 72.72 
L 446.4 72.72 
L 446.4 72.72 
L 446.4 72.72 
L 446.4 72.72 
L 446.4 72.72 
L 446.4 72.72 
L 446.4 72.72 
L 446.4 72.72 
L 446.4 72.72 
L 446.4 72.72 
L 446.4 72.72 
L 446.4 72.72 
L 446.4 72.72 
L 446.4 72.72 
L 446.4 72.72 
L 446.4 72.72 
L 446.4 72.72 
L 446.4 72.72 
L 446.4 72.72 
L 446.4 72.72 
L 446.4 72.72 
L 446.4 72.72 
L 446.4 72.72 
L 446.4 72.72 
L 446.4 72.72 
L 446.4 72.72 
L 446.4 72.72 
L 446.4 72.72 
L 446.4 72.72 
L 446.4 72.72 
L 446.4 72.72 
L 446.4 72.72 
L 446.4 72.72 
L 446.4 72.72 
L 446.4 72.72 
L 446.4 72.72 
L 446.4 72.72 
L 446.4 72.72 
L 446.4 72.72 
L 446.4 72.72 
L 446.4 72.72 
L 446.4 72.72 
L 446.4 72.72 
L 446.4 72.72 
L 446.4 72.72 
L 446.4 72.72 
L 446.09238 72.351531 
L 445.784759 71.983061 
L 445.477139 71.614592 
L 445.169519 71.246122 
L 444.861899 70.877653 
L 444.554278 70.509183 
L 444.246658 70.140714 
L 443.939038 69.772244 
L 443.631417 69.403775 
L 443.323797 69.035305 
L 443.016177 68.666836 
L 442.708556 68.298366 
L 442.400936 67.929897 
L 442.093316 67.561427 
L 441.785696 67.192958 
L 441.478075 66.824488 
L 441.170455 66.456019 
L 440.862835 66.087549 
L 440.555214 65.71908 
L 440.247594 65.35061 
L 439.939974 64.982141 
L 439.632354 64.613672 
L 439.324733 64.245202 
L 439.017113 63.876733 
L 438.709493 63.508263 
L 438.401872 63.139794 
L 438.094252 62.771324 
L 437.786632 62.402855 
L 437.479011 62.034385 
L 437.171391 61.665916 
L 436.863771 61.297446 
L 436.556151 60.928977 
L 436.24853 60.560507 
L 435.94091 60.192038 
L 435.63329 59.823568 
L 435.325669 59.455099 
L 435.018049 59.086629 
L 434.710429 58.71816 
L 434.402809 58.34969 
L 434.095188 57.981221 
L 433.787568 57.612752 
L 433.479948 57.244282 
L 433.172327 56.875813 
L 432.864707 56.507343 
L 432.557087 56.138874 
L 432.249466 55.770404 
L 431.941846 55.401935 
L 431.634226 55.033465 
L 431.326606 54.664996 
L 431.018985 54.296526 
L 430.711365 53.928057 
L 430.403745 53.559587 
L 430.096124 53.191118 
L 429.788504 52.822648 
L 429.480884 52.454179 
L 429.173263 52.085709 
L 428.865643 51.71724 
L 428.558023 51.34877 
L 428.250403 50.980301 
L 427.942782 50.611831 
L 427.635162 50.243362 
L 427.327542 49.874893 
L 427.019921 49.506423 
L 426.712301 49.137954 
L 426.404681 48.769484 
L 426.097061 48.401015 
L 425.78944 48.032545 
L 425.48182 47.664076 
L 425.1742 47.295606 
L 424.866579 46.927137 
L 424.558959 46.558667 
L 424.251339 46.190198 
L 423.943718 45.821728 
L 423.636098 45.453259 
L 423.328478 45.084789 
L 423.020858 44.71632 
L 422.713237 44.34785 
L 422.405617 43.979381 
L 422.097997 43.610911 
L 421.790376 43.242442 
L 421.482756 42.873972 
L 421.175136 42.505503 
L 420.867516 42.137034 
L 420.559895 41.768564 
L 420.252275 41.400095 
L 419.944655 41.031625 
L 419.637034 40.663156 
L 419.329414 40.294686 
L 419.021794 39.926217 
L 418.714173 39.557747 
L 418.406553 39.189278 
L 418.098933 38.820808 
L 417.791313 38.452339 
L 417.483692 38.083869 
L 417.176072 37.7154 
L 416.868452 37.34693 
L 416.560831 36.978461 
L 416.253211 36.609991 
L 415.945591 36.241522 
L 415.637971 35.873052 
L 415.811949 35.728499 
L 415.986606 35.584768 
L 416.161939 35.441861 
L 416.337943 35.299782 
L 416.514615 35.158534 
L 416.69195 35.01812 
L 416.869945 34.878543 
L 417.048596 34.739807 
L 417.227899 34.601914 
L 417.407849 34.464867 
L 417.588443 34.32867 
L 417.769678 34.193326 
L 417.951547 34.058837 
L 418.134049 33.925206 
L 418.317178 33.792437 
L 418.500931 33.660533 
L 418.685304 33.529496 
L 418.870292 33.399329 
L 419.055891 33.270035 
L 419.242098 33.141618 
L 419.428907 33.014079 
L 419.616316 32.887422 
L 419.804319 32.76165 
L 419.992913 32.636765 
L 420.182093 32.51277 
L 420.371856 32.389668 
L 420.562196 32.267461 
L 420.75311 32.146153 
L 420.944594 32.025746 
L 421.136643 31.906242 
L 421.329253 31.787645 
L 421.52242 31.669957 
L 421.71614 31.55318 
L 421.910407 31.437318 
L 422.105218 31.322372 
L 422.300569 31.208346 
L 422.496455 31.095241 
L 422.692872 30.983061 
L 422.889815 30.871808 
L 423.08728 30.761484 
L 423.285263 30.652091 
L 423.483759 30.543633 
L 423.682764 30.436112 
L 423.882274 30.329529 
L 424.082284 30.223888 
L 424.282789 30.11919 
L 424.483785 30.015439 
L 424.685269 29.912636 
L 424.887234 29.810783 
L 425.089677 29.709883 
L 425.292593 29.609939 
L 425.495978 29.510952 
L 425.699827 29.412924 
L 425.904136 29.315858 
L 426.1089 29.219756 
L 426.314115 29.124619 
L 426.519776 29.030451 
L 426.725878 28.937253 
L 426.932417 28.845028 
L 427.139388 28.753776 
L 427.346787 28.663501 
L 427.554609 28.574205 
L 427.76285 28.485888 
L 427.971504 28.398554 
L 428.180568 28.312205 
L 428.390036 28.226841 
L 428.599905 28.142465 
L 428.810168 28.05908 
L 429.020822 27.976686 
L 429.231862 27.895285 
L 429.443284 27.81488 
L 429.655082 27.735473 
L 429.867251 27.657064 
L 430.079788 27.579656 
L 430.292688 27.50325 
L 430.505944 27.427848 
L 430.719554 27.353453 
L 430.933513 27.280064 
L 431.147814 27.207685 
L 431.362454 27.136316 
L 431.577429 27.06596 
L 431.792732 26.996617 
L 432.00836 26.92829 
L 432.224307 26.86098 
L 432.440569 26.794688 
L 432.657141 26.729416 
L 432.874019 26.665165 
L 433.091196 26.601937 
L 433.30867 26.539733 
L 433.526434 26.478554 
L 433.744483 26.418403 
L 433.962814 26.359279 
L 434.181421 26.301186 
L 434.4003 26.244122 
L 434.619444 26.188091 
L 434.838851 26.133094 
L 435.058514 26.079131 
L 435.278429 26.026203 
L 435.498591 25.974313 
L 435.718995 25.92346 
L 435.825805 26.391426 
L 435.932615 26.859391 
L 436.039425 27.327356 
L 436.146235 27.795322 
L 436.253045 28.263287 
L 436.359855 28.731253 
L 436.466666 29.199218 
L 436.573476 29.667183 
L 436.680286 30.135149 
L 436.787096 30.603114 
L 436.893906 31.07108 
L 437.000716 31.539045 
L 437.107526 32.00701 
L 437.214336 32.474976 
L 437.321146 32.942941 
L 437.427956 33.410907 
L 437.534766 33.878872 
L 437.641576 34.346837 
L 437.748386 34.814803 
L 437.855196 35.282768 
L 437.962006 35.750734 
L 438.068816 36.218699 
L 438.175626 36.686664 
L 438.282436 37.15463 
L 438.389246 37.622595 
L 438.496056 38.090561 
L 438.602866 38.558526 
L 438.709677 39.026491 
L 438.816487 39.494457 
L 438.923297 39.962422 
L 439.030107 40.430388 
L 439.136917 40.898353 
L 439.243727 41.366318 
L 439.350537 41.834284 
L 439.457347 42.302249 
L 439.564157 42.770215 
L 439.670967 43.23818 
L 439.777777 43.706145 
L 439.884587 44.174111 
L 439.991397 44.642076 
L 440.098207 45.110042 
L 440.205017 45.578007 
L 440.311827 46.045972 
L 440.418637 46.513938 
L 440.525447 46.981903 
L 440.632257 47.449869 
L 440.739067 47.917834 
L 440.845877 48.385799 
L 440.952688 48.853765 
L 441.059498 49.32173 
L 441.166308 49.789696 
L 441.273118 50.257661 
L 441.379928 50.725626 
L 441.486738 51.193592 
L 441.593548 51.661557 
L 441.700358 52.129522 
L 441.807168 52.597488 
L 441.913978 53.065453 
L 442.020788 53.533419 
L 442.127598 54.001384 
L 442.234408 54.469349 
L 442.341218 54.937315 
L 442.448028 55.40528 
L 442.554838 55.873246 
L 442.661648 56.341211 
L 442.768458 56.809176 
L 442.875268 57.277142 
L 442.982078 57.745107 
L 443.088889 58.213073 
L 443.195699 58.681038 
L 443.302509 59.149003 
L 443.409319 59.616969 
L 443.516129 60.084934 
L 443.622939 60.5529 
L 443.729749 61.020865 
L 443.836559 61.48883 
L 443.943369 61.956796 
L 444.050179 62.424761 
L 444.156989 62.892727 
L 444.263799 63.360692 
L 444.370609 63.828657 
L 444.477419 64.296623 
L 444.584229 64.764588 
L 444.691039 65.232554 
L 444.797849 65.700519 
L 444.904659 66.168484 
L 445.011469 66.63645 
L 445.118279 67.104415 
L 445.225089 67.572381 
L 445.3319 68.040346 
L 445.43871 68.508311 
L 445.54552 68.976277 
L 445.65233 69.444242 
L 445.75914 69.912208 
L 445.86595 70.380173 
L 445.97276 70.848138 
L 446.07957 71.316104 
L 446.18638 71.784069 
L 446.29319 72.252035 
z
" style="fill:#ff6800;fill-opacity:0.6;stroke:#4c4c4c;stroke-linejoin:miter;stroke-width:0.7;"/>
   </g>
   <g id="patch_8">
    <path clip-path="url(#p0ad12dc914)" d="M 446.4 72.72 
L 446.4 72.72 
L 446.4 72.72 
L 446.4 72.72 
L 446.4 72.72 
L 446.4 72.72 
L 446.4 72.72 
L 446.4 72.72 
L 446.4 72.72 
L 446.4 72.72 
L 446.4 72.72 
L 446.4 72.72 
L 446.4 72.72 
L 446.4 72.72 
L 446.4 72.72 
L 446.4 72.72 
L 446.4 72.72 
L 446.4 72.72 
L 446.4 72.72 
L 446.4 72.72 
L 446.4 72.72 
L 446.4 72.72 
L 446.4 72.72 
L 446.4 72.72 
L 446.4 72.72 
L 446.4 72.72 
L 446.4 72.72 
L 446.4 72.72 
L 446.4 72.72 
L 446.4 72.72 
L 446.4 72.72 
L 446.4 72.72 
L 446.4 72.72 
L 446.4 72.72 
L 446.4 72.72 
L 446.4 72.72 
L 446.4 72.72 
L 446.4 72.72 
L 446.4 72.72 
L 446.4 72.72 
L 446.4 72.72 
L 446.4 72.72 
L 446.4 72.72 
L 446.4 72.72 
L 446.4 72.72 
L 446.4 72.72 
L 446.4 72.72 
L 446.4 72.72 
L 446.4 72.72 
L 446.4 72.72 
L 446.4 72.72 
L 446.4 72.72 
L 446.4 72.72 
L 446.4 72.72 
L 446.4 72.72 
L 446.4 72.72 
L 446.4 72.72 
L 446.4 72.72 
L 446.4 72.72 
L 446.4 72.72 
L 446.4 72.72 
L 446.4 72.72 
L 446.4 72.72 
L 446.4 72.72 
L 446.4 72.72 
L 446.4 72.72 
L 446.4 72.72 
L 446.4 72.72 
L 446.4 72.72 
L 446.4 72.72 
L 446.4 72.72 
L 446.4 72.72 
L 446.4 72.72 
L 446.4 72.72 
L 446.4 72.72 
L 446.4 72.72 
L 446.4 72.72 
L 446.4 72.72 
L 446.4 72.72 
L 446.4 72.72 
L 446.4 72.72 
L 446.4 72.72 
L 446.4 72.72 
L 446.4 72.72 
L 446.4 72.72 
L 446.4 72.72 
L 446.4 72.72 
L 446.4 72.72 
L 446.4 72.72 
L 446.4 72.72 
L 446.4 72.72 
L 446.4 72.72 
L 446.4 72.72 
L 446.4 72.72 
L 446.4 72.72 
L 446.4 72.72 
L 446.4 72.72 
L 446.4 72.72 
L 446.4 72.72 
L 446.4 72.72 
L 446.4 72.72 
L 445.98675 72.794994 
L 445.573499 72.869988 
L 445.160249 72.944982 
L 444.746998 73.019976 
L 444.333748 73.094969 
L 443.920497 73.169963 
L 443.507247 73.244957 
L 443.093997 73.319951 
L 442.680746 73.394945 
L 442.267496 73.469939 
L 441.854245 73.544933 
L 441.440995 73.619927 
L 441.027744 73.694921 
L 440.614494 73.769915 
L 440.201244 73.844908 
L 439.787993 73.919902 
L 439.374743 73.994896 
L 438.961492 74.06989 
L 438.548242 74.144884 
L 438.134991 74.219878 
L 437.721741 74.294872 
L 437.308491 74.369866 
L 436.89524 74.44486 
L 436.48199 74.519853 
L 436.068739 74.594847 
L 435.655489 74.669841 
L 435.242238 74.744835 
L 434.828988 74.819829 
L 434.415738 74.894823 
L 434.002487 74.969817 
L 433.589237 75.044811 
L 433.175986 75.119805 
L 432.762736 75.194799 
L 432.349485 75.269792 
L 431.936235 75.344786 
L 431.522985 75.41978 
L 431.109734 75.494774 
L 430.696484 75.569768 
L 430.283233 75.644762 
L 429.869983 75.719756 
L 429.456732 75.79475 
L 429.043482 75.869744 
L 428.630232 75.944738 
L 428.216981 76.019731 
L 427.803731 76.094725 
L 427.39048 76.169719 
L 426.97723 76.244713 
L 426.563979 76.319707 
L 426.150729 76.394701 
L 425.737479 76.469695 
L 425.324228 76.544689 
L 424.910978 76.619683 
L 424.497727 76.694676 
L 424.084477 76.76967 
L 423.671227 76.844664 
L 423.257976 76.919658 
L 422.844726 76.994652 
L 422.431475 77.069646 
L 422.018225 77.14464 
L 421.604974 77.219634 
L 421.191724 77.294628 
L 420.778474 77.369622 
L 420.365223 77.444615 
L 419.951973 77.519609 
L 419.538722 77.594603 
L 419.125472 77.669597 
L 418.712221 77.744591 
L 418.298971 77.819585 
L 417.885721 77.894579 
L 417.47247 77.969573 
L 417.05922 78.044567 
L 416.645969 78.11956 
L 416.232719 78.194554 
L 415.819468 78.269548 
L 415.406218 78.344542 
L 414.992968 78.419536 
L 414.579717 78.49453 
L 414.166467 78.569524 
L 413.753216 78.644518 
L 413.339966 78.719512 
L 412.926715 78.794506 
L 412.513465 78.869499 
L 412.100215 78.944493 
L 411.686964 79.019487 
L 411.273714 79.094481 
L 410.860463 79.169475 
L 410.447213 79.244469 
L 410.033962 79.319463 
L 409.620712 79.394457 
L 409.207462 79.469451 
L 408.794211 79.544445 
L 408.380961 79.619438 
L 407.96771 79.694432 
L 407.55446 79.769426 
L 407.141209 79.84442 
L 406.727959 79.919414 
L 406.314709 79.994408 
L 405.901458 80.069402 
L 405.488208 80.144396 
L 405.074957 80.21939 
L 405.028653 79.95959 
L 404.983983 79.699505 
L 404.940947 79.439145 
L 404.899548 79.178519 
L 404.859787 78.917638 
L 404.821666 78.656513 
L 404.785187 78.395153 
L 404.750351 78.133569 
L 404.717159 77.871771 
L 404.685612 77.60977 
L 404.655713 77.347576 
L 404.627461 77.0852 
L 404.600858 76.822651 
L 404.575906 76.55994 
L 404.552604 76.297077 
L 404.530955 76.034073 
L 404.510959 75.770938 
L 404.492616 75.507683 
L 404.475928 75.244318 
L 404.460895 74.980853 
L 404.447517 74.717299 
L 404.435796 74.453666 
L 404.425732 74.189965 
L 404.417324 73.926206 
L 404.410574 73.662399 
L 404.405482 73.398554 
L 404.402047 73.134683 
L 404.400271 72.870796 
L 404.400152 72.606903 
L 404.401692 72.343014 
L 404.40489 72.07914 
L 404.409745 71.815291 
L 404.416258 71.551478 
L 404.424429 71.287712 
L 404.434257 71.024001 
L 404.445742 70.760358 
L 404.458882 70.496792 
L 404.473679 70.233314 
L 404.490131 69.969934 
L 404.508237 69.706662 
L 404.527997 69.44351 
L 404.54941 69.180487 
L 404.572476 68.917603 
L 404.597192 68.65487 
L 404.623559 68.392297 
L 404.651576 68.129895 
L 404.68124 67.867674 
L 404.712551 67.605645 
L 404.745508 67.343818 
L 404.78011 67.082203 
L 404.816355 66.82081 
L 404.854241 66.559651 
L 404.893767 66.298734 
L 404.934932 66.038072 
L 404.977734 65.777672 
L 405.022172 65.517547 
L 405.068242 65.257707 
L 405.115945 64.998161 
L 405.165277 64.738919 
L 405.216238 64.479993 
L 405.268824 64.221392 
L 405.323034 63.963127 
L 405.378865 63.705207 
L 405.436316 63.447644 
L 405.495384 63.190446 
L 405.556067 62.933624 
L 405.618363 62.677189 
L 405.682268 62.421151 
L 405.747781 62.165519 
L 405.814899 61.910303 
L 405.883619 61.655514 
L 405.953938 61.401163 
L 406.025854 61.147258 
L 406.099365 60.89381 
L 406.174466 60.640828 
L 406.251155 60.388324 
L 406.329429 60.136306 
L 406.409285 59.884786 
L 406.49072 59.633771 
L 406.573731 59.383274 
L 406.658313 59.133303 
L 406.744465 58.883869 
L 406.832182 58.63498 
L 406.921461 58.386648 
L 407.012299 58.138882 
L 407.104692 57.891691 
L 407.198636 57.645085 
L 407.294128 57.399075 
L 407.391163 57.15367 
L 407.489739 56.908879 
L 407.58985 56.664712 
L 407.691494 56.421179 
L 407.794666 56.17829 
L 407.899362 55.936054 
L 408.005578 55.69448 
L 408.113309 55.453578 
L 408.222553 55.213358 
L 408.333303 54.973829 
L 408.445556 54.735001 
L 408.559308 54.496883 
L 408.937714 54.679114 
L 409.316121 54.861345 
L 409.694528 55.043576 
L 410.072935 55.225808 
L 410.451342 55.408039 
L 410.829749 55.59027 
L 411.208156 55.772501 
L 411.586563 55.954732 
L 411.96497 56.136963 
L 412.343377 56.319195 
L 412.721784 56.501426 
L 413.100191 56.683657 
L 413.478598 56.865888 
L 413.857004 57.048119 
L 414.235411 57.230351 
L 414.613818 57.412582 
L 414.992225 57.594813 
L 415.370632 57.777044 
L 415.749039 57.959275 
L 416.127446 58.141506 
L 416.505853 58.323738 
L 416.88426 58.505969 
L 417.262667 58.6882 
L 417.641074 58.870431 
L 418.019481 59.052662 
L 418.397888 59.234893 
L 418.776295 59.417125 
L 419.154701 59.599356 
L 419.533108 59.781587 
L 419.911515 59.963818 
L 420.289922 60.146049 
L 420.668329 60.32828 
L 421.046736 60.510512 
L 421.425143 60.692743 
L 421.80355 60.874974 
L 422.181957 61.057205 
L 422.560364 61.239436 
L 422.938771 61.421667 
L 423.317178 61.603899 
L 423.695585 61.78613 
L 424.073991 61.968361 
L 424.452398 62.150592 
L 424.830805 62.332823 
L 425.209212 62.515054 
L 425.587619 62.697286 
L 425.966026 62.879517 
L 426.344433 63.061748 
L 426.72284 63.243979 
L 427.101247 63.42621 
L 427.479654 63.608441 
L 427.858061 63.790673 
L 428.236468 63.972904 
L 428.614875 64.155135 
L 428.993281 64.337366 
L 429.371688 64.519597 
L 429.750095 64.701829 
L 430.128502 64.88406 
L 430.506909 65.066291 
L 430.885316 65.248522 
L 431.263723 65.430753 
L 431.64213 65.612984 
L 432.020537 65.795216 
L 432.398944 65.977447 
L 432.777351 66.159678 
L 433.155758 66.341909 
L 433.534165 66.52414 
L 433.912571 66.706371 
L 434.290978 66.888603 
L 434.669385 67.070834 
L 435.047792 67.253065 
L 435.426199 67.435296 
L 435.804606 67.617527 
L 436.183013 67.799758 
L 436.56142 67.98199 
L 436.939827 68.164221 
L 437.318234 68.346452 
L 437.696641 68.528683 
L 438.075048 68.710914 
L 438.453455 68.893145 
L 438.831862 69.075377 
L 439.210268 69.257608 
L 439.588675 69.439839 
L 439.967082 69.62207 
L 440.345489 69.804301 
L 440.723896 69.986532 
L 441.102303 70.168764 
L 441.48071 70.350995 
L 441.859117 70.533226 
L 442.237524 70.715457 
L 442.615931 70.897688 
L 442.994338 71.079919 
L 443.372745 71.262151 
L 443.751152 71.444382 
L 444.129558 71.626613 
L 444.507965 71.808844 
L 444.886372 71.991075 
L 445.264779 72.173306 
L 445.643186 72.355538 
L 446.021593 72.537769 
z
" style="fill:#ffc400;fill-opacity:0.6;stroke:#4c4c4c;stroke-linejoin:miter;stroke-width:0.7;"/>
   </g>
   <g id="patch_9">
    <path clip-path="url(#p0ad12dc914)" d="M 446.4 72.72 
L 446.4 72.72 
L 446.4 72.72 
L 446.4 72.72 
L 446.4 72.72 
L 446.4 72.72 
L 446.4 72.72 
L 446.4 72.72 
L 446.4 72.72 
L 446.4 72.72 
L 446.4 72.72 
L 446.4 72.72 
L 446.4 72.72 
L 446.4 72.72 
L 446.4 72.72 
L 446.4 72.72 
L 446.4 72.72 
L 446.4 72.72 
L 446.4 72.72 
L 446.4 72.72 
L 446.4 72.72 
L 446.4 72.72 
L 446.4 72.72 
L 446.4 72.72 
L 446.4 72.72 
L 446.4 72.72 
L 446.4 72.72 
L 446.4 72.72 
L 446.4 72.72 
L 446.4 72.72 
L 446.4 72.72 
L 446.4 72.72 
L 446.4 72.72 
L 446.4 72.72 
L 446.4 72.72 
L 446.4 72.72 
L 446.4 72.72 
L 446.4 72.72 
L 446.4 72.72 
L 446.4 72.72 
L 446.4 72.72 
L 446.4 72.72 
L 446.4 72.72 
L 446.4 72.72 
L 446.4 72.72 
L 446.4 72.72 
L 446.4 72.72 
L 446.4 72.72 
L 446.4 72.72 
L 446.4 72.72 
L 446.4 72.72 
L 446.4 72.72 
L 446.4 72.72 
L 446.4 72.72 
L 446.4 72.72 
L 446.4 72.72 
L 446.4 72.72 
L 446.4 72.72 
L 446.4 72.72 
L 446.4 72.72 
L 446.4 72.72 
L 446.4 72.72 
L 446.4 72.72 
L 446.4 72.72 
L 446.4 72.72 
L 446.4 72.72 
L 446.4 72.72 
L 446.4 72.72 
L 446.4 72.72 
L 446.4 72.72 
L 446.4 72.72 
L 446.4 72.72 
L 446.4 72.72 
L 446.4 72.72 
L 446.4 72.72 
L 446.4 72.72 
L 446.4 72.72 
L 446.4 72.72 
L 446.4 72.72 
L 446.4 72.72 
L 446.4 72.72 
L 446.4 72.72 
L 446.4 72.72 
L 446.4 72.72 
L 446.4 72.72 
L 446.4 72.72 
L 446.4 72.72 
L 446.4 72.72 
L 446.4 72.72 
L 446.4 72.72 
L 446.4 72.72 
L 446.4 72.72 
L 446.4 72.72 
L 446.4 72.72 
L 446.4 72.72 
L 446.4 72.72 
L 446.4 72.72 
L 446.4 72.72 
L 446.4 72.72 
L 446.4 72.72 
L 446.4 72.72 
L 446.20272 72.856676 
L 446.005439 72.993353 
L 445.808159 73.130029 
L 445.610878 73.266705 
L 445.413598 73.403381 
L 445.216317 73.540058 
L 445.019037 73.676734 
L 444.821756 73.81341 
L 444.624476 73.950087 
L 444.427195 74.086763 
L 444.229915 74.223439 
L 444.032634 74.360115 
L 443.835354 74.496792 
L 443.638073 74.633468 
L 443.440793 74.770144 
L 443.243512 74.90682 
L 443.046232 75.043497 
L 442.848951 75.180173 
L 442.651671 75.316849 
L 442.45439 75.453526 
L 442.25711 75.590202 
L 442.059829 75.726878 
L 441.862549 75.863554 
L 441.665268 76.000231 
L 441.467988 76.136907 
L 441.270707 76.273583 
L 441.073427 76.41026 
L 440.876146 76.546936 
L 440.678866 76.683612 
L 440.481585 76.820288 
L 440.284305 76.956965 
L 440.087024 77.093641 
L 439.889744 77.230317 
L 439.692463 77.366993 
L 439.495183 77.50367 
L 439.297902 77.640346 
L 439.100622 77.777022 
L 438.903341 77.913699 
L 438.706061 78.050375 
L 438.50878 78.187051 
L 438.3115 78.323727 
L 438.114219 78.460404 
L 437.916939 78.59708 
L 437.719658 78.733756 
L 437.522378 78.870433 
L 437.325097 79.007109 
L 437.127817 79.143785 
L 436.930536 79.280461 
L 436.733256 79.417138 
L 436.535975 79.553814 
L 436.338695 79.69049 
L 436.141414 79.827166 
L 435.944134 79.963843 
L 435.746853 80.100519 
L 435.549573 80.237195 
L 435.352292 80.373872 
L 435.155012 80.510548 
L 434.957731 80.647224 
L 434.760451 80.7839 
L 434.56317 80.920577 
L 434.36589 81.057253 
L 434.168609 81.193929 
L 433.971329 81.330606 
L 433.774048 81.467282 
L 433.576768 81.603958 
L 433.379487 81.740634 
L 433.182207 81.877311 
L 432.984926 82.013987 
L 432.787646 82.150663 
L 432.590365 82.287339 
L 432.393085 82.424016 
L 432.195804 82.560692 
L 431.998524 82.697368 
L 431.801243 82.834045 
L 431.603963 82.970721 
L 431.406682 83.107397 
L 431.209402 83.244073 
L 431.012121 83.38075 
L 430.814841 83.517426 
L 430.61756 83.654102 
L 430.42028 83.790779 
L 430.222999 83.927455 
L 430.025719 84.064131 
L 429.828438 84.200807 
L 429.631158 84.337484 
L 429.433877 84.47416 
L 429.236597 84.610836 
L 429.039316 84.747512 
L 428.842036 84.884189 
L 428.644755 85.020865 
L 428.447475 85.157541 
L 428.250194 85.294218 
L 428.052914 85.430894 
L 427.855633 85.56757 
L 427.658353 85.704246 
L 427.461072 85.840923 
L 427.263792 85.977599 
L 427.066511 86.114275 
L 426.869231 86.250952 
L 426.67195 86.387628 
L 426.650505 86.356622 
L 426.629109 86.325583 
L 426.607762 86.29451 
L 426.586464 86.263404 
L 426.565214 86.232264 
L 426.544014 86.201091 
L 426.522862 86.169885 
L 426.50176 86.138645 
L 426.480706 86.107373 
L 426.459702 86.076067 
L 426.438747 86.044728 
L 426.417841 86.013357 
L 426.396985 85.981953 
L 426.376178 85.950516 
L 426.35542 85.919046 
L 426.334712 85.887544 
L 426.314053 85.856009 
L 426.293444 85.824442 
L 426.272884 85.792842 
L 426.252374 85.761211 
L 426.231914 85.729547 
L 426.211504 85.697851 
L 426.191143 85.666123 
L 426.170832 85.634363 
L 426.150571 85.602571 
L 426.13036 85.570747 
L 426.110199 85.538892 
L 426.090089 85.507005 
L 426.070028 85.475087 
L 426.050017 85.443137 
L 426.030057 85.411155 
L 426.010147 85.379143 
L 425.990287 85.347099 
L 425.970478 85.315024 
L 425.950719 85.282917 
L 425.93101 85.25078 
L 425.911352 85.218612 
L 425.891745 85.186413 
L 425.872188 85.154184 
L 425.852682 85.121923 
L 425.833226 85.089632 
L 425.813821 85.057311 
L 425.794467 85.024959 
L 425.775164 84.992577 
L 425.755912 84.960164 
L 425.73671 84.927722 
L 425.71756 84.895249 
L 425.698461 84.862746 
L 425.679413 84.830213 
L 425.660415 84.79765 
L 425.64147 84.765058 
L 425.622575 84.732435 
L 425.603731 84.699783 
L 425.584939 84.667102 
L 425.566198 84.634391 
L 425.547509 84.601651 
L 425.528871 84.568881 
L 425.510285 84.536082 
L 425.49175 84.503254 
L 425.473267 84.470397 
L 425.454835 84.437511 
L 425.436455 84.404596 
L 425.418127 84.371652 
L 425.39985 84.338679 
L 425.381626 84.305678 
L 425.363453 84.272648 
L 425.345332 84.23959 
L 425.327263 84.206503 
L 425.309246 84.173388 
L 425.291281 84.140244 
L 425.273368 84.107073 
L 425.255508 84.073873 
L 425.237699 84.040646 
L 425.219943 84.00739 
L 425.202239 83.974106 
L 425.184587 83.940795 
L 425.166987 83.907456 
L 425.14944 83.87409 
L 425.131946 83.840696 
L 425.114504 83.807274 
L 425.097114 83.773825 
L 425.079777 83.740349 
L 425.062493 83.706846 
L 425.045261 83.673316 
L 425.028082 83.639758 
L 425.010956 83.606174 
L 424.993882 83.572562 
L 424.976861 83.538924 
L 424.959893 83.50526 
L 424.942978 83.471568 
L 424.926116 83.437851 
L 424.909307 83.404106 
L 424.892551 83.370336 
L 424.875848 83.336539 
L 424.859198 83.302715 
L 424.842602 83.268866 
L 424.826058 83.234991 
L 424.809568 83.20109 
L 424.793131 83.167163 
L 424.776747 83.13321 
L 424.99298 83.029078 
L 425.209212 82.924946 
L 425.425445 82.820813 
L 425.641677 82.716681 
L 425.85791 82.612549 
L 426.074142 82.508417 
L 426.290375 82.404285 
L 426.506607 82.300153 
L 426.72284 82.196021 
L 426.939072 82.091889 
L 427.155305 81.987757 
L 427.371538 81.883625 
L 427.58777 81.779492 
L 427.804003 81.67536 
L 428.020235 81.571228 
L 428.236468 81.467096 
L 428.4527 81.362964 
L 428.668933 81.258832 
L 428.885165 81.1547 
L 429.101398 81.050568 
L 429.31763 80.946436 
L 429.533863 80.842304 
L 429.750095 80.738171 
L 429.966328 80.634039 
L 430.18256 80.529907 
L 430.398793 80.425775 
L 430.615025 80.321643 
L 430.831258 80.217511 
L 431.04749 80.113379 
L 431.263723 80.009247 
L 431.479956 79.905115 
L 431.696188 79.800983 
L 431.912421 79.696851 
L 432.128653 79.592718 
L 432.344886 79.488586 
L 432.561118 79.384454 
L 432.777351 79.280322 
L 432.993583 79.17619 
L 433.209816 79.072058 
L 433.426048 78.967926 
L 433.642281 78.863794 
L 433.858513 78.759662 
L 434.074746 78.65553 
L 434.290978 78.551397 
L 434.507211 78.447265 
L 434.723443 78.343133 
L 434.939676 78.239001 
L 435.155909 78.134869 
L 435.372141 78.030737 
L 435.588374 77.926605 
L 435.804606 77.822473 
L 436.020839 77.718341 
L 436.237071 77.614209 
L 436.453304 77.510076 
L 436.669536 77.405944 
L 436.885769 77.301812 
L 437.102001 77.19768 
L 437.318234 77.093548 
L 437.534466 76.989416 
L 437.750699 76.885284 
L 437.966931 76.781152 
L 438.183164 76.67702 
L 438.399396 76.572888 
L 438.615629 76.468756 
L 438.831862 76.364623 
L 439.048094 76.260491 
L 439.264327 76.156359 
L 439.480559 76.052227 
L 439.696792 75.948095 
L 439.913024 75.843963 
L 440.129257 75.739831 
L 440.345489 75.635699 
L 440.561722 75.531567 
L 440.777954 75.427435 
L 440.994187 75.323302 
L 441.210419 75.21917 
L 441.426652 75.115038 
L 441.642884 75.010906 
L 441.859117 74.906774 
L 442.075349 74.802642 
L 442.291582 74.69851 
L 442.507814 74.594378 
L 442.724047 74.490246 
L 442.94028 74.386114 
L 443.156512 74.281981 
L 443.372745 74.177849 
L 443.588977 74.073717 
L 443.80521 73.969585 
L 444.021442 73.865453 
L 444.237675 73.761321 
L 444.453907 73.657189 
L 444.67014 73.553057 
L 444.886372 73.448925 
L 445.102605 73.344793 
L 445.318837 73.24066 
L 445.53507 73.136528 
L 445.751302 73.032396 
L 445.967535 72.928264 
L 446.183767 72.824132 
z
" style="fill:#29ffce;fill-opacity:0.6;stroke:#4c4c4c;stroke-linejoin:miter;stroke-width:0.7;"/>
   </g>
   <g id="patch_10">
    <path clip-path="url(#p0ad12dc914)" d="M 446.4 72.72 
L 446.4 72.72 
L 446.4 72.72 
L 446.4 72.72 
L 446.4 72.72 
L 446.4 72.72 
L 446.4 72.72 
L 446.4 72.72 
L 446.4 72.72 
L 446.4 72.72 
L 446.4 72.72 
L 446.4 72.72 
L 446.4 72.72 
L 446.4 72.72 
L 446.4 72.72 
L 446.4 72.72 
L 446.4 72.72 
L 446.4 72.72 
L 446.4 72.72 
L 446.4 72.72 
L 446.4 72.72 
L 446.4 72.72 
L 446.4 72.72 
L 446.4 72.72 
L 446.4 72.72 
L 446.4 72.72 
L 446.4 72.72 
L 446.4 72.72 
L 446.4 72.72 
L 446.4 72.72 
L 446.4 72.72 
L 446.4 72.72 
L 446.4 72.72 
L 446.4 72.72 
L 446.4 72.72 
L 446.4 72.72 
L 446.4 72.72 
L 446.4 72.72 
L 446.4 72.72 
L 446.4 72.72 
L 446.4 72.72 
L 446.4 72.72 
L 446.4 72.72 
L 446.4 72.72 
L 446.4 72.72 
L 446.4 72.72 
L 446.4 72.72 
L 446.4 72.72 
L 446.4 72.72 
L 446.4 72.72 
L 446.4 72.72 
L 446.4 72.72 
L 446.4 72.72 
L 446.4 72.72 
L 446.4 72.72 
L 446.4 72.72 
L 446.4 72.72 
L 446.4 72.72 
L 446.4 72.72 
L 446.4 72.72 
L 446.4 72.72 
L 446.4 72.72 
L 446.4 72.72 
L 446.4 72.72 
L 446.4 72.72 
L 446.4 72.72 
L 446.4 72.72 
L 446.4 72.72 
L 446.4 72.72 
L 446.4 72.72 
L 446.4 72.72 
L 446.4 72.72 
L 446.4 72.72 
L 446.4 72.72 
L 446.4 72.72 
L 446.4 72.72 
L 446.4 72.72 
L 446.4 72.72 
L 446.4 72.72 
L 446.4 72.72 
L 446.4 72.72 
L 446.4 72.72 
L 446.4 72.72 
L 446.4 72.72 
L 446.4 72.72 
L 446.4 72.72 
L 446.4 72.72 
L 446.4 72.72 
L 446.4 72.72 
L 446.4 72.72 
L 446.4 72.72 
L 446.4 72.72 
L 446.4 72.72 
L 446.4 72.72 
L 446.4 72.72 
L 446.4 72.72 
L 446.4 72.72 
L 446.4 72.72 
L 446.4 72.72 
L 446.4 72.72 
L 446.4 72.72 
L 446.450252 73.015761 
L 446.500504 73.311523 
L 446.550756 73.607284 
L 446.601007 73.903045 
L 446.651259 74.198807 
L 446.701511 74.494568 
L 446.751763 74.790329 
L 446.802015 75.08609 
L 446.852267 75.381852 
L 446.902519 75.677613 
L 446.952771 75.973374 
L 447.003022 76.269136 
L 447.053274 76.564897 
L 447.103526 76.860658 
L 447.153778 77.15642 
L 447.20403 77.452181 
L 447.254282 77.747942 
L 447.304534 78.043703 
L 447.354785 78.339465 
L 447.405037 78.635226 
L 447.455289 78.930987 
L 447.505541 79.226749 
L 447.555793 79.52251 
L 447.606045 79.818271 
L 447.656297 80.114033 
L 447.706549 80.409794 
L 447.7568 80.705555 
L 447.807052 81.001317 
L 447.857304 81.297078 
L 447.907556 81.592839 
L 447.957808 81.8886 
L 448.00806 82.184362 
L 448.058312 82.480123 
L 448.108563 82.775884 
L 448.158815 83.071646 
L 448.209067 83.367407 
L 448.259319 83.663168 
L 448.309571 83.95893 
L 448.359823 84.254691 
L 448.410075 84.550452 
L 448.460327 84.846214 
L 448.510578 85.141975 
L 448.56083 85.437736 
L 448.611082 85.733497 
L 448.661334 86.029259 
L 448.711586 86.32502 
L 448.761838 86.620781 
L 448.81209 86.916543 
L 448.862341 87.212304 
L 448.912593 87.508065 
L 448.962845 87.803827 
L 449.013097 88.099588 
L 449.063349 88.395349 
L 449.113601 88.69111 
L 449.163853 88.986872 
L 449.214105 89.282633 
L 449.264356 89.578394 
L 449.314608 89.874156 
L 449.36486 90.169917 
L 449.415112 90.465678 
L 449.465364 90.76144 
L 449.515616 91.057201 
L 449.565868 91.352962 
L 449.616119 91.648724 
L 449.666371 91.944485 
L 449.716623 92.240246 
L 449.766875 92.536007 
L 449.817127 92.831769 
L 449.867379 93.12753 
L 449.917631 93.423291 
L 449.967883 93.719053 
L 450.018134 94.014814 
L 450.068386 94.310575 
L 450.118638 94.606337 
L 450.16889 94.902098 
L 450.219142 95.197859 
L 450.269394 95.493621 
L 450.319646 95.789382 
L 450.369897 96.085143 
L 450.420149 96.380904 
L 450.470401 96.676666 
L 450.520653 96.972427 
L 450.570905 97.268188 
L 450.621157 97.56395 
L 450.671409 97.859711 
L 450.721661 98.155472 
L 450.771912 98.451234 
L 450.822164 98.746995 
L 450.872416 99.042756 
L 450.922668 99.338517 
L 450.97292 99.634279 
L 451.023172 99.93004 
L 451.073424 100.225801 
L 451.123675 100.521563 
L 451.173927 100.817324 
L 451.224179 101.113085 
L 451.274431 101.408847 
L 451.324683 101.704608 
L 451.374935 102.000369 
L 451.425187 102.296131 
L 451.309003 102.315636 
L 451.192744 102.334686 
L 451.07641 102.353278 
L 450.960005 102.371414 
L 450.843529 102.389092 
L 450.726985 102.406313 
L 450.610374 102.423076 
L 450.493698 102.439381 
L 450.376959 102.455228 
L 450.260159 102.470616 
L 450.143299 102.485546 
L 450.026382 102.500016 
L 449.909408 102.514027 
L 449.79238 102.527579 
L 449.6753 102.540671 
L 449.55817 102.553303 
L 449.440991 102.565475 
L 449.323765 102.577187 
L 449.206494 102.588438 
L 449.089179 102.599229 
L 448.971823 102.609559 
L 448.854428 102.619428 
L 448.736994 102.628836 
L 448.619525 102.637782 
L 448.502021 102.646268 
L 448.384485 102.654292 
L 448.266919 102.661854 
L 448.149323 102.668954 
L 448.031701 102.675593 
L 447.914053 102.68177 
L 447.796382 102.687484 
L 447.67869 102.692737 
L 447.560977 102.697527 
L 447.443247 102.701855 
L 447.325501 102.705721 
L 447.20774 102.709124 
L 447.089968 102.712065 
L 446.972184 102.714543 
L 446.854392 102.716559 
L 446.736592 102.718112 
L 446.618788 102.719202 
L 446.50098 102.71983 
L 446.38317 102.719995 
L 446.265361 102.719698 
L 446.147554 102.718938 
L 446.02975 102.717715 
L 445.911953 102.71603 
L 445.794163 102.713882 
L 445.676382 102.711272 
L 445.558612 102.708199 
L 445.440856 102.704663 
L 445.323114 102.700666 
L 445.205389 102.696206 
L 445.087682 102.691283 
L 444.969995 102.685899 
L 444.852331 102.680052 
L 444.73469 102.673743 
L 444.617075 102.666973 
L 444.499488 102.65974 
L 444.38193 102.652046 
L 444.264403 102.643891 
L 444.146909 102.635273 
L 444.029449 102.626195 
L 443.912027 102.616655 
L 443.794642 102.606654 
L 443.677298 102.596193 
L 443.559996 102.58527 
L 443.442737 102.573887 
L 443.325524 102.562044 
L 443.208359 102.549741 
L 443.091243 102.536977 
L 442.974178 102.523754 
L 442.857165 102.510071 
L 442.740208 102.495929 
L 442.623306 102.481327 
L 442.506463 102.466267 
L 442.38968 102.450747 
L 442.272959 102.43477 
L 442.156302 102.418334 
L 442.03971 102.40144 
L 441.923185 102.384088 
L 441.806729 102.366279 
L 441.690344 102.348013 
L 441.574032 102.32929 
L 441.457794 102.31011 
L 441.341632 102.290474 
L 441.225548 102.270382 
L 441.109545 102.249834 
L 440.993622 102.228831 
L 440.877783 102.207372 
L 440.76203 102.185459 
L 440.646363 102.163092 
L 440.530785 102.14027 
L 440.415297 102.116995 
L 440.299902 102.093267 
L 440.184601 102.069085 
L 440.069395 102.044451 
L 439.954287 102.019365 
L 439.839279 101.993827 
L 439.724372 101.967837 
L 439.791128 101.675359 
L 439.857885 101.382881 
L 439.924641 101.090402 
L 439.991397 100.797924 
L 440.058153 100.505445 
L 440.12491 100.212967 
L 440.191666 99.920489 
L 440.258422 99.62801 
L 440.325179 99.335532 
L 440.391935 99.043054 
L 440.458691 98.750575 
L 440.525447 98.458097 
L 440.592204 98.165619 
L 440.65896 97.87314 
L 440.725716 97.580662 
L 440.792472 97.288183 
L 440.859229 96.995705 
L 440.925985 96.703227 
L 440.992741 96.410748 
L 441.059498 96.11827 
L 441.126254 95.825792 
L 441.19301 95.533313 
L 441.259766 95.240835 
L 441.326523 94.948356 
L 441.393279 94.655878 
L 441.460035 94.3634 
L 441.526792 94.070921 
L 441.593548 93.778443 
L 441.660304 93.485965 
L 441.72706 93.193486 
L 441.793817 92.901008 
L 441.860573 92.608529 
L 441.927329 92.316051 
L 441.994086 92.023573 
L 442.060842 91.731094 
L 442.127598 91.438616 
L 442.194354 91.146138 
L 442.261111 90.853659 
L 442.327867 90.561181 
L 442.394623 90.268702 
L 442.461379 89.976224 
L 442.528136 89.683746 
L 442.594892 89.391267 
L 442.661648 89.098789 
L 442.728405 88.806311 
L 442.795161 88.513832 
L 442.861917 88.221354 
L 442.928673 87.928875 
L 442.99543 87.636397 
L 443.062186 87.343919 
L 443.128942 87.05144 
L 443.195699 86.758962 
L 443.262455 86.466484 
L 443.329211 86.174005 
L 443.395967 85.881527 
L 443.462724 85.589048 
L 443.52948 85.29657 
L 443.596236 85.004092 
L 443.662993 84.711613 
L 443.729749 84.419135 
L 443.796505 84.126657 
L 443.863261 83.834178 
L 443.930018 83.5417 
L 443.996774 83.249221 
L 444.06353 82.956743 
L 444.130286 82.664265 
L 444.197043 82.371786 
L 444.263799 82.079308 
L 444.330555 81.78683 
L 444.397312 81.494351 
L 444.464068 81.201873 
L 444.530824 80.909394 
L 444.59758 80.616916 
L 444.664337 80.324438 
L 444.731093 80.031959 
L 444.797849 79.739481 
L 444.864606 79.447003 
L 444.931362 79.154524 
L 444.998118 78.862046 
L 445.064874 78.569567 
L 445.131631 78.277089 
L 445.198387 77.984611 
L 445.265143 77.692132 
L 445.3319 77.399654 
L 445.398656 77.107176 
L 445.465412 76.814697 
L 445.532168 76.522219 
L 445.598925 76.22974 
L 445.665681 75.937262 
L 445.732437 75.644784 
L 445.799193 75.352305 
L 445.86595 75.059827 
L 445.932706 74.767349 
L 445.999462 74.47487 
L 446.066219 74.182392 
L 446.132975 73.889913 
L 446.199731 73.597435 
L 446.266487 73.304957 
L 446.333244 73.012478 
z
" style="fill:#7dff7a;fill-opacity:0.6;stroke:#4c4c4c;stroke-linejoin:miter;stroke-width:0.7;"/>
   </g>
   <g id="patch_11">
    <path clip-path="url(#p0ad12dc914)" d="M 446.4 72.72 
L 446.4 72.72 
L 446.4 72.72 
L 446.4 72.72 
L 446.4 72.72 
L 446.4 72.72 
L 446.4 72.72 
L 446.4 72.72 
L 446.4 72.72 
L 446.4 72.72 
L 446.4 72.72 
L 446.4 72.72 
L 446.4 72.72 
L 446.4 72.72 
L 446.4 72.72 
L 446.4 72.72 
L 446.4 72.72 
L 446.4 72.72 
L 446.4 72.72 
L 446.4 72.72 
L 446.4 72.72 
L 446.4 72.72 
L 446.4 72.72 
L 446.4 72.72 
L 446.4 72.72 
L 446.4 72.72 
L 446.4 72.72 
L 446.4 72.72 
L 446.4 72.72 
L 446.4 72.72 
L 446.4 72.72 
L 446.4 72.72 
L 446.4 72.72 
L 446.4 72.72 
L 446.4 72.72 
L 446.4 72.72 
L 446.4 72.72 
L 446.4 72.72 
L 446.4 72.72 
L 446.4 72.72 
L 446.4 72.72 
L 446.4 72.72 
L 446.4 72.72 
L 446.4 72.72 
L 446.4 72.72 
L 446.4 72.72 
L 446.4 72.72 
L 446.4 72.72 
L 446.4 72.72 
L 446.4 72.72 
L 446.4 72.72 
L 446.4 72.72 
L 446.4 72.72 
L 446.4 72.72 
L 446.4 72.72 
L 446.4 72.72 
L 446.4 72.72 
L 446.4 72.72 
L 446.4 72.72 
L 446.4 72.72 
L 446.4 72.72 
L 446.4 72.72 
L 446.4 72.72 
L 446.4 72.72 
L 446.4 72.72 
L 446.4 72.72 
L 446.4 72.72 
L 446.4 72.72 
L 446.4 72.72 
L 446.4 72.72 
L 446.4 72.72 
L 446.4 72.72 
L 446.4 72.72 
L 446.4 72.72 
L 446.4 72.72 
L 446.4 72.72 
L 446.4 72.72 
L 446.4 72.72 
L 446.4 72.72 
L 446.4 72.72 
L 446.4 72.72 
L 446.4 72.72 
L 446.4 72.72 
L 446.4 72.72 
L 446.4 72.72 
L 446.4 72.72 
L 446.4 72.72 
L 446.4 72.72 
L 446.4 72.72 
L 446.4 72.72 
L 446.4 72.72 
L 446.4 72.72 
L 446.4 72.72 
L 446.4 72.72 
L 446.4 72.72 
L 446.4 72.72 
L 446.4 72.72 
L 446.4 72.72 
L 446.4 72.72 
L 446.4 72.72 
L 446.4 72.72 
L 446.778613 73.015046 
L 447.157227 73.310091 
L 447.53584 73.605137 
L 447.914453 73.900183 
L 448.293066 74.195229 
L 448.67168 74.490274 
L 449.050293 74.78532 
L 449.428906 75.080366 
L 449.80752 75.375412 
L 450.186133 75.670457 
L 450.564746 75.965503 
L 450.943359 76.260549 
L 451.321973 76.555595 
L 451.700586 76.85064 
L 452.079199 77.145686 
L 452.457812 77.440732 
L 452.836426 77.735777 
L 453.215039 78.030823 
L 453.593652 78.325869 
L 453.972266 78.620915 
L 454.350879 78.91596 
L 454.729492 79.211006 
L 455.108105 79.506052 
L 455.486719 79.801098 
L 455.865332 80.096143 
L 456.243945 80.391189 
L 456.622559 80.686235 
L 457.001172 80.981281 
L 457.379785 81.276326 
L 457.758398 81.571372 
L 458.137012 81.866418 
L 458.515625 82.161463 
L 458.894238 82.456509 
L 459.272851 82.751555 
L 459.651465 83.046601 
L 460.030078 83.341646 
L 460.408691 83.636692 
L 460.787305 83.931738 
L 461.165918 84.226784 
L 461.544531 84.521829 
L 461.923144 84.816875 
L 462.301758 85.111921 
L 462.680371 85.406967 
L 463.058984 85.702012 
L 463.437598 85.997058 
L 463.816211 86.292104 
L 464.194824 86.58715 
L 464.573437 86.882195 
L 464.952051 87.177241 
L 465.330664 87.472287 
L 465.709277 87.767332 
L 466.08789 88.062378 
L 466.466504 88.357424 
L 466.845117 88.65247 
L 467.22373 88.947515 
L 467.602344 89.242561 
L 467.980957 89.537607 
L 468.35957 89.832653 
L 468.738183 90.127698 
L 469.116797 90.422744 
L 469.49541 90.71779 
L 469.874023 91.012836 
L 470.252637 91.307881 
L 470.63125 91.602927 
L 471.009863 91.897973 
L 471.388476 92.193018 
L 471.76709 92.488064 
L 472.145703 92.78311 
L 472.524316 93.078156 
L 472.90293 93.373201 
L 473.281543 93.668247 
L 473.660156 93.963293 
L 474.038769 94.258339 
L 474.417383 94.553384 
L 474.795996 94.84843 
L 475.174609 95.143476 
L 475.553222 95.438522 
L 475.931836 95.733567 
L 476.310449 96.028613 
L 476.689062 96.323659 
L 477.067676 96.618704 
L 477.446289 96.91375 
L 477.824902 97.208796 
L 478.203515 97.503842 
L 478.582129 97.798887 
L 478.960742 98.093933 
L 479.339355 98.388979 
L 479.717969 98.684025 
L 480.096582 98.97907 
L 480.475195 99.274116 
L 480.853808 99.569162 
L 481.232422 99.864208 
L 481.611035 100.159253 
L 481.989648 100.454299 
L 482.368261 100.749345 
L 482.746875 101.04439 
L 483.125488 101.339436 
L 483.504101 101.634482 
L 483.882715 101.929528 
L 484.261328 102.224573 
L 484.191704 102.3137 
L 484.121871 102.402662 
L 484.051828 102.49146 
L 483.981576 102.580092 
L 483.911116 102.668559 
L 483.840447 102.756859 
L 483.769571 102.844993 
L 483.698487 102.932959 
L 483.627196 103.020757 
L 483.555698 103.108388 
L 483.483994 103.195849 
L 483.412084 103.283142 
L 483.339969 103.370265 
L 483.267648 103.457217 
L 483.195123 103.543999 
L 483.122394 103.63061 
L 483.04946 103.717049 
L 482.976324 103.803316 
L 482.902984 103.889411 
L 482.829441 103.975332 
L 482.755697 104.06108 
L 482.68175 104.146654 
L 482.607602 104.232054 
L 482.533253 104.317279 
L 482.458704 104.402328 
L 482.383954 104.487201 
L 482.309004 104.571898 
L 482.233855 104.656418 
L 482.158508 104.740761 
L 482.082961 104.824926 
L 482.007217 104.908913 
L 481.931275 104.992721 
L 481.855135 105.07635 
L 481.778799 105.159799 
L 481.702267 105.243068 
L 481.625538 105.326157 
L 481.548614 105.409065 
L 481.471495 105.491791 
L 481.394181 105.574335 
L 481.316672 105.656697 
L 481.23897 105.738876 
L 481.161075 105.820871 
L 481.082986 105.902683 
L 481.004705 105.984311 
L 480.926232 106.065754 
L 480.847567 106.147012 
L 480.768711 106.228084 
L 480.689664 106.30897 
L 480.610427 106.38967 
L 480.531 106.470183 
L 480.451383 106.550509 
L 480.371577 106.630646 
L 480.291583 106.710596 
L 480.211401 106.790357 
L 480.13103 106.869928 
L 480.050473 106.94931 
L 479.969729 107.028502 
L 479.888798 107.107504 
L 479.807682 107.186314 
L 479.72638 107.264933 
L 479.644893 107.343361 
L 479.563221 107.421596 
L 479.481365 107.499639 
L 479.399326 107.577488 
L 479.317103 107.655144 
L 479.234698 107.732606 
L 479.152111 107.809874 
L 479.069341 107.886947 
L 478.98639 107.963824 
L 478.903259 108.040506 
L 478.819947 108.116992 
L 478.736454 108.193282 
L 478.652783 108.269374 
L 478.568932 108.345269 
L 478.484903 108.420967 
L 478.400695 108.496466 
L 478.31631 108.571766 
L 478.231748 108.646868 
L 478.147009 108.72177 
L 478.062094 108.796472 
L 477.977003 108.870974 
L 477.891737 108.945275 
L 477.806295 109.019375 
L 477.72068 109.093273 
L 477.634891 109.16697 
L 477.548928 109.240464 
L 477.462792 109.313756 
L 477.376484 109.386844 
L 477.290004 109.459729 
L 477.203352 109.532409 
L 477.11653 109.604886 
L 477.029537 109.677158 
L 476.942373 109.749224 
L 476.855041 109.821085 
L 476.767539 109.89274 
L 476.679868 109.964188 
L 476.59203 110.03543 
L 476.504024 110.106465 
L 476.41585 110.177292 
L 476.32751 110.247911 
L 476.028235 109.872632 
L 475.72896 109.497353 
L 475.429685 109.122074 
L 475.13041 108.746795 
L 474.831135 108.371516 
L 474.53186 107.996236 
L 474.232585 107.620957 
L 473.93331 107.245678 
L 473.634035 106.870399 
L 473.334759 106.49512 
L 473.035484 106.119841 
L 472.736209 105.744562 
L 472.436934 105.369283 
L 472.137659 104.994004 
L 471.838384 104.618724 
L 471.539109 104.243445 
L 471.239834 103.868166 
L 470.940559 103.492887 
L 470.641283 103.117608 
L 470.342008 102.742329 
L 470.042733 102.36705 
L 469.743458 101.991771 
L 469.444183 101.616492 
L 469.144908 101.241212 
L 468.845633 100.865933 
L 468.546358 100.490654 
L 468.247083 100.115375 
L 467.947808 99.740096 
L 467.648532 99.364817 
L 467.349257 98.989538 
L 467.049982 98.614259 
L 466.750707 98.23898 
L 466.451432 97.8637 
L 466.152157 97.488421 
L 465.852882 97.113142 
L 465.553607 96.737863 
L 465.254332 96.362584 
L 464.955057 95.987305 
L 464.655781 95.612026 
L 464.356506 95.236747 
L 464.057231 94.861468 
L 463.757956 94.486188 
L 463.458681 94.110909 
L 463.159406 93.73563 
L 462.860131 93.360351 
L 462.560856 92.985072 
L 462.261581 92.609793 
L 461.962305 92.234514 
L 461.66303 91.859235 
L 461.363755 91.483956 
L 461.06448 91.108676 
L 460.765205 90.733397 
L 460.46593 90.358118 
L 460.166655 89.982839 
L 459.86738 89.60756 
L 459.568105 89.232281 
L 459.26883 88.857002 
L 458.969554 88.481723 
L 458.670279 88.106444 
L 458.371004 87.731164 
L 458.071729 87.355885 
L 457.772454 86.980606 
L 457.473179 86.605327 
L 457.173904 86.230048 
L 456.874629 85.854769 
L 456.575354 85.47949 
L 456.276078 85.104211 
L 455.976803 84.728932 
L 455.677528 84.353652 
L 455.378253 83.978373 
L 455.078978 83.603094 
L 454.779703 83.227815 
L 454.480428 82.852536 
L 454.181153 82.477257 
L 453.881878 82.101978 
L 453.582603 81.726699 
L 453.283327 81.35142 
L 452.984052 80.97614 
L 452.684777 80.600861 
L 452.385502 80.225582 
L 452.086227 79.850303 
L 451.786952 79.475024 
L 451.487677 79.099745 
L 451.188402 78.724466 
L 450.889127 78.349187 
L 450.589851 77.973908 
L 450.290576 77.598628 
L 449.991301 77.223349 
L 449.692026 76.84807 
L 449.392751 76.472791 
L 449.093476 76.097512 
L 448.794201 75.722233 
L 448.494926 75.346954 
L 448.195651 74.971675 
L 447.896376 74.596396 
L 447.5971 74.221116 
L 447.297825 73.845837 
L 446.99855 73.470558 
L 446.699275 73.095279 
z
" style="fill:#ff6800;fill-opacity:0.6;stroke:#4c4c4c;stroke-linejoin:miter;stroke-width:0.7;"/>
   </g>
   <g id="patch_12">
    <path d="M 500.4 72.72 
C 500.4 65.628785 499.003185 58.606523 496.289495 52.055095 
C 493.575804 45.503666 489.598012 39.55048 484.583766 34.536234 
C 479.56952 29.521988 473.616334 25.544196 467.064905 22.830505 
C 460.513477 20.116815 453.491215 18.72 446.4 18.72 
C 439.308785 18.72 432.286523 20.116815 425.735095 22.830505 
C 419.183666 25.544196 413.23048 29.521988 408.216234 34.536234 
C 403.201988 39.55048 399.224196 45.503666 396.510505 52.055095 
C 393.796815 58.606523 392.4 65.628785 392.4 72.72 
C 392.4 79.811215 393.796815 86.833477 396.510505 93.384905 
C 399.224196 99.936334 403.201988 105.88952 408.216234 110.903766 
C 413.23048 115.918012 419.183666 119.895804 425.735095 122.609495 
C 432.286523 125.323185 439.308785 126.72 446.4 126.72 
C 453.491215 126.72 460.513477 125.323185 467.064905 122.609495 
C 473.616334 119.895804 479.56952 115.918012 484.583766 110.903766 
C 489.598012 105.88952 493.575804 99.936334 496.289495 93.384905 
C 499.003185 86.833477 500.4 79.811215 500.4 72.72 
" style="fill:none;stroke:#11557c;stroke-linecap:square;stroke-linejoin:miter;"/>
   </g>
  </g>
 </g>
 <defs>
  <clipPath id="p6080645479">
   <rect height="137.680001" width="720" x="0" y="3.16"/>
  </clipPath>
  <clipPath id="p0ad12dc914">
   <path d="M 500.4 72.72 
C 500.4 65.628785 499.003185 58.606523 496.289495 52.055095 
C 493.575804 45.503666 489.598012 39.55048 484.583766 34.536234 
C 479.56952 29.521988 473.616334 25.544196 467.064905 22.830505 
C 460.513477 20.116815 453.491215 18.72 446.4 18.72 
C 439.308785 18.72 432.286523 20.116815 425.735095 22.830505 
C 419.183666 25.544196 413.23048 29.521988 408.216234 34.536234 
C 403.201988 39.55048 399.224196 45.503666 396.510505 52.055095 
C 393.796815 58.606523 392.4 65.628785 392.4 72.72 
C 392.4 79.811215 393.796815 86.833477 396.510505 93.384905 
C 399.224196 99.936334 403.201988 105.88952 408.216234 110.903766 
C 413.23048 115.918012 419.183666 119.895804 425.735095 122.609495 
C 432.286523 125.323185 439.308785 126.72 446.4 126.72 
C 453.491215 126.72 460.513477 125.323185 467.064905 122.609495 
C 473.616334 119.895804 479.56952 115.918012 484.583766 110.903766 
C 489.598012 105.88952 493.575804 99.936334 496.289495 93.384905 
C 499.003185 86.833477 500.4 79.811215 500.4 72.72 
M 446.4 72.72 
C 446.4 72.72 446.4 72.72 446.4 72.72 
C 446.4 72.72 446.4 72.72 446.4 72.72 
C 446.4 72.72 446.4 72.72 446.4 72.72 
C 446.4 72.72 446.4 72.72 446.4 72.72 
C 446.4 72.72 446.4 72.72 446.4 72.72 
C 446.4 72.72 446.4 72.72 446.4 72.72 
C 446.4 72.72 446.4 72.72 446.4 72.72 
C 446.4 72.72 446.4 72.72 446.4 72.72 
C 446.4 72.72 446.4 72.72 446.4 72.72 
C 446.4 72.72 446.4 72.72 446.4 72.72 
C 446.4 72.72 446.4 72.72 446.4 72.72 
C 446.4 72.72 446.4 72.72 446.4 72.72 
C 446.4 72.72 446.4 72.72 446.4 72.72 
C 446.4 72.72 446.4 72.72 446.4 72.72 
C 446.4 72.72 446.4 72.72 446.4 72.72 
C 446.4 72.72 446.4 72.72 446.4 72.72 
M 500.4 72.72 
z
"/>
  </clipPath>
 </defs>
</svg>
