<?xml version="1.0" encoding="UTF-8" standalone="no"?>
<!DOCTYPE svg PUBLIC "-//W3C//DTD SVG 1.1//EN"
 "http://www.w3.org/Graphics/SVG/1.1/DTD/svg11.dtd">
<!-- Generated by graphviz version 2.40.1 (20161225.0304)
 -->
<!-- Title: %3 Pages: 1 -->
<svg width="666pt" height="747pt"
 viewBox="0.00 0.00 665.94 747.17" xmlns="http://www.w3.org/2000/svg" xmlns:xlink="http://www.w3.org/1999/xlink">
<g id="graph0" class="graph" transform="scale(1 1) rotate(0) translate(4 743.1696)">
<title>%3</title>
<polygon fill="#ffffff" stroke="transparent" points="-4,4 -4,-743.1696 661.9429,-743.1696 661.9429,4 -4,4"/>
<!-- 3906263646192745421 -->
<g id="node1" class="node">
<title>3906263646192745421</title>
<polygon fill="none" stroke="#000000" points="286.9954,-739.1696 232.9954,-739.1696 232.9954,-703.1696 286.9954,-703.1696 286.9954,-739.1696"/>
<text text-anchor="middle" x="259.9954" y="-717.4696" font-family="Times,serif" font-size="14.00" fill="#000000">()</text>
</g>
<!-- 8950157833054928196 -->
<g id="node2" class="node">
<title>8950157833054928196</title>
<ellipse fill="none" stroke="#000000" cx="259.9954" cy="-602.1753" rx="64.9885" ry="64.9885"/>
<text text-anchor="middle" x="259.9954" y="-598.4753" font-family="Times,serif" font-size="14.00" fill="#000000">sum&#45;aggregate</text>
</g>
<!-- 8950157833054928196&#45;&gt;3906263646192745421 -->
<g id="edge1" class="edge">
<title>8950157833054928196&#45;&gt;3906263646192745421</title>
<path fill="none" stroke="#000000" d="M259.9954,-667.243C259.9954,-676.0939 259.9954,-684.779 259.9954,-692.5054"/>
<polygon fill="#000000" stroke="#000000" points="256.4955,-692.7072 259.9954,-702.7073 263.4955,-692.7073 256.4955,-692.7072"/>
</g>
<!-- &#45;8420832608614580141 -->
<g id="node3" class="node">
<title>&#45;8420832608614580141</title>
<polygon fill="none" stroke="#000000" points="128.9954,-501.1811 74.9954,-501.1811 74.9954,-465.1811 128.9954,-465.1811 128.9954,-501.1811"/>
<text text-anchor="middle" x="101.9954" y="-479.4811" font-family="Times,serif" font-size="14.00" fill="#000000">(1, 1)</text>
</g>
<!-- &#45;8420832608614580141&#45;&gt;8950157833054928196 -->
<g id="edge2" class="edge">
<title>&#45;8420832608614580141&#45;&gt;8950157833054928196</title>
<path fill="none" stroke="#000000" d="M125.9922,-501.2537C145.5445,-515.9791 174.0205,-537.4253 199.6993,-556.7646"/>
<polygon fill="#000000" stroke="#000000" points="197.8298,-559.7382 207.9234,-562.9584 202.041,-554.1466 197.8298,-559.7382"/>
</g>
<!-- &#45;8420832608613415092 -->
<g id="node4" class="node">
<title>&#45;8420832608613415092</title>
<polygon fill="none" stroke="#000000" points="231.9954,-501.1811 177.9954,-501.1811 177.9954,-465.1811 231.9954,-465.1811 231.9954,-501.1811"/>
<text text-anchor="middle" x="204.9954" y="-479.4811" font-family="Times,serif" font-size="14.00" fill="#000000">(1, 0)</text>
</g>
<!-- &#45;8420832608613415092&#45;&gt;8950157833054928196 -->
<g id="edge3" class="edge">
<title>&#45;8420832608613415092&#45;&gt;8950157833054928196</title>
<path fill="none" stroke="#000000" d="M213.3487,-501.2537C217.5155,-510.2686 222.8464,-521.8024 228.4055,-533.8296"/>
<polygon fill="#000000" stroke="#000000" points="225.3128,-535.4806 232.6855,-543.0895 231.6669,-532.5437 225.3128,-535.4806"/>
</g>
<!-- &#45;8420833869810413915 -->
<g id="node5" class="node">
<title>&#45;8420833869810413915</title>
<polygon fill="none" stroke="#000000" points="341.9954,-501.1811 287.9954,-501.1811 287.9954,-465.1811 341.9954,-465.1811 341.9954,-501.1811"/>
<text text-anchor="middle" x="314.9954" y="-479.4811" font-family="Times,serif" font-size="14.00" fill="#000000">(0, 0)</text>
</g>
<!-- &#45;8420833869810413915&#45;&gt;8950157833054928196 -->
<g id="edge4" class="edge">
<title>&#45;8420833869810413915&#45;&gt;8950157833054928196</title>
<path fill="none" stroke="#000000" d="M306.6421,-501.2537C302.4753,-510.2686 297.1443,-521.8024 291.5853,-533.8296"/>
<polygon fill="#000000" stroke="#000000" points="288.3239,-532.5437 287.3053,-543.0895 294.678,-535.4806 288.3239,-532.5437"/>
</g>
<!-- &#45;8420833869809248866 -->
<g id="node6" class="node">
<title>&#45;8420833869809248866</title>
<polygon fill="none" stroke="#000000" points="507.9954,-501.1811 453.9954,-501.1811 453.9954,-465.1811 507.9954,-465.1811 507.9954,-501.1811"/>
<text text-anchor="middle" x="480.9954" y="-479.4811" font-family="Times,serif" font-size="14.00" fill="#000000">(0, 1)</text>
</g>
<!-- &#45;8420833869809248866&#45;&gt;8950157833054928196 -->
<g id="edge5" class="edge">
<title>&#45;8420833869809248866&#45;&gt;8950157833054928196</title>
<path fill="none" stroke="#000000" d="M453.8964,-497.7721C422.3678,-514.7483 369.1817,-543.3856 326.4792,-566.3781"/>
<polygon fill="#000000" stroke="#000000" points="324.6831,-563.37 317.5376,-571.1925 328.0018,-569.5333 324.6831,-563.37"/>
</g>
<!-- 3718581285319731420 -->
<g id="node7" class="node">
<title>3718581285319731420</title>
<ellipse fill="none" stroke="#000000" cx="333.9954" cy="-377.1857" rx="51.9908" ry="51.9908"/>
<text text-anchor="middle" x="333.9954" y="-373.4857" font-family="Times,serif" font-size="14.00" fill="#000000">sum&#45;partial</text>
</g>
<!-- 3718581285319731420&#45;&gt;&#45;8420833869810413915 -->
<g id="edge6" class="edge">
<title>3718581285319731420&#45;&gt;&#45;8420833869810413915</title>
<path fill="none" stroke="#000000" d="M324.7737,-428.6309C323.1433,-437.7264 321.502,-446.8828 320.042,-455.0275"/>
<polygon fill="#000000" stroke="#000000" points="316.5628,-454.6008 318.2434,-465.0615 323.453,-455.8359 316.5628,-454.6008"/>
</g>
<!-- 4610255376023453888 -->
<g id="node8" class="node">
<title>4610255376023453888</title>
<polygon fill="none" stroke="#000000" points="287.9954,-289.1903 233.9954,-289.1903 233.9954,-253.1903 287.9954,-253.1903 287.9954,-289.1903"/>
<text text-anchor="middle" x="260.9954" y="-267.4903" font-family="Times,serif" font-size="14.00" fill="#000000">(1, 0)</text>
</g>
<!-- 4610255376023453888&#45;&gt;3718581285319731420 -->
<g id="edge7" class="edge">
<title>4610255376023453888&#45;&gt;3718581285319731420</title>
<path fill="none" stroke="#000000" d="M273.711,-289.6533C280.681,-299.7736 289.7004,-312.8698 298.6293,-325.8344"/>
<polygon fill="#000000" stroke="#000000" points="295.9067,-328.0519 304.4613,-334.3025 301.6718,-324.0815 295.9067,-328.0519"/>
</g>
<!-- 4610254114826455065 -->
<g id="node9" class="node">
<title>4610254114826455065</title>
<polygon fill="none" stroke="#000000" points="360.9954,-289.1903 306.9954,-289.1903 306.9954,-253.1903 360.9954,-253.1903 360.9954,-289.1903"/>
<text text-anchor="middle" x="333.9954" y="-267.4903" font-family="Times,serif" font-size="14.00" fill="#000000">(0, 0)</text>
</g>
<!-- 4610254114826455065&#45;&gt;3718581285319731420 -->
<g id="edge8" class="edge">
<title>4610254114826455065&#45;&gt;3718581285319731420</title>
<path fill="none" stroke="#000000" d="M333.9954,-289.6533C333.9954,-296.884 333.9954,-305.6337 333.9954,-314.7692"/>
<polygon fill="#000000" stroke="#000000" points="330.4955,-314.7799 333.9954,-324.7799 337.4955,-314.78 330.4955,-314.7799"/>
</g>
<!-- 4610254114827620114 -->
<g id="node10" class="node">
<title>4610254114827620114</title>
<polygon fill="none" stroke="#000000" points="433.9954,-289.1903 379.9954,-289.1903 379.9954,-253.1903 433.9954,-253.1903 433.9954,-289.1903"/>
<text text-anchor="middle" x="406.9954" y="-267.4903" font-family="Times,serif" font-size="14.00" fill="#000000">(0, 1)</text>
</g>
<!-- 4610254114827620114&#45;&gt;3718581285319731420 -->
<g id="edge9" class="edge">
<title>4610254114827620114&#45;&gt;3718581285319731420</title>
<path fill="none" stroke="#000000" d="M394.2798,-289.6533C387.3098,-299.7736 378.2903,-312.8698 369.3615,-325.8344"/>
<polygon fill="#000000" stroke="#000000" points="366.319,-324.0815 363.5294,-334.3025 372.0841,-328.0519 366.319,-324.0815"/>
</g>
<!-- 4610255376022288839 -->
<g id="node11" class="node">
<title>4610255376022288839</title>
<polygon fill="none" stroke="#000000" points="506.9954,-289.1903 452.9954,-289.1903 452.9954,-253.1903 506.9954,-253.1903 506.9954,-289.1903"/>
<text text-anchor="middle" x="479.9954" y="-267.4903" font-family="Times,serif" font-size="14.00" fill="#000000">(1, 1)</text>
</g>
<!-- 4610255376022288839&#45;&gt;3718581285319731420 -->
<g id="edge10" class="edge">
<title>4610255376022288839&#45;&gt;3718581285319731420</title>
<path fill="none" stroke="#000000" d="M454.8971,-289.4116C435.5703,-303.4428 408.2232,-323.2966 384.4255,-340.5737"/>
<polygon fill="#000000" stroke="#000000" points="382.2109,-337.8563 376.1749,-346.5636 386.3234,-343.5209 382.2109,-337.8563"/>
</g>
<!-- 6392194554731063595 -->
<g id="node12" class="node">
<title>6392194554731063595</title>
<ellipse fill="none" stroke="#000000" cx="555.9954" cy="-377.1857" rx="51.9908" ry="51.9908"/>
<text text-anchor="middle" x="555.9954" y="-373.4857" font-family="Times,serif" font-size="14.00" fill="#000000">sum&#45;partial</text>
</g>
<!-- 6392194554731063595&#45;&gt;&#45;8420833869809248866 -->
<g id="edge11" class="edge">
<title>6392194554731063595&#45;&gt;&#45;8420833869809248866</title>
<path fill="none" stroke="#000000" d="M525.9222,-419.6873C517.1112,-432.1396 507.7305,-445.3972 499.8322,-456.5595"/>
<polygon fill="#000000" stroke="#000000" points="496.774,-454.8221 493.855,-465.0069 502.4883,-458.8654 496.774,-454.8221"/>
</g>
<!-- 4610255376025783986 -->
<g id="node13" class="node">
<title>4610255376025783986</title>
<polygon fill="none" stroke="#000000" points="582.9954,-289.1903 528.9954,-289.1903 528.9954,-253.1903 582.9954,-253.1903 582.9954,-289.1903"/>
<text text-anchor="middle" x="555.9954" y="-267.4903" font-family="Times,serif" font-size="14.00" fill="#000000">(1, 2)</text>
</g>
<!-- 4610255376025783986&#45;&gt;6392194554731063595 -->
<g id="edge12" class="edge">
<title>4610255376025783986&#45;&gt;6392194554731063595</title>
<path fill="none" stroke="#000000" d="M555.9954,-289.6533C555.9954,-296.884 555.9954,-305.6337 555.9954,-314.7692"/>
<polygon fill="#000000" stroke="#000000" points="552.4955,-314.7799 555.9954,-324.7799 559.4955,-314.78 552.4955,-314.7799"/>
</g>
<!-- 4610254114824124967 -->
<g id="node14" class="node">
<title>4610254114824124967</title>
<polygon fill="none" stroke="#000000" points="654.9954,-289.1903 600.9954,-289.1903 600.9954,-253.1903 654.9954,-253.1903 654.9954,-289.1903"/>
<text text-anchor="middle" x="627.9954" y="-267.4903" font-family="Times,serif" font-size="14.00" fill="#000000">(0, 2)</text>
</g>
<!-- 4610254114824124967&#45;&gt;6392194554731063595 -->
<g id="edge13" class="edge">
<title>4610254114824124967&#45;&gt;6392194554731063595</title>
<path fill="none" stroke="#000000" d="M615.4539,-289.6533C608.6456,-299.6763 599.8545,-312.6182 591.1311,-325.4604"/>
<polygon fill="#000000" stroke="#000000" points="588.1537,-323.6148 585.4298,-333.8535 593.9441,-327.5481 588.1537,-323.6148"/>
</g>
<!-- &#45;5694056946253155679 -->
<g id="node15" class="node">
<title>&#45;5694056946253155679</title>
<ellipse fill="none" stroke="#000000" cx="185.9954" cy="-377.1857" rx="51.9908" ry="51.9908"/>
<text text-anchor="middle" x="185.9954" y="-373.4857" font-family="Times,serif" font-size="14.00" fill="#000000">sum&#45;partial</text>
</g>
<!-- &#45;5694056946253155679&#45;&gt;&#45;8420832608613415092 -->
<g id="edge14" class="edge">
<title>&#45;5694056946253155679&#45;&gt;&#45;8420832608613415092</title>
<path fill="none" stroke="#000000" d="M195.2171,-428.6309C196.8475,-437.7264 198.4888,-446.8828 199.9488,-455.0275"/>
<polygon fill="#000000" stroke="#000000" points="196.5378,-455.8359 201.7474,-465.0615 203.428,-454.6008 196.5378,-455.8359"/>
</g>
<!-- 4610251592432457419 -->
<g id="node16" class="node">
<title>4610251592432457419</title>
<polygon fill="none" stroke="#000000" points="139.9954,-289.1903 85.9954,-289.1903 85.9954,-253.1903 139.9954,-253.1903 139.9954,-289.1903"/>
<text text-anchor="middle" x="112.9954" y="-267.4903" font-family="Times,serif" font-size="14.00" fill="#000000">(2, 0)</text>
</g>
<!-- 4610251592432457419&#45;&gt;&#45;5694056946253155679 -->
<g id="edge15" class="edge">
<title>4610251592432457419&#45;&gt;&#45;5694056946253155679</title>
<path fill="none" stroke="#000000" d="M125.711,-289.6533C132.681,-299.7736 141.7004,-312.8698 150.6293,-325.8344"/>
<polygon fill="#000000" stroke="#000000" points="147.9067,-328.0519 156.4613,-334.3025 153.6718,-324.0815 147.9067,-328.0519"/>
</g>
<!-- 4610251592433622468 -->
<g id="node17" class="node">
<title>4610251592433622468</title>
<polygon fill="none" stroke="#000000" points="212.9954,-289.1903 158.9954,-289.1903 158.9954,-253.1903 212.9954,-253.1903 212.9954,-289.1903"/>
<text text-anchor="middle" x="185.9954" y="-267.4903" font-family="Times,serif" font-size="14.00" fill="#000000">(2, 1)</text>
</g>
<!-- 4610251592433622468&#45;&gt;&#45;5694056946253155679 -->
<g id="edge16" class="edge">
<title>4610251592433622468&#45;&gt;&#45;5694056946253155679</title>
<path fill="none" stroke="#000000" d="M185.9954,-289.6533C185.9954,-296.884 185.9954,-305.6337 185.9954,-314.7692"/>
<polygon fill="#000000" stroke="#000000" points="182.4955,-314.7799 185.9954,-324.7799 189.4955,-314.78 182.4955,-314.7799"/>
</g>
<!-- &#45;7045334687428289454 -->
<g id="node18" class="node">
<title>&#45;7045334687428289454</title>
<ellipse fill="none" stroke="#000000" cx="51.9954" cy="-377.1857" rx="51.9908" ry="51.9908"/>
<text text-anchor="middle" x="51.9954" y="-373.4857" font-family="Times,serif" font-size="14.00" fill="#000000">sum&#45;partial</text>
</g>
<!-- &#45;7045334687428289454&#45;&gt;&#45;8420832608614580141 -->
<g id="edge17" class="edge">
<title>&#45;7045334687428289454&#45;&gt;&#45;8420832608614580141</title>
<path fill="none" stroke="#000000" d="M74.2173,-424.2941C79.3423,-435.1587 84.625,-446.3576 89.1895,-456.0338"/>
<polygon fill="#000000" stroke="#000000" points="86.0503,-457.5828 93.4821,-465.1338 92.3812,-454.5963 86.0503,-457.5828"/>
</g>
<!-- 4610251592434787517 -->
<g id="node19" class="node">
<title>4610251592434787517</title>
<polygon fill="none" stroke="#000000" points="66.9954,-289.1903 12.9954,-289.1903 12.9954,-253.1903 66.9954,-253.1903 66.9954,-289.1903"/>
<text text-anchor="middle" x="39.9954" y="-267.4903" font-family="Times,serif" font-size="14.00" fill="#000000">(2, 2)</text>
</g>
<!-- 4610251592434787517&#45;&gt;&#45;7045334687428289454 -->
<g id="edge18" class="edge">
<title>4610251592434787517&#45;&gt;&#45;7045334687428289454</title>
<path fill="none" stroke="#000000" d="M42.0856,-289.6533C42.9141,-296.9711 43.9187,-305.8447 44.9665,-315.0995"/>
<polygon fill="#000000" stroke="#000000" points="41.5112,-315.6932 46.114,-325.236 48.4668,-314.9057 41.5112,-315.6932"/>
</g>
<!-- 6654937862977382584 -->
<g id="node20" class="node">
<title>6654937862977382584</title>
<ellipse fill="none" stroke="#000000" cx="333.9954" cy="-190.5427" rx="26.7961" ry="26.7961"/>
<text text-anchor="middle" x="333.9954" y="-186.8427" font-family="Times,serif" font-size="14.00" fill="#000000">sum</text>
</g>
<!-- 6654937862977382584&#45;&gt;4610254114826455065 -->
<g id="edge19" class="edge">
<title>6654937862977382584&#45;&gt;4610254114826455065</title>
<path fill="none" stroke="#000000" d="M333.9954,-217.3972C333.9954,-225.645 333.9954,-234.7422 333.9954,-243.0721"/>
<polygon fill="#000000" stroke="#000000" points="330.4955,-243.0914 333.9954,-253.0914 337.4955,-243.0914 330.4955,-243.0914"/>
</g>
<!-- 6173423674072764057 -->
<g id="node21" class="node">
<title>6173423674072764057</title>
<polygon fill="none" stroke="#000000" points="360.9954,-127.895 306.9954,-127.895 306.9954,-91.895 360.9954,-91.895 360.9954,-127.895"/>
<text text-anchor="middle" x="333.9954" y="-106.195" font-family="Times,serif" font-size="14.00" fill="#000000">(0, 0)</text>
</g>
<!-- 6173423674072764057&#45;&gt;6654937862977382584 -->
<g id="edge20" class="edge">
<title>6173423674072764057&#45;&gt;6654937862977382584</title>
<path fill="none" stroke="#000000" d="M333.9954,-128.1952C333.9954,-135.7443 333.9954,-144.7788 333.9954,-153.5965"/>
<polygon fill="#000000" stroke="#000000" points="330.4955,-153.7459 333.9954,-163.746 337.4955,-153.746 330.4955,-153.7459"/>
</g>
<!-- 8014603783529309959 -->
<g id="node22" class="node">
<title>8014603783529309959</title>
<ellipse fill="none" stroke="#000000" cx="406.9954" cy="-190.5427" rx="26.7961" ry="26.7961"/>
<text text-anchor="middle" x="406.9954" y="-186.8427" font-family="Times,serif" font-size="14.00" fill="#000000">sum</text>
</g>
<!-- 8014603783529309959&#45;&gt;4610254114827620114 -->
<g id="edge21" class="edge">
<title>8014603783529309959&#45;&gt;4610254114827620114</title>
<path fill="none" stroke="#000000" d="M406.9954,-217.3972C406.9954,-225.645 406.9954,-234.7422 406.9954,-243.0721"/>
<polygon fill="#000000" stroke="#000000" points="403.4955,-243.0914 406.9954,-253.0914 410.4955,-243.0914 403.4955,-243.0914"/>
</g>
<!-- 6173423674073929106 -->
<g id="node23" class="node">
<title>6173423674073929106</title>
<polygon fill="none" stroke="#000000" points="434.9954,-127.895 380.9954,-127.895 380.9954,-91.895 434.9954,-91.895 434.9954,-127.895"/>
<text text-anchor="middle" x="407.9954" y="-106.195" font-family="Times,serif" font-size="14.00" fill="#000000">(0, 1)</text>
</g>
<!-- 6173423674073929106&#45;&gt;8014603783529309959 -->
<g id="edge22" class="edge">
<title>6173423674073929106&#45;&gt;8014603783529309959</title>
<path fill="none" stroke="#000000" d="M407.7685,-128.1952C407.6749,-135.7443 407.5628,-144.7788 407.4535,-153.5965"/>
<polygon fill="#000000" stroke="#000000" points="403.952,-153.7033 407.3277,-163.746 410.9515,-153.7902 403.952,-153.7033"/>
</g>
<!-- &#45;6339629213115655682 -->
<g id="node24" class="node">
<title>&#45;6339629213115655682</title>
<ellipse fill="none" stroke="#000000" cx="627.9954" cy="-190.5427" rx="26.7961" ry="26.7961"/>
<text text-anchor="middle" x="627.9954" y="-186.8427" font-family="Times,serif" font-size="14.00" fill="#000000">sum</text>
</g>
<!-- &#45;6339629213115655682&#45;&gt;4610254114824124967 -->
<g id="edge23" class="edge">
<title>&#45;6339629213115655682&#45;&gt;4610254114824124967</title>
<path fill="none" stroke="#000000" d="M627.9954,-217.3972C627.9954,-225.645 627.9954,-234.7422 627.9954,-243.0721"/>
<polygon fill="#000000" stroke="#000000" points="624.4955,-243.0914 627.9954,-253.0914 631.4955,-243.0914 624.4955,-243.0914"/>
</g>
<!-- 6173423674070433959 -->
<g id="node25" class="node">
<title>6173423674070433959</title>
<polygon fill="none" stroke="#000000" points="655.9954,-127.895 601.9954,-127.895 601.9954,-91.895 655.9954,-91.895 655.9954,-127.895"/>
<text text-anchor="middle" x="628.9954" y="-106.195" font-family="Times,serif" font-size="14.00" fill="#000000">(0, 2)</text>
</g>
<!-- 6173423674070433959&#45;&gt;&#45;6339629213115655682 -->
<g id="edge24" class="edge">
<title>6173423674070433959&#45;&gt;&#45;6339629213115655682</title>
<path fill="none" stroke="#000000" d="M628.7685,-128.1952C628.6749,-135.7443 628.5628,-144.7788 628.4535,-153.5965"/>
<polygon fill="#000000" stroke="#000000" points="624.952,-153.7033 628.3277,-163.746 631.9515,-153.7902 624.952,-153.7033"/>
</g>
<!-- 8977710893118495357 -->
<g id="node26" class="node">
<title>8977710893118495357</title>
<ellipse fill="none" stroke="#000000" cx="259.9954" cy="-190.5427" rx="26.7961" ry="26.7961"/>
<text text-anchor="middle" x="259.9954" y="-186.8427" font-family="Times,serif" font-size="14.00" fill="#000000">sum</text>
</g>
<!-- 8977710893118495357&#45;&gt;4610255376023453888 -->
<g id="edge25" class="edge">
<title>8977710893118495357&#45;&gt;4610255376023453888</title>
<path fill="none" stroke="#000000" d="M260.3284,-217.3972C260.4306,-225.645 260.5434,-234.7422 260.6467,-243.0721"/>
<polygon fill="#000000" stroke="#000000" points="257.1472,-243.1356 260.771,-253.0914 264.1466,-243.0487 257.1472,-243.1356"/>
</g>
<!-- 6173424935269762880 -->
<g id="node27" class="node">
<title>6173424935269762880</title>
<polygon fill="none" stroke="#000000" points="286.9954,-127.895 232.9954,-127.895 232.9954,-91.895 286.9954,-91.895 286.9954,-127.895"/>
<text text-anchor="middle" x="259.9954" y="-106.195" font-family="Times,serif" font-size="14.00" fill="#000000">(1, 0)</text>
</g>
<!-- 6173424935269762880&#45;&gt;8977710893118495357 -->
<g id="edge26" class="edge">
<title>6173424935269762880&#45;&gt;8977710893118495357</title>
<path fill="none" stroke="#000000" d="M259.9954,-128.1952C259.9954,-135.7443 259.9954,-144.7788 259.9954,-153.5965"/>
<polygon fill="#000000" stroke="#000000" points="256.4955,-153.7459 259.9954,-163.746 263.4955,-153.746 256.4955,-153.7459"/>
</g>
<!-- 7671762541545185182 -->
<g id="node28" class="node">
<title>7671762541545185182</title>
<ellipse fill="none" stroke="#000000" cx="479.9954" cy="-190.5427" rx="26.7961" ry="26.7961"/>
<text text-anchor="middle" x="479.9954" y="-186.8427" font-family="Times,serif" font-size="14.00" fill="#000000">sum</text>
</g>
<!-- 7671762541545185182&#45;&gt;4610255376022288839 -->
<g id="edge27" class="edge">
<title>7671762541545185182&#45;&gt;4610255376022288839</title>
<path fill="none" stroke="#000000" d="M479.9954,-217.3972C479.9954,-225.645 479.9954,-234.7422 479.9954,-243.0721"/>
<polygon fill="#000000" stroke="#000000" points="476.4955,-243.0914 479.9954,-253.0914 483.4955,-243.0914 476.4955,-243.0914"/>
</g>
<!-- 6173424935268597831 -->
<g id="node29" class="node">
<title>6173424935268597831</title>
<polygon fill="none" stroke="#000000" points="507.9954,-127.895 453.9954,-127.895 453.9954,-91.895 507.9954,-91.895 507.9954,-127.895"/>
<text text-anchor="middle" x="480.9954" y="-106.195" font-family="Times,serif" font-size="14.00" fill="#000000">(1, 1)</text>
</g>
<!-- 6173424935268597831&#45;&gt;7671762541545185182 -->
<g id="edge28" class="edge">
<title>6173424935268597831&#45;&gt;7671762541545185182</title>
<path fill="none" stroke="#000000" d="M480.7685,-128.1952C480.6749,-135.7443 480.5628,-144.7788 480.4535,-153.5965"/>
<polygon fill="#000000" stroke="#000000" points="476.952,-153.7033 480.3277,-163.746 483.9515,-153.7902 476.952,-153.7033"/>
</g>
<!-- 1651539963252849191 -->
<g id="node30" class="node">
<title>1651539963252849191</title>
<ellipse fill="none" stroke="#000000" cx="555.9954" cy="-190.5427" rx="26.7961" ry="26.7961"/>
<text text-anchor="middle" x="555.9954" y="-186.8427" font-family="Times,serif" font-size="14.00" fill="#000000">sum</text>
</g>
<!-- 1651539963252849191&#45;&gt;4610255376025783986 -->
<g id="edge29" class="edge">
<title>1651539963252849191&#45;&gt;4610255376025783986</title>
<path fill="none" stroke="#000000" d="M555.9954,-217.3972C555.9954,-225.645 555.9954,-234.7422 555.9954,-243.0721"/>
<polygon fill="#000000" stroke="#000000" points="552.4955,-243.0914 555.9954,-253.0914 559.4955,-243.0914 552.4955,-243.0914"/>
</g>
<!-- 6173424935272092978 -->
<g id="node31" class="node">
<title>6173424935272092978</title>
<polygon fill="none" stroke="#000000" points="582.9954,-127.895 528.9954,-127.895 528.9954,-91.895 582.9954,-91.895 582.9954,-127.895"/>
<text text-anchor="middle" x="555.9954" y="-106.195" font-family="Times,serif" font-size="14.00" fill="#000000">(1, 2)</text>
</g>
<!-- 6173424935272092978&#45;&gt;1651539963252849191 -->
<g id="edge30" class="edge">
<title>6173424935272092978&#45;&gt;1651539963252849191</title>
<path fill="none" stroke="#000000" d="M555.9954,-128.1952C555.9954,-135.7443 555.9954,-144.7788 555.9954,-153.5965"/>
<polygon fill="#000000" stroke="#000000" points="552.4955,-153.7459 555.9954,-163.746 559.4955,-153.746 552.4955,-153.7459"/>
</g>
<!-- &#45;7963634205442473590 -->
<g id="node32" class="node">
<title>&#45;7963634205442473590</title>
<ellipse fill="none" stroke="#000000" cx="111.9954" cy="-190.5427" rx="26.7961" ry="26.7961"/>
<text text-anchor="middle" x="111.9954" y="-186.8427" font-family="Times,serif" font-size="14.00" fill="#000000">sum</text>
</g>
<!-- &#45;7963634205442473590&#45;&gt;4610251592432457419 -->
<g id="edge31" class="edge">
<title>&#45;7963634205442473590&#45;&gt;4610251592432457419</title>
<path fill="none" stroke="#000000" d="M112.3284,-217.3972C112.4306,-225.645 112.5434,-234.7422 112.6467,-243.0721"/>
<polygon fill="#000000" stroke="#000000" points="109.1472,-243.1356 112.771,-253.0914 116.1466,-243.0487 109.1472,-243.1356"/>
</g>
<!-- 6173421151678766411 -->
<g id="node33" class="node">
<title>6173421151678766411</title>
<polygon fill="none" stroke="#000000" points="138.9954,-127.895 84.9954,-127.895 84.9954,-91.895 138.9954,-91.895 138.9954,-127.895"/>
<text text-anchor="middle" x="111.9954" y="-106.195" font-family="Times,serif" font-size="14.00" fill="#000000">(2, 0)</text>
</g>
<!-- 6173421151678766411&#45;&gt;&#45;7963634205442473590 -->
<g id="edge32" class="edge">
<title>6173421151678766411&#45;&gt;&#45;7963634205442473590</title>
<path fill="none" stroke="#000000" d="M111.9954,-128.1952C111.9954,-135.7443 111.9954,-144.7788 111.9954,-153.5965"/>
<polygon fill="#000000" stroke="#000000" points="108.4955,-153.7459 111.9954,-163.746 115.4955,-153.746 108.4955,-153.7459"/>
</g>
<!-- &#45;7221344656384882215 -->
<g id="node34" class="node">
<title>&#45;7221344656384882215</title>
<ellipse fill="none" stroke="#000000" cx="185.9954" cy="-190.5427" rx="26.7961" ry="26.7961"/>
<text text-anchor="middle" x="185.9954" y="-186.8427" font-family="Times,serif" font-size="14.00" fill="#000000">sum</text>
</g>
<!-- &#45;7221344656384882215&#45;&gt;4610251592433622468 -->
<g id="edge33" class="edge">
<title>&#45;7221344656384882215&#45;&gt;4610251592433622468</title>
<path fill="none" stroke="#000000" d="M185.9954,-217.3972C185.9954,-225.645 185.9954,-234.7422 185.9954,-243.0721"/>
<polygon fill="#000000" stroke="#000000" points="182.4955,-243.0914 185.9954,-253.0914 189.4955,-243.0914 182.4955,-243.0914"/>
</g>
<!-- 6173421151679931460 -->
<g id="node35" class="node">
<title>6173421151679931460</title>
<polygon fill="none" stroke="#000000" points="212.9954,-127.895 158.9954,-127.895 158.9954,-91.895 212.9954,-91.895 212.9954,-127.895"/>
<text text-anchor="middle" x="185.9954" y="-106.195" font-family="Times,serif" font-size="14.00" fill="#000000">(2, 1)</text>
</g>
<!-- 6173421151679931460&#45;&gt;&#45;7221344656384882215 -->
<g id="edge34" class="edge">
<title>6173421151679931460&#45;&gt;&#45;7221344656384882215</title>
<path fill="none" stroke="#000000" d="M185.9954,-128.1952C185.9954,-135.7443 185.9954,-144.7788 185.9954,-153.5965"/>
<polygon fill="#000000" stroke="#000000" points="182.4955,-153.7459 185.9954,-163.746 189.4955,-153.746 182.4955,-153.7459"/>
</g>
<!-- 3350212733401494324 -->
<g id="node36" class="node">
<title>3350212733401494324</title>
<ellipse fill="none" stroke="#000000" cx="38.9954" cy="-190.5427" rx="26.7961" ry="26.7961"/>
<text text-anchor="middle" x="38.9954" y="-186.8427" font-family="Times,serif" font-size="14.00" fill="#000000">sum</text>
</g>
<!-- 3350212733401494324&#45;&gt;4610251592434787517 -->
<g id="edge35" class="edge">
<title>3350212733401494324&#45;&gt;4610251592434787517</title>
<path fill="none" stroke="#000000" d="M39.3284,-217.3972C39.4306,-225.645 39.5434,-234.7422 39.6467,-243.0721"/>
<polygon fill="#000000" stroke="#000000" points="36.1472,-243.1356 39.771,-253.0914 43.1466,-243.0487 36.1472,-243.1356"/>
</g>
<!-- 6173421151681096509 -->
<g id="node37" class="node">
<title>6173421151681096509</title>
<polygon fill="none" stroke="#000000" points="65.9954,-127.895 11.9954,-127.895 11.9954,-91.895 65.9954,-91.895 65.9954,-127.895"/>
<text text-anchor="middle" x="38.9954" y="-106.195" font-family="Times,serif" font-size="14.00" fill="#000000">(2, 2)</text>
</g>
<!-- 6173421151681096509&#45;&gt;3350212733401494324 -->
<g id="edge36" class="edge">
<title>6173421151681096509&#45;&gt;3350212733401494324</title>
<path fill="none" stroke="#000000" d="M38.9954,-128.1952C38.9954,-135.7443 38.9954,-144.7788 38.9954,-153.5965"/>
<polygon fill="#000000" stroke="#000000" points="35.4955,-153.7459 38.9954,-163.746 42.4955,-153.746 35.4955,-153.7459"/>
</g>
<!-- &#45;72914999744058056 -->
<g id="node38" class="node">
<title>&#45;72914999744058056</title>
<ellipse fill="none" stroke="#000000" cx="333.9954" cy="-27.9475" rx="27.8951" ry="27.8951"/>
<text text-anchor="middle" x="333.9954" y="-24.2475" font-family="Times,serif" font-size="14.00" fill="#000000">ones</text>
</g>
<!-- &#45;72914999744058056&#45;&gt;6173423674072764057 -->
<g id="edge37" class="edge">
<title>&#45;72914999744058056&#45;&gt;6173423674072764057</title>
<path fill="none" stroke="#000000" d="M333.9954,-56.1492C333.9954,-64.2615 333.9954,-73.1159 333.9954,-81.2544"/>
<polygon fill="#000000" stroke="#000000" points="330.4955,-81.4182 333.9954,-91.4182 337.4955,-81.4183 330.4955,-81.4182"/>
</g>
<!-- 1271022818712163719 -->
<g id="node39" class="node">
<title>1271022818712163719</title>
<ellipse fill="none" stroke="#000000" cx="407.9954" cy="-27.9475" rx="27.8951" ry="27.8951"/>
<text text-anchor="middle" x="407.9954" y="-24.2475" font-family="Times,serif" font-size="14.00" fill="#000000">ones</text>
</g>
<!-- 1271022818712163719&#45;&gt;6173423674073929106 -->
<g id="edge38" class="edge">
<title>1271022818712163719&#45;&gt;6173423674073929106</title>
<path fill="none" stroke="#000000" d="M407.9954,-56.1492C407.9954,-64.2615 407.9954,-73.1159 407.9954,-81.2544"/>
<polygon fill="#000000" stroke="#000000" points="404.4955,-81.4182 407.9954,-91.4182 411.4955,-81.4183 404.4955,-81.4182"/>
</g>
<!-- &#45;8808011674463696770 -->
<g id="node40" class="node">
<title>&#45;8808011674463696770</title>
<ellipse fill="none" stroke="#000000" cx="629.9954" cy="-27.9475" rx="27.8951" ry="27.8951"/>
<text text-anchor="middle" x="629.9954" y="-24.2475" font-family="Times,serif" font-size="14.00" fill="#000000">ones</text>
</g>
<!-- &#45;8808011674463696770&#45;&gt;6173423674070433959 -->
<g id="edge39" class="edge">
<title>&#45;8808011674463696770&#45;&gt;6173423674070433959</title>
<path fill="none" stroke="#000000" d="M629.6512,-56.1492C629.5522,-64.2615 629.4442,-73.1159 629.3449,-81.2544"/>
<polygon fill="#000000" stroke="#000000" points="625.8432,-81.3762 629.2209,-91.4182 632.8427,-81.4617 625.8432,-81.3762"/>
</g>
<!-- 5494215535207505661 -->
<g id="node41" class="node">
<title>5494215535207505661</title>
<ellipse fill="none" stroke="#000000" cx="259.9954" cy="-27.9475" rx="27.8951" ry="27.8951"/>
<text text-anchor="middle" x="259.9954" y="-24.2475" font-family="Times,serif" font-size="14.00" fill="#000000">ones</text>
</g>
<!-- 5494215535207505661&#45;&gt;6173424935269762880 -->
<g id="edge40" class="edge">
<title>5494215535207505661&#45;&gt;6173424935269762880</title>
<path fill="none" stroke="#000000" d="M259.9954,-56.1492C259.9954,-64.2615 259.9954,-73.1159 259.9954,-81.2544"/>
<polygon fill="#000000" stroke="#000000" points="256.4955,-81.4182 259.9954,-91.4182 263.4955,-81.4183 256.4955,-81.4182"/>
</g>
<!-- &#45;5735092506848761314 -->
<g id="node42" class="node">
<title>&#45;5735092506848761314</title>
<ellipse fill="none" stroke="#000000" cx="481.9954" cy="-27.9475" rx="27.8951" ry="27.8951"/>
<text text-anchor="middle" x="481.9954" y="-24.2475" font-family="Times,serif" font-size="14.00" fill="#000000">ones</text>
</g>
<!-- &#45;5735092506848761314&#45;&gt;6173424935268597831 -->
<g id="edge41" class="edge">
<title>&#45;5735092506848761314&#45;&gt;6173424935268597831</title>
<path fill="none" stroke="#000000" d="M481.6512,-56.1492C481.5522,-64.2615 481.4442,-73.1159 481.3449,-81.2544"/>
<polygon fill="#000000" stroke="#000000" points="477.8432,-81.3762 481.2209,-91.4182 484.8427,-81.4617 477.8432,-81.3762"/>
</g>
<!-- 8091064355161811111 -->
<g id="node43" class="node">
<title>8091064355161811111</title>
<ellipse fill="none" stroke="#000000" cx="555.9954" cy="-27.9475" rx="27.8951" ry="27.8951"/>
<text text-anchor="middle" x="555.9954" y="-24.2475" font-family="Times,serif" font-size="14.00" fill="#000000">ones</text>
</g>
<!-- 8091064355161811111&#45;&gt;6173424935272092978 -->
<g id="edge42" class="edge">
<title>8091064355161811111&#45;&gt;6173424935272092978</title>
<path fill="none" stroke="#000000" d="M555.9954,-56.1492C555.9954,-64.2615 555.9954,-73.1159 555.9954,-81.2544"/>
<polygon fill="#000000" stroke="#000000" points="552.4955,-81.4182 555.9954,-91.4182 559.4955,-81.4183 552.4955,-81.4182"/>
</g>
<!-- &#45;1820450139642523638 -->
<g id="node44" class="node">
<title>&#45;1820450139642523638</title>
<ellipse fill="none" stroke="#000000" cx="111.9954" cy="-27.9475" rx="27.8951" ry="27.8951"/>
<text text-anchor="middle" x="111.9954" y="-24.2475" font-family="Times,serif" font-size="14.00" fill="#000000">ones</text>
</g>
<!-- &#45;1820450139642523638&#45;&gt;6173421151678766411 -->
<g id="edge43" class="edge">
<title>&#45;1820450139642523638&#45;&gt;6173421151678766411</title>
<path fill="none" stroke="#000000" d="M111.9954,-56.1492C111.9954,-64.2615 111.9954,-73.1159 111.9954,-81.2544"/>
<polygon fill="#000000" stroke="#000000" points="108.4955,-81.4182 111.9954,-91.4182 115.4955,-81.4183 108.4955,-81.4182"/>
</g>
<!-- &#45;6878265821379896743 -->
<g id="node45" class="node">
<title>&#45;6878265821379896743</title>
<ellipse fill="none" stroke="#000000" cx="185.9954" cy="-27.9475" rx="27.8951" ry="27.8951"/>
<text text-anchor="middle" x="185.9954" y="-24.2475" font-family="Times,serif" font-size="14.00" fill="#000000">ones</text>
</g>
<!-- &#45;6878265821379896743&#45;&gt;6173421151679931460 -->
<g id="edge44" class="edge">
<title>&#45;6878265821379896743&#45;&gt;6173421151679931460</title>
<path fill="none" stroke="#000000" d="M185.9954,-56.1492C185.9954,-64.2615 185.9954,-73.1159 185.9954,-81.2544"/>
<polygon fill="#000000" stroke="#000000" points="182.4955,-81.4182 185.9954,-91.4182 189.4955,-81.4183 182.4955,-81.4182"/>
</g>
<!-- &#45;5663767430458670668 -->
<g id="node46" class="node">
<title>&#45;5663767430458670668</title>
<ellipse fill="none" stroke="#000000" cx="37.9954" cy="-27.9475" rx="27.8951" ry="27.8951"/>
<text text-anchor="middle" x="37.9954" y="-24.2475" font-family="Times,serif" font-size="14.00" fill="#000000">ones</text>
</g>
<!-- &#45;5663767430458670668&#45;&gt;6173421151681096509 -->
<g id="edge45" class="edge">
<title>&#45;5663767430458670668&#45;&gt;6173421151681096509</title>
<path fill="none" stroke="#000000" d="M38.3395,-56.1492C38.4385,-64.2615 38.5466,-73.1159 38.6459,-81.2544"/>
<polygon fill="#000000" stroke="#000000" points="35.1481,-81.4617 38.7699,-91.4182 42.1475,-81.3762 35.1481,-81.4617"/>
</g>
</g>
</svg>
