<?xml version="1.0" encoding="utf-8" standalone="no"?>
<!DOCTYPE svg PUBLIC "-//W3C//DTD SVG 1.1//EN"
  "http://www.w3.org/Graphics/SVG/1.1/DTD/svg11.dtd">
<!-- Created with matplotlib (https://matplotlib.org/) -->
<svg height="345.6pt" version="1.1" viewBox="0 0 460.8 345.6" width="460.8pt" xmlns="http://www.w3.org/2000/svg" xmlns:xlink="http://www.w3.org/1999/xlink">
 <defs>
  <style type="text/css">
*{stroke-linecap:butt;stroke-linejoin:round;}
  </style>
 </defs>
 <g id="figure_1">
  <g id="patch_1">
   <path d="M 0 345.6 
L 460.8 345.6 
L 460.8 0 
L 0 0 
z
" style="fill:#ffffff;"/>
  </g>
  <g id="axes_1">
   <g id="patch_2">
    <path d="M 57.6 307.584 
L 414.72 307.584 
L 414.72 41.472 
L 57.6 41.472 
z
" style="fill:#ffffff;"/>
   </g>
   <g id="matplotlib.axis_1">
    <g id="xtick_1">
     <g id="line2d_1">
      <defs>
       <path d="M 0 0 
L 0 3.5 
" id="m856c22304d" style="stroke:#000000;stroke-width:0.8;"/>
      </defs>
      <g>
       <use style="stroke:#000000;stroke-width:0.8;" x="57.6" xlink:href="#m856c22304d" y="307.584"/>
      </g>
     </g>
     <g id="text_1">
      <!-- 1 -->
      <defs>
       <path d="M 12.40625 8.296875 
L 28.515625 8.296875 
L 28.515625 63.921875 
L 10.984375 60.40625 
L 10.984375 69.390625 
L 28.421875 72.90625 
L 38.28125 72.90625 
L 38.28125 8.296875 
L 54.390625 8.296875 
L 54.390625 0 
L 12.40625 0 
z
" id="DejaVuSans-49"/>
      </defs>
      <g transform="translate(54.41875 322.182437)scale(0.1 -0.1)">
       <use xlink:href="#DejaVuSans-49"/>
      </g>
     </g>
    </g>
    <g id="xtick_2">
     <g id="line2d_2">
      <g>
       <use style="stroke:#000000;stroke-width:0.8;" x="97.324138" xlink:href="#m856c22304d" y="307.584"/>
      </g>
     </g>
     <g id="text_2">
      <!-- 2 -->
      <defs>
       <path d="M 19.1875 8.296875 
L 53.609375 8.296875 
L 53.609375 0 
L 7.328125 0 
L 7.328125 8.296875 
Q 12.9375 14.109375 22.625 23.890625 
Q 32.328125 33.6875 34.8125 36.53125 
Q 39.546875 41.84375 41.421875 45.53125 
Q 43.3125 49.21875 43.3125 52.78125 
Q 43.3125 58.59375 39.234375 62.25 
Q 35.15625 65.921875 28.609375 65.921875 
Q 23.96875 65.921875 18.8125 64.3125 
Q 13.671875 62.703125 7.8125 59.421875 
L 7.8125 69.390625 
Q 13.765625 71.78125 18.9375 73 
Q 24.125 74.21875 28.421875 74.21875 
Q 39.75 74.21875 46.484375 68.546875 
Q 53.21875 62.890625 53.21875 53.421875 
Q 53.21875 48.921875 51.53125 44.890625 
Q 49.859375 40.875 45.40625 35.40625 
Q 44.1875 33.984375 37.640625 27.21875 
Q 31.109375 20.453125 19.1875 8.296875 
z
" id="DejaVuSans-50"/>
      </defs>
      <g transform="translate(94.142888 322.182437)scale(0.1 -0.1)">
       <use xlink:href="#DejaVuSans-50"/>
      </g>
     </g>
    </g>
    <g id="xtick_3">
     <g id="line2d_3">
      <g>
       <use style="stroke:#000000;stroke-width:0.8;" x="137.048276" xlink:href="#m856c22304d" y="307.584"/>
      </g>
     </g>
     <g id="text_3">
      <!-- 3 -->
      <defs>
       <path d="M 40.578125 39.3125 
Q 47.65625 37.796875 51.625 33 
Q 55.609375 28.21875 55.609375 21.1875 
Q 55.609375 10.40625 48.1875 4.484375 
Q 40.765625 -1.421875 27.09375 -1.421875 
Q 22.515625 -1.421875 17.65625 -0.515625 
Q 12.796875 0.390625 7.625 2.203125 
L 7.625 11.71875 
Q 11.71875 9.328125 16.59375 8.109375 
Q 21.484375 6.890625 26.8125 6.890625 
Q 36.078125 6.890625 40.9375 10.546875 
Q 45.796875 14.203125 45.796875 21.1875 
Q 45.796875 27.640625 41.28125 31.265625 
Q 36.765625 34.90625 28.71875 34.90625 
L 20.21875 34.90625 
L 20.21875 43.015625 
L 29.109375 43.015625 
Q 36.375 43.015625 40.234375 45.921875 
Q 44.09375 48.828125 44.09375 54.296875 
Q 44.09375 59.90625 40.109375 62.90625 
Q 36.140625 65.921875 28.71875 65.921875 
Q 24.65625 65.921875 20.015625 65.03125 
Q 15.375 64.15625 9.8125 62.3125 
L 9.8125 71.09375 
Q 15.4375 72.65625 20.34375 73.4375 
Q 25.25 74.21875 29.59375 74.21875 
Q 40.828125 74.21875 47.359375 69.109375 
Q 53.90625 64.015625 53.90625 55.328125 
Q 53.90625 49.265625 50.4375 45.09375 
Q 46.96875 40.921875 40.578125 39.3125 
z
" id="DejaVuSans-51"/>
      </defs>
      <g transform="translate(133.867026 322.182437)scale(0.1 -0.1)">
       <use xlink:href="#DejaVuSans-51"/>
      </g>
     </g>
    </g>
    <g id="xtick_4">
     <g id="line2d_4">
      <g>
       <use style="stroke:#000000;stroke-width:0.8;" x="176.772414" xlink:href="#m856c22304d" y="307.584"/>
      </g>
     </g>
     <g id="text_4">
      <!-- 4 -->
      <defs>
       <path d="M 37.796875 64.3125 
L 12.890625 25.390625 
L 37.796875 25.390625 
z
M 35.203125 72.90625 
L 47.609375 72.90625 
L 47.609375 25.390625 
L 58.015625 25.390625 
L 58.015625 17.1875 
L 47.609375 17.1875 
L 47.609375 0 
L 37.796875 0 
L 37.796875 17.1875 
L 4.890625 17.1875 
L 4.890625 26.703125 
z
" id="DejaVuSans-52"/>
      </defs>
      <g transform="translate(173.591164 322.182437)scale(0.1 -0.1)">
       <use xlink:href="#DejaVuSans-52"/>
      </g>
     </g>
    </g>
    <g id="xtick_5">
     <g id="line2d_5">
      <g>
       <use style="stroke:#000000;stroke-width:0.8;" x="216.496552" xlink:href="#m856c22304d" y="307.584"/>
      </g>
     </g>
     <g id="text_5">
      <!-- 5 -->
      <defs>
       <path d="M 10.796875 72.90625 
L 49.515625 72.90625 
L 49.515625 64.59375 
L 19.828125 64.59375 
L 19.828125 46.734375 
Q 21.96875 47.46875 24.109375 47.828125 
Q 26.265625 48.1875 28.421875 48.1875 
Q 40.625 48.1875 47.75 41.5 
Q 54.890625 34.8125 54.890625 23.390625 
Q 54.890625 11.625 47.5625 5.09375 
Q 40.234375 -1.421875 26.90625 -1.421875 
Q 22.3125 -1.421875 17.546875 -0.640625 
Q 12.796875 0.140625 7.71875 1.703125 
L 7.71875 11.625 
Q 12.109375 9.234375 16.796875 8.0625 
Q 21.484375 6.890625 26.703125 6.890625 
Q 35.15625 6.890625 40.078125 11.328125 
Q 45.015625 15.765625 45.015625 23.390625 
Q 45.015625 31 40.078125 35.4375 
Q 35.15625 39.890625 26.703125 39.890625 
Q 22.75 39.890625 18.8125 39.015625 
Q 14.890625 38.140625 10.796875 36.28125 
z
" id="DejaVuSans-53"/>
      </defs>
      <g transform="translate(213.315302 322.182437)scale(0.1 -0.1)">
       <use xlink:href="#DejaVuSans-53"/>
      </g>
     </g>
    </g>
    <g id="xtick_6">
     <g id="line2d_6">
      <g>
       <use style="stroke:#000000;stroke-width:0.8;" x="256.22069" xlink:href="#m856c22304d" y="307.584"/>
      </g>
     </g>
     <g id="text_6">
      <!-- 6 -->
      <defs>
       <path d="M 33.015625 40.375 
Q 26.375 40.375 22.484375 35.828125 
Q 18.609375 31.296875 18.609375 23.390625 
Q 18.609375 15.53125 22.484375 10.953125 
Q 26.375 6.390625 33.015625 6.390625 
Q 39.65625 6.390625 43.53125 10.953125 
Q 47.40625 15.53125 47.40625 23.390625 
Q 47.40625 31.296875 43.53125 35.828125 
Q 39.65625 40.375 33.015625 40.375 
z
M 52.59375 71.296875 
L 52.59375 62.3125 
Q 48.875 64.0625 45.09375 64.984375 
Q 41.3125 65.921875 37.59375 65.921875 
Q 27.828125 65.921875 22.671875 59.328125 
Q 17.53125 52.734375 16.796875 39.40625 
Q 19.671875 43.65625 24.015625 45.921875 
Q 28.375 48.1875 33.59375 48.1875 
Q 44.578125 48.1875 50.953125 41.515625 
Q 57.328125 34.859375 57.328125 23.390625 
Q 57.328125 12.15625 50.6875 5.359375 
Q 44.046875 -1.421875 33.015625 -1.421875 
Q 20.359375 -1.421875 13.671875 8.265625 
Q 6.984375 17.96875 6.984375 36.375 
Q 6.984375 53.65625 15.1875 63.9375 
Q 23.390625 74.21875 37.203125 74.21875 
Q 40.921875 74.21875 44.703125 73.484375 
Q 48.484375 72.75 52.59375 71.296875 
z
" id="DejaVuSans-54"/>
      </defs>
      <g transform="translate(253.03944 322.182437)scale(0.1 -0.1)">
       <use xlink:href="#DejaVuSans-54"/>
      </g>
     </g>
    </g>
    <g id="xtick_7">
     <g id="line2d_7">
      <g>
       <use style="stroke:#000000;stroke-width:0.8;" x="295.944828" xlink:href="#m856c22304d" y="307.584"/>
      </g>
     </g>
     <g id="text_7">
      <!-- 7 -->
      <defs>
       <path d="M 8.203125 72.90625 
L 55.078125 72.90625 
L 55.078125 68.703125 
L 28.609375 0 
L 18.3125 0 
L 43.21875 64.59375 
L 8.203125 64.59375 
z
" id="DejaVuSans-55"/>
      </defs>
      <g transform="translate(292.763578 322.182437)scale(0.1 -0.1)">
       <use xlink:href="#DejaVuSans-55"/>
      </g>
     </g>
    </g>
    <g id="xtick_8">
     <g id="line2d_8">
      <g>
       <use style="stroke:#000000;stroke-width:0.8;" x="335.668966" xlink:href="#m856c22304d" y="307.584"/>
      </g>
     </g>
     <g id="text_8">
      <!-- 8 -->
      <defs>
       <path d="M 31.78125 34.625 
Q 24.75 34.625 20.71875 30.859375 
Q 16.703125 27.09375 16.703125 20.515625 
Q 16.703125 13.921875 20.71875 10.15625 
Q 24.75 6.390625 31.78125 6.390625 
Q 38.8125 6.390625 42.859375 10.171875 
Q 46.921875 13.96875 46.921875 20.515625 
Q 46.921875 27.09375 42.890625 30.859375 
Q 38.875 34.625 31.78125 34.625 
z
M 21.921875 38.8125 
Q 15.578125 40.375 12.03125 44.71875 
Q 8.5 49.078125 8.5 55.328125 
Q 8.5 64.0625 14.71875 69.140625 
Q 20.953125 74.21875 31.78125 74.21875 
Q 42.671875 74.21875 48.875 69.140625 
Q 55.078125 64.0625 55.078125 55.328125 
Q 55.078125 49.078125 51.53125 44.71875 
Q 48 40.375 41.703125 38.8125 
Q 48.828125 37.15625 52.796875 32.3125 
Q 56.78125 27.484375 56.78125 20.515625 
Q 56.78125 9.90625 50.3125 4.234375 
Q 43.84375 -1.421875 31.78125 -1.421875 
Q 19.734375 -1.421875 13.25 4.234375 
Q 6.78125 9.90625 6.78125 20.515625 
Q 6.78125 27.484375 10.78125 32.3125 
Q 14.796875 37.15625 21.921875 38.8125 
z
M 18.3125 54.390625 
Q 18.3125 48.734375 21.84375 45.5625 
Q 25.390625 42.390625 31.78125 42.390625 
Q 38.140625 42.390625 41.71875 45.5625 
Q 45.3125 48.734375 45.3125 54.390625 
Q 45.3125 60.0625 41.71875 63.234375 
Q 38.140625 66.40625 31.78125 66.40625 
Q 25.390625 66.40625 21.84375 63.234375 
Q 18.3125 60.0625 18.3125 54.390625 
z
" id="DejaVuSans-56"/>
      </defs>
      <g transform="translate(332.487716 322.182437)scale(0.1 -0.1)">
       <use xlink:href="#DejaVuSans-56"/>
      </g>
     </g>
    </g>
    <g id="xtick_9">
     <g id="line2d_9">
      <g>
       <use style="stroke:#000000;stroke-width:0.8;" x="375.393103" xlink:href="#m856c22304d" y="307.584"/>
      </g>
     </g>
     <g id="text_9">
      <!-- 9 -->
      <defs>
       <path d="M 10.984375 1.515625 
L 10.984375 10.5 
Q 14.703125 8.734375 18.5 7.8125 
Q 22.3125 6.890625 25.984375 6.890625 
Q 35.75 6.890625 40.890625 13.453125 
Q 46.046875 20.015625 46.78125 33.40625 
Q 43.953125 29.203125 39.59375 26.953125 
Q 35.25 24.703125 29.984375 24.703125 
Q 19.046875 24.703125 12.671875 31.3125 
Q 6.296875 37.9375 6.296875 49.421875 
Q 6.296875 60.640625 12.9375 67.421875 
Q 19.578125 74.21875 30.609375 74.21875 
Q 43.265625 74.21875 49.921875 64.515625 
Q 56.59375 54.828125 56.59375 36.375 
Q 56.59375 19.140625 48.40625 8.859375 
Q 40.234375 -1.421875 26.421875 -1.421875 
Q 22.703125 -1.421875 18.890625 -0.6875 
Q 15.09375 0.046875 10.984375 1.515625 
z
M 30.609375 32.421875 
Q 37.25 32.421875 41.125 36.953125 
Q 45.015625 41.5 45.015625 49.421875 
Q 45.015625 57.28125 41.125 61.84375 
Q 37.25 66.40625 30.609375 66.40625 
Q 23.96875 66.40625 20.09375 61.84375 
Q 16.21875 57.28125 16.21875 49.421875 
Q 16.21875 41.5 20.09375 36.953125 
Q 23.96875 32.421875 30.609375 32.421875 
z
" id="DejaVuSans-57"/>
      </defs>
      <g transform="translate(372.211853 322.182437)scale(0.1 -0.1)">
       <use xlink:href="#DejaVuSans-57"/>
      </g>
     </g>
    </g>
    <g id="xtick_10">
     <g id="line2d_10">
      <g>
       <use style="stroke:#000000;stroke-width:0.8;" x="415.117241" xlink:href="#m856c22304d" y="307.584"/>
      </g>
     </g>
     <g id="text_10">
      <!-- 10 -->
      <defs>
       <path d="M 31.78125 66.40625 
Q 24.171875 66.40625 20.328125 58.90625 
Q 16.5 51.421875 16.5 36.375 
Q 16.5 21.390625 20.328125 13.890625 
Q 24.171875 6.390625 31.78125 6.390625 
Q 39.453125 6.390625 43.28125 13.890625 
Q 47.125 21.390625 47.125 36.375 
Q 47.125 51.421875 43.28125 58.90625 
Q 39.453125 66.40625 31.78125 66.40625 
z
M 31.78125 74.21875 
Q 44.046875 74.21875 50.515625 64.515625 
Q 56.984375 54.828125 56.984375 36.375 
Q 56.984375 17.96875 50.515625 8.265625 
Q 44.046875 -1.421875 31.78125 -1.421875 
Q 19.53125 -1.421875 13.0625 8.265625 
Q 6.59375 17.96875 6.59375 36.375 
Q 6.59375 54.828125 13.0625 64.515625 
Q 19.53125 74.21875 31.78125 74.21875 
z
" id="DejaVuSans-48"/>
      </defs>
      <g transform="translate(408.754741 322.182437)scale(0.1 -0.1)">
       <use xlink:href="#DejaVuSans-49"/>
       <use x="63.623047" xlink:href="#DejaVuSans-48"/>
      </g>
     </g>
    </g>
    <g id="text_11">
     <!-- Energy (keV) -->
     <defs>
      <path d="M 9.8125 72.90625 
L 55.90625 72.90625 
L 55.90625 64.59375 
L 19.671875 64.59375 
L 19.671875 43.015625 
L 54.390625 43.015625 
L 54.390625 34.71875 
L 19.671875 34.71875 
L 19.671875 8.296875 
L 56.78125 8.296875 
L 56.78125 0 
L 9.8125 0 
z
" id="DejaVuSans-69"/>
      <path d="M 54.890625 33.015625 
L 54.890625 0 
L 45.90625 0 
L 45.90625 32.71875 
Q 45.90625 40.484375 42.875 44.328125 
Q 39.84375 48.1875 33.796875 48.1875 
Q 26.515625 48.1875 22.3125 43.546875 
Q 18.109375 38.921875 18.109375 30.90625 
L 18.109375 0 
L 9.078125 0 
L 9.078125 54.6875 
L 18.109375 54.6875 
L 18.109375 46.1875 
Q 21.34375 51.125 25.703125 53.5625 
Q 30.078125 56 35.796875 56 
Q 45.21875 56 50.046875 50.171875 
Q 54.890625 44.34375 54.890625 33.015625 
z
" id="DejaVuSans-110"/>
      <path d="M 56.203125 29.59375 
L 56.203125 25.203125 
L 14.890625 25.203125 
Q 15.484375 15.921875 20.484375 11.0625 
Q 25.484375 6.203125 34.421875 6.203125 
Q 39.59375 6.203125 44.453125 7.46875 
Q 49.3125 8.734375 54.109375 11.28125 
L 54.109375 2.78125 
Q 49.265625 0.734375 44.1875 -0.34375 
Q 39.109375 -1.421875 33.890625 -1.421875 
Q 20.796875 -1.421875 13.15625 6.1875 
Q 5.515625 13.8125 5.515625 26.8125 
Q 5.515625 40.234375 12.765625 48.109375 
Q 20.015625 56 32.328125 56 
Q 43.359375 56 49.78125 48.890625 
Q 56.203125 41.796875 56.203125 29.59375 
z
M 47.21875 32.234375 
Q 47.125 39.59375 43.09375 43.984375 
Q 39.0625 48.390625 32.421875 48.390625 
Q 24.90625 48.390625 20.390625 44.140625 
Q 15.875 39.890625 15.1875 32.171875 
z
" id="DejaVuSans-101"/>
      <path d="M 41.109375 46.296875 
Q 39.59375 47.171875 37.8125 47.578125 
Q 36.03125 48 33.890625 48 
Q 26.265625 48 22.1875 43.046875 
Q 18.109375 38.09375 18.109375 28.8125 
L 18.109375 0 
L 9.078125 0 
L 9.078125 54.6875 
L 18.109375 54.6875 
L 18.109375 46.1875 
Q 20.953125 51.171875 25.484375 53.578125 
Q 30.03125 56 36.53125 56 
Q 37.453125 56 38.578125 55.875 
Q 39.703125 55.765625 41.0625 55.515625 
z
" id="DejaVuSans-114"/>
      <path d="M 45.40625 27.984375 
Q 45.40625 37.75 41.375 43.109375 
Q 37.359375 48.484375 30.078125 48.484375 
Q 22.859375 48.484375 18.828125 43.109375 
Q 14.796875 37.75 14.796875 27.984375 
Q 14.796875 18.265625 18.828125 12.890625 
Q 22.859375 7.515625 30.078125 7.515625 
Q 37.359375 7.515625 41.375 12.890625 
Q 45.40625 18.265625 45.40625 27.984375 
z
M 54.390625 6.78125 
Q 54.390625 -7.171875 48.1875 -13.984375 
Q 42 -20.796875 29.203125 -20.796875 
Q 24.46875 -20.796875 20.265625 -20.09375 
Q 16.0625 -19.390625 12.109375 -17.921875 
L 12.109375 -9.1875 
Q 16.0625 -11.328125 19.921875 -12.34375 
Q 23.78125 -13.375 27.78125 -13.375 
Q 36.625 -13.375 41.015625 -8.765625 
Q 45.40625 -4.15625 45.40625 5.171875 
L 45.40625 9.625 
Q 42.625 4.78125 38.28125 2.390625 
Q 33.9375 0 27.875 0 
Q 17.828125 0 11.671875 7.65625 
Q 5.515625 15.328125 5.515625 27.984375 
Q 5.515625 40.671875 11.671875 48.328125 
Q 17.828125 56 27.875 56 
Q 33.9375 56 38.28125 53.609375 
Q 42.625 51.21875 45.40625 46.390625 
L 45.40625 54.6875 
L 54.390625 54.6875 
z
" id="DejaVuSans-103"/>
      <path d="M 32.171875 -5.078125 
Q 28.375 -14.84375 24.75 -17.8125 
Q 21.140625 -20.796875 15.09375 -20.796875 
L 7.90625 -20.796875 
L 7.90625 -13.28125 
L 13.1875 -13.28125 
Q 16.890625 -13.28125 18.9375 -11.515625 
Q 21 -9.765625 23.484375 -3.21875 
L 25.09375 0.875 
L 2.984375 54.6875 
L 12.5 54.6875 
L 29.59375 11.921875 
L 46.6875 54.6875 
L 56.203125 54.6875 
z
" id="DejaVuSans-121"/>
      <path id="DejaVuSans-32"/>
      <path d="M 31 75.875 
Q 24.46875 64.65625 21.28125 53.65625 
Q 18.109375 42.671875 18.109375 31.390625 
Q 18.109375 20.125 21.3125 9.0625 
Q 24.515625 -2 31 -13.1875 
L 23.1875 -13.1875 
Q 15.875 -1.703125 12.234375 9.375 
Q 8.59375 20.453125 8.59375 31.390625 
Q 8.59375 42.28125 12.203125 53.3125 
Q 15.828125 64.359375 23.1875 75.875 
z
" id="DejaVuSans-40"/>
      <path d="M 9.078125 75.984375 
L 18.109375 75.984375 
L 18.109375 31.109375 
L 44.921875 54.6875 
L 56.390625 54.6875 
L 27.390625 29.109375 
L 57.625 0 
L 45.90625 0 
L 18.109375 26.703125 
L 18.109375 0 
L 9.078125 0 
z
" id="DejaVuSans-107"/>
      <path d="M 28.609375 0 
L 0.78125 72.90625 
L 11.078125 72.90625 
L 34.1875 11.53125 
L 57.328125 72.90625 
L 67.578125 72.90625 
L 39.796875 0 
z
" id="DejaVuSans-86"/>
      <path d="M 8.015625 75.875 
L 15.828125 75.875 
Q 23.140625 64.359375 26.78125 53.3125 
Q 30.421875 42.28125 30.421875 31.390625 
Q 30.421875 20.453125 26.78125 9.375 
Q 23.140625 -1.703125 15.828125 -13.1875 
L 8.015625 -13.1875 
Q 14.5 -2 17.703125 9.0625 
Q 20.90625 20.125 20.90625 31.390625 
Q 20.90625 42.671875 17.703125 53.65625 
Q 14.5 64.65625 8.015625 75.875 
z
" id="DejaVuSans-41"/>
     </defs>
     <g transform="translate(203.686562 335.860562)scale(0.1 -0.1)">
      <use xlink:href="#DejaVuSans-69"/>
      <use x="63.183594" xlink:href="#DejaVuSans-110"/>
      <use x="126.5625" xlink:href="#DejaVuSans-101"/>
      <use x="188.085938" xlink:href="#DejaVuSans-114"/>
      <use x="229.183594" xlink:href="#DejaVuSans-103"/>
      <use x="292.660156" xlink:href="#DejaVuSans-121"/>
      <use x="351.839844" xlink:href="#DejaVuSans-32"/>
      <use x="383.626953" xlink:href="#DejaVuSans-40"/>
      <use x="422.640625" xlink:href="#DejaVuSans-107"/>
      <use x="480.503906" xlink:href="#DejaVuSans-101"/>
      <use x="542.027344" xlink:href="#DejaVuSans-86"/>
      <use x="610.435547" xlink:href="#DejaVuSans-41"/>
     </g>
    </g>
   </g>
   <g id="matplotlib.axis_2">
    <g id="ytick_1">
     <g id="line2d_11">
      <defs>
       <path d="M 0 0 
L -3.5 0 
" id="mc9b4c2ba0e" style="stroke:#000000;stroke-width:0.8;"/>
      </defs>
      <g>
       <use style="stroke:#000000;stroke-width:0.8;" x="57.6" xlink:href="#mc9b4c2ba0e" y="307.528915"/>
      </g>
     </g>
     <g id="text_12">
      <!-- 0 -->
      <g transform="translate(44.2375 311.328134)scale(0.1 -0.1)">
       <use xlink:href="#DejaVuSans-48"/>
      </g>
     </g>
    </g>
    <g id="ytick_2">
     <g id="line2d_12">
      <g>
       <use style="stroke:#000000;stroke-width:0.8;" x="57.6" xlink:href="#mc9b4c2ba0e" y="248.405156"/>
      </g>
     </g>
     <g id="text_13">
      <!-- 20 -->
      <g transform="translate(37.875 252.204375)scale(0.1 -0.1)">
       <use xlink:href="#DejaVuSans-50"/>
       <use x="63.623047" xlink:href="#DejaVuSans-48"/>
      </g>
     </g>
    </g>
    <g id="ytick_3">
     <g id="line2d_13">
      <g>
       <use style="stroke:#000000;stroke-width:0.8;" x="57.6" xlink:href="#mc9b4c2ba0e" y="189.281397"/>
      </g>
     </g>
     <g id="text_14">
      <!-- 40 -->
      <g transform="translate(37.875 193.080616)scale(0.1 -0.1)">
       <use xlink:href="#DejaVuSans-52"/>
       <use x="63.623047" xlink:href="#DejaVuSans-48"/>
      </g>
     </g>
    </g>
    <g id="ytick_4">
     <g id="line2d_14">
      <g>
       <use style="stroke:#000000;stroke-width:0.8;" x="57.6" xlink:href="#mc9b4c2ba0e" y="130.157638"/>
      </g>
     </g>
     <g id="text_15">
      <!-- 60 -->
      <g transform="translate(37.875 133.956857)scale(0.1 -0.1)">
       <use xlink:href="#DejaVuSans-54"/>
       <use x="63.623047" xlink:href="#DejaVuSans-48"/>
      </g>
     </g>
    </g>
    <g id="ytick_5">
     <g id="line2d_15">
      <g>
       <use style="stroke:#000000;stroke-width:0.8;" x="57.6" xlink:href="#mc9b4c2ba0e" y="71.033879"/>
      </g>
     </g>
     <g id="text_16">
      <!-- 80 -->
      <g transform="translate(37.875 74.833098)scale(0.1 -0.1)">
       <use xlink:href="#DejaVuSans-56"/>
       <use x="63.623047" xlink:href="#DejaVuSans-48"/>
      </g>
     </g>
    </g>
    <g id="text_17">
     <!-- Intensity -->
     <defs>
      <path d="M 9.8125 72.90625 
L 19.671875 72.90625 
L 19.671875 0 
L 9.8125 0 
z
" id="DejaVuSans-73"/>
      <path d="M 18.3125 70.21875 
L 18.3125 54.6875 
L 36.8125 54.6875 
L 36.8125 47.703125 
L 18.3125 47.703125 
L 18.3125 18.015625 
Q 18.3125 11.328125 20.140625 9.421875 
Q 21.96875 7.515625 27.59375 7.515625 
L 36.8125 7.515625 
L 36.8125 0 
L 27.59375 0 
Q 17.1875 0 13.234375 3.875 
Q 9.28125 7.765625 9.28125 18.015625 
L 9.28125 47.703125 
L 2.6875 47.703125 
L 2.6875 54.6875 
L 9.28125 54.6875 
L 9.28125 70.21875 
z
" id="DejaVuSans-116"/>
      <path d="M 44.28125 53.078125 
L 44.28125 44.578125 
Q 40.484375 46.53125 36.375 47.5 
Q 32.28125 48.484375 27.875 48.484375 
Q 21.1875 48.484375 17.84375 46.4375 
Q 14.5 44.390625 14.5 40.28125 
Q 14.5 37.15625 16.890625 35.375 
Q 19.28125 33.59375 26.515625 31.984375 
L 29.59375 31.296875 
Q 39.15625 29.25 43.1875 25.515625 
Q 47.21875 21.78125 47.21875 15.09375 
Q 47.21875 7.46875 41.1875 3.015625 
Q 35.15625 -1.421875 24.609375 -1.421875 
Q 20.21875 -1.421875 15.453125 -0.5625 
Q 10.6875 0.296875 5.421875 2 
L 5.421875 11.28125 
Q 10.40625 8.6875 15.234375 7.390625 
Q 20.0625 6.109375 24.8125 6.109375 
Q 31.15625 6.109375 34.5625 8.28125 
Q 37.984375 10.453125 37.984375 14.40625 
Q 37.984375 18.0625 35.515625 20.015625 
Q 33.0625 21.96875 24.703125 23.78125 
L 21.578125 24.515625 
Q 13.234375 26.265625 9.515625 29.90625 
Q 5.8125 33.546875 5.8125 39.890625 
Q 5.8125 47.609375 11.28125 51.796875 
Q 16.75 56 26.8125 56 
Q 31.78125 56 36.171875 55.265625 
Q 40.578125 54.546875 44.28125 53.078125 
z
" id="DejaVuSans-115"/>
      <path d="M 9.421875 54.6875 
L 18.40625 54.6875 
L 18.40625 0 
L 9.421875 0 
z
M 9.421875 75.984375 
L 18.40625 75.984375 
L 18.40625 64.59375 
L 9.421875 64.59375 
z
" id="DejaVuSans-105"/>
     </defs>
     <g transform="translate(31.795312 196.2905)rotate(-90)scale(0.1 -0.1)">
      <use xlink:href="#DejaVuSans-73"/>
      <use x="29.492188" xlink:href="#DejaVuSans-110"/>
      <use x="92.871094" xlink:href="#DejaVuSans-116"/>
      <use x="132.080078" xlink:href="#DejaVuSans-101"/>
      <use x="193.603516" xlink:href="#DejaVuSans-110"/>
      <use x="256.982422" xlink:href="#DejaVuSans-115"/>
      <use x="309.082031" xlink:href="#DejaVuSans-105"/>
      <use x="336.865234" xlink:href="#DejaVuSans-116"/>
      <use x="376.074219" xlink:href="#DejaVuSans-121"/>
     </g>
    </g>
   </g>
   <g id="line2d_16">
    <path clip-path="url(#p5b5684f6c1)" d="M 57.6 303.978904 
L 57.997241 304.563302 
L 58.394483 304.502205 
L 58.791724 304.854944 
L 59.188966 304.601862 
L 59.586207 304.760009 
L 59.983448 304.753716 
L 60.38069 304.882469 
L 61.175172 304.499975 
L 61.969655 304.525354 
L 63.161379 304.776052 
L 63.558621 304.643304 
L 63.955862 304.869217 
L 64.750345 304.960887 
L 65.942069 304.96379 
L 66.736552 305.165401 
L 67.133793 305.210312 
L 67.531034 304.927695 
L 68.722759 305.21368 
L 69.12 305.002975 
L 69.517241 305.114 
L 69.914483 304.885804 
L 70.311724 305.189442 
L 70.708966 304.806531 
L 71.106207 305.08522 
L 71.90069 305.215544 
L 72.297931 304.860963 
L 73.092414 305.221723 
L 73.489655 304.788521 
L 73.886897 305.225862 
L 74.284138 304.974493 
L 75.475862 305.07419 
L 75.873103 304.753059 
L 76.270345 305.010637 
L 76.667586 305.046637 
L 77.064828 304.706648 
L 77.462069 305.007171 
L 77.85931 304.846283 
L 78.256552 305.036006 
L 78.653793 304.968497 
L 79.051034 304.699222 
L 79.448276 304.939473 
L 79.845517 304.731467 
L 80.242759 304.833318 
L 81.831724 304.660069 
L 82.228966 304.454615 
L 82.626207 304.564061 
L 83.023448 304.488758 
L 83.42069 304.2731 
L 85.009655 304.401818 
L 85.406897 304.736019 
L 85.804138 304.522801 
L 86.201379 304.456635 
L 86.598621 304.738552 
L 88.584828 305.110948 
L 88.982069 304.907108 
L 90.571034 305.176509 
L 90.968276 305.065261 
L 91.365517 305.260883 
L 92.16 305.243571 
L 92.954483 305.483488 
L 93.351724 305.37008 
L 93.748966 305.52379 
L 94.146207 305.431673 
L 94.543448 305.497658 
L 95.337931 305.320574 
L 95.735172 305.522787 
L 96.529655 305.492539 
L 96.926897 305.371854 
L 97.324138 305.610688 
L 97.721379 305.451916 
L 98.118621 305.581959 
L 98.515862 305.413625 
L 99.707586 305.555449 
L 100.104828 305.428169 
L 100.89931 305.4871 
L 101.296552 305.4731 
L 101.693793 305.332404 
L 102.091034 305.518412 
L 102.885517 305.39832 
L 103.282759 305.492007 
L 103.68 305.397301 
L 104.077241 305.599192 
L 104.474483 305.576299 
L 104.871724 305.694207 
L 105.268966 305.459428 
L 105.666207 305.582684 
L 106.063448 305.492182 
L 106.46069 305.621788 
L 106.857931 305.63126 
L 107.255172 305.523541 
L 107.652414 305.532426 
L 108.049655 305.684985 
L 109.241379 305.48368 
L 110.035862 305.712866 
L 110.433103 305.537672 
L 111.227586 305.748326 
L 111.624828 305.496109 
L 112.022069 305.653576 
L 112.41931 305.577895 
L 112.816552 305.624181 
L 113.213793 305.527392 
L 115.2 305.636639 
L 116.788966 305.402612 
L 117.186207 305.632687 
L 117.98069 305.726692 
L 118.377931 305.544539 
L 119.569655 305.720294 
L 119.966897 305.529857 
L 120.761379 305.54171 
L 121.158621 305.580305 
L 121.555862 305.759579 
L 122.350345 305.564675 
L 123.144828 305.653657 
L 123.542069 305.486187 
L 124.336552 305.769927 
L 126.72 305.610982 
L 127.117241 305.89732 
L 127.514483 305.578479 
L 129.50069 305.845253 
L 129.897931 305.642288 
L 130.692414 305.758481 
L 131.089655 305.63417 
L 131.884138 305.822015 
L 132.678621 305.686144 
L 133.075862 305.713591 
L 133.473103 305.61222 
L 133.870345 305.737022 
L 134.267586 305.607692 
L 135.062069 305.601168 
L 135.45931 305.481693 
L 137.048276 305.670638 
L 137.445517 305.617304 
L 137.842759 305.771325 
L 138.24 305.657123 
L 139.034483 305.790396 
L 141.417931 305.914968 
L 141.815172 305.783277 
L 142.212414 306.027153 
L 142.609655 305.880395 
L 144.595862 305.823188 
L 144.993103 305.975984 
L 145.787586 305.896391 
L 146.582069 305.924214 
L 146.97931 305.740544 
L 148.568276 306.07089 
L 149.76 305.940927 
L 150.157241 306.044707 
L 151.348966 305.952204 
L 151.746207 306.159083 
L 152.143448 306.032188 
L 152.54069 306.15044 
L 153.335172 306.079486 
L 159.691034 306.103746 
L 160.088276 306.297024 
L 161.677241 306.183234 
L 162.074483 306.337877 
L 162.868966 306.220904 
L 164.06069 306.397436 
L 164.457931 306.218231 
L 165.252414 306.469971 
L 165.649655 306.295008 
L 166.046897 306.276158 
L 166.444138 306.434371 
L 167.635862 306.306565 
L 168.033103 306.478274 
L 168.430345 306.353392 
L 170.813793 306.375376 
L 171.211034 306.295685 
L 171.608276 306.487055 
L 172.402759 306.447699 
L 175.183448 306.431158 
L 175.58069 306.35976 
L 175.977931 306.479065 
L 180.347586 306.464778 
L 180.744828 306.6228 
L 181.53931 306.630984 
L 181.936552 306.383217 
L 182.333793 306.60127 
L 183.128276 306.553581 
L 184.717241 306.563489 
L 185.114483 306.503946 
L 185.511724 306.62613 
L 185.908966 306.537994 
L 186.306207 306.724773 
L 186.703448 306.612361 
L 187.10069 306.621474 
L 187.497931 306.499397 
L 187.895172 306.692042 
L 188.689655 306.54686 
L 189.484138 306.569348 
L 189.881379 306.520143 
L 190.278621 306.696404 
L 191.073103 306.601104 
L 192.264828 306.638178 
L 193.05931 306.633123 
L 193.456552 306.682149 
L 193.853793 306.437268 
L 194.251034 306.695799 
L 194.648276 306.49995 
L 195.045517 306.664622 
L 195.442759 306.559858 
L 195.84 306.654217 
L 196.237241 306.559442 
L 197.031724 306.621721 
L 198.223448 306.65425 
L 198.62069 306.711182 
L 199.812414 306.581278 
L 200.209655 306.693927 
L 200.606897 306.633417 
L 201.401379 306.683043 
L 203.784828 306.636556 
L 204.182069 306.76455 
L 205.771034 306.617793 
L 206.168276 306.740011 
L 207.757241 306.601856 
L 208.154483 306.744499 
L 209.743448 306.629562 
L 210.14069 306.717672 
L 211.729655 306.648003 
L 212.126897 306.782106 
L 212.524138 306.604932 
L 213.715862 306.770458 
L 214.510345 306.648934 
L 215.304828 306.806275 
L 215.702069 306.681878 
L 216.496552 306.756396 
L 217.291034 306.702242 
L 217.688276 306.708105 
L 218.085517 306.830644 
L 218.482759 306.596827 
L 218.88 306.714207 
L 219.277241 306.606816 
L 219.674483 306.759402 
L 220.468966 306.656938 
L 221.263448 306.744538 
L 222.455172 306.6894 
L 223.646897 306.768994 
L 224.044138 306.625252 
L 225.235862 306.765718 
L 225.633103 306.791036 
L 226.030345 306.701689 
L 226.427586 306.778783 
L 226.824828 306.731913 
L 227.222069 306.567531 
L 227.61931 306.703765 
L 228.016552 306.638847 
L 228.413793 306.747825 
L 228.811034 306.461864 
L 229.208276 306.629214 
L 229.605517 306.414218 
L 230.002759 306.613059 
L 230.4 306.593127 
L 230.797241 306.733535 
L 231.194483 306.281374 
L 231.591724 306.942511 
L 231.988966 306.498468 
L 232.783448 306.67681 
L 233.18069 306.788669 
L 233.577931 306.230924 
L 233.975172 306.604725 
L 234.372414 306.738692 
L 234.769655 307.230498 
L 235.166897 306.492993 
L 235.564138 306.522272 
L 235.961379 307.088397 
L 236.358621 306.435521 
L 236.755862 306.758012 
L 237.153103 306.565929 
L 237.550345 306.747987 
L 238.742069 306.427185 
L 239.13931 306.650491 
L 239.933793 306.566626 
L 240.331034 306.612239 
L 241.125517 306.432103 
L 241.522759 306.523095 
L 242.317241 306.369938 
L 243.111724 306.144892 
L 243.508966 306.152442 
L 243.906207 306.016581 
L 244.70069 306.068699 
L 245.097931 305.983817 
L 247.481379 306.226925 
L 248.673103 306.554186 
L 249.070345 306.466515 
L 249.467586 306.728053 
L 249.864828 306.430359 
L 250.262069 306.44389 
L 250.65931 306.665622 
L 251.056552 306.631323 
L 251.453793 306.754289 
L 253.042759 306.679134 
L 253.44 306.482523 
L 253.837241 306.712233 
L 254.234483 306.53367 
L 254.631724 306.819109 
L 255.028966 306.571808 
L 255.426207 306.765781 
L 255.823448 306.796978 
L 256.22069 306.565743 
L 256.617931 306.867934 
L 257.015172 306.404045 
L 257.412414 306.700418 
L 257.809655 306.583071 
L 258.604138 306.631342 
L 259.398621 306.523342 
L 263.371034 306.509733 
L 263.768276 306.607502 
L 265.357241 306.428227 
L 265.754483 306.546163 
L 266.151724 306.380422 
L 266.548966 306.413685 
L 266.946207 306.214912 
L 267.74069 306.371215 
L 268.137931 306.297674 
L 268.535172 306.372832 
L 269.329655 306.128012 
L 269.726897 306.235153 
L 270.124138 306.204882 
L 270.521379 305.947446 
L 270.918621 306.065801 
L 272.110345 305.997941 
L 272.507586 305.846823 
L 273.302069 306.070673 
L 273.69931 306.139075 
L 274.891034 306.000624 
L 275.288276 306.08772 
L 275.685517 305.951287 
L 276.082759 306.235726 
L 276.48 306.084897 
L 278.863448 305.971293 
L 279.26069 305.884055 
L 281.246897 305.943353 
L 282.438621 305.765056 
L 282.835862 305.66855 
L 283.233103 305.935499 
L 283.630345 305.679829 
L 284.027586 305.55805 
L 284.424828 305.651939 
L 285.616552 305.462744 
L 286.013793 305.557003 
L 286.411034 305.208956 
L 286.808276 305.343075 
L 287.602759 305.267628 
L 288 305.370957 
L 288.397241 305.189161 
L 288.794483 305.373914 
L 289.986207 304.949775 
L 290.383448 305.055336 
L 291.177931 304.900684 
L 291.575172 304.866275 
L 291.972414 304.650854 
L 292.369655 304.730391 
L 292.766897 304.541315 
L 293.164138 304.573323 
L 293.561379 304.43124 
L 294.355862 304.470027 
L 295.150345 304.258267 
L 295.944828 304.303074 
L 296.342069 304.051812 
L 297.136552 304.036349 
L 297.931034 303.960698 
L 298.725517 303.808109 
L 299.122759 303.648875 
L 299.52 303.762889 
L 301.903448 303.194647 
L 302.30069 303.032711 
L 302.697931 303.070259 
L 303.095172 302.685531 
L 303.492414 302.458354 
L 304.684138 302.176945 
L 305.081379 301.407899 
L 305.478621 301.261067 
L 305.875862 300.332047 
L 306.273103 299.925524 
L 307.067586 297.068153 
L 307.862069 291.630484 
L 308.25931 287.17474 
L 309.053793 273.789139 
L 309.848276 251.516898 
L 310.642759 221.756929 
L 311.437241 181.674891 
L 312.628966 116.784931 
L 313.423448 82.727555 
L 313.82069 70.128311 
L 314.217931 67.27554 
L 314.615172 66.431147 
L 315.012414 71.836334 
L 315.409655 81.392633 
L 316.204138 113.731058 
L 318.587586 239.078098 
L 319.382069 266.98896 
L 320.176552 285.162514 
L 320.971034 295.557479 
L 321.765517 301.427591 
L 322.56 304.128658 
L 323.354483 305.202199 
L 323.751724 305.655091 
L 324.546207 305.972621 
L 325.737931 306.059916 
L 326.532414 306.140109 
L 326.929655 306.118822 
L 327.326897 306.24574 
L 327.724138 306.110573 
L 329.313103 306.13724 
L 330.107586 306.005497 
L 330.504828 306.236483 
L 331.29931 306.125636 
L 332.491034 305.891871 
L 332.888276 305.955885 
L 333.285517 305.807211 
L 333.682759 305.934424 
L 334.08 305.608767 
L 334.477241 305.753923 
L 335.668966 305.544876 
L 336.066207 305.573817 
L 338.052414 304.871021 
L 338.449655 304.27363 
L 338.846897 304.088727 
L 339.244138 303.535285 
L 339.641379 302.490138 
L 340.038621 301.805754 
L 340.435862 300.73926 
L 341.627586 295.362751 
L 342.422069 291.214232 
L 343.613793 282.595826 
L 344.011034 280.647139 
L 344.408276 277.782351 
L 345.202759 275.439824 
L 345.6 274.684582 
L 345.997241 275.229439 
L 346.394483 275.311811 
L 347.188966 278.432967 
L 347.983448 283.30817 
L 350.366897 298.628617 
L 350.764138 299.889694 
L 351.161379 301.619699 
L 351.955862 303.708151 
L 352.750345 305.308398 
L 353.544828 305.977844 
L 354.33931 306.503375 
L 355.133793 306.808065 
L 355.531034 306.73595 
L 356.325517 306.955866 
L 356.722759 306.900278 
L 357.517241 307.017465 
L 357.914483 307.044453 
L 358.311724 306.895057 
L 361.489655 307.044736 
L 361.886897 306.988532 
L 362.681379 307.057321 
L 369.434483 307.084181 
L 370.228966 307.074972 
L 372.612414 306.974879 
L 374.995862 306.986369 
L 375.393103 306.925657 
L 375.790345 306.980143 
L 376.584828 306.865031 
L 378.968276 306.820965 
L 379.762759 306.770638 
L 381.351724 306.731311 
L 382.543448 306.633062 
L 383.337931 306.757812 
L 384.132414 306.661782 
L 384.926897 306.789183 
L 385.324138 306.685546 
L 385.721379 306.838346 
L 386.913103 306.75244 
L 387.310345 306.925263 
L 389.693793 306.932453 
L 390.488276 307.09069 
L 390.885517 307.003971 
L 392.077241 307.059361 
L 392.474483 307.013558 
L 392.871724 307.085368 
L 393.268966 307.034188 
L 394.063448 307.079915 
L 394.857931 307.003944 
L 396.049655 307.047577 
L 396.446897 307.135301 
L 396.844138 307.037757 
L 397.241379 307.120294 
L 398.035862 307.073871 
L 400.41931 307.072663 
L 402.008276 306.996658 
L 404.391724 307.070183 
L 404.788966 306.997801 
L 406.775172 307.1001 
L 407.569655 307.057114 
L 409.158621 307.078559 
L 412.733793 307.086015 
L 413.131034 307.044308 
L 413.528276 307.15527 
L 414.72 307.025209 
L 414.72 307.025209 
" style="fill:none;stroke:#1f77b4;stroke-linecap:square;stroke-width:1.5;"/>
   </g>
   <g id="line2d_17">
    <path clip-path="url(#p5b5684f6c1)" d="M 57.6 305.52628 
L 58.394483 305.559536 
L 59.586207 305.224742 
L 61.969655 304.850581 
L 62.366897 305.026061 
L 63.161379 304.923559 
L 63.558621 305.348123 
L 63.955862 305.277412 
L 64.750345 305.543507 
L 65.544828 305.678611 
L 66.33931 305.652818 
L 66.736552 305.831364 
L 67.133793 305.839915 
L 67.531034 305.623661 
L 67.928276 305.669427 
L 68.325517 305.601818 
L 69.914483 305.813415 
L 70.311724 305.685531 
L 71.106207 305.842997 
L 72.695172 305.648271 
L 73.092414 305.875572 
L 73.489655 305.567719 
L 74.681379 305.753934 
L 75.873103 305.677859 
L 76.270345 305.751829 
L 76.667586 305.562222 
L 77.064828 305.706899 
L 78.256552 305.677184 
L 79.051034 305.749873 
L 79.448276 305.782709 
L 79.845517 305.949074 
L 80.242759 305.91912 
L 80.64 305.768869 
L 81.831724 305.95229 
L 82.228966 305.85005 
L 83.817931 305.997572 
L 85.009655 305.894423 
L 85.406897 305.874607 
L 85.804138 305.978198 
L 86.598621 305.725381 
L 87.393103 306.280759 
L 87.790345 305.81014 
L 88.187586 305.607096 
L 88.982069 305.771581 
L 89.37931 305.792824 
L 89.776552 305.973259 
L 90.173793 305.857912 
L 90.571034 305.994727 
L 90.968276 305.784205 
L 91.762759 305.934841 
L 93.748966 306.109218 
L 94.146207 305.950957 
L 94.543448 306.16918 
L 96.529655 306.026442 
L 96.926897 306.155059 
L 97.721379 306.065135 
L 98.118621 306.154304 
L 98.515862 306.115773 
L 98.913103 306.240809 
L 99.310345 306.030298 
L 100.104828 306.209329 
L 100.502069 306.064743 
L 100.89931 306.200224 
L 102.488276 306.150344 
L 108.446897 306.234122 
L 109.241379 306.19383 
L 110.035862 306.270931 
L 110.433103 306.182901 
L 110.830345 306.261631 
L 111.227586 306.140689 
L 112.41931 306.341463 
L 112.816552 306.210475 
L 113.213793 306.323032 
L 113.611034 306.179606 
L 114.008276 306.32016 
L 114.405517 306.245535 
L 114.802759 306.333233 
L 115.597241 306.277523 
L 116.391724 306.301341 
L 116.788966 306.377908 
L 117.98069 306.234241 
L 118.377931 306.430332 
L 118.775172 306.244351 
L 119.966897 306.41667 
L 121.158621 306.289157 
L 121.555862 306.380204 
L 122.747586 306.377264 
L 123.93931 306.38847 
L 125.528276 306.367837 
L 126.322759 306.408586 
L 127.117241 306.319357 
L 127.514483 306.417126 
L 127.911724 306.340791 
L 128.308966 306.438737 
L 128.706207 306.394019 
L 129.103448 306.48126 
L 129.50069 306.244944 
L 129.897931 306.460493 
L 130.692414 306.364394 
L 131.089655 306.353684 
L 131.486897 306.539568 
L 132.678621 306.255878 
L 133.075862 306.49191 
L 133.473103 306.344835 
L 133.870345 306.377399 
L 134.267586 306.291446 
L 134.664828 306.462288 
L 135.062069 306.316982 
L 137.048276 306.358945 
L 137.445517 306.490052 
L 137.842759 306.375352 
L 141.815172 306.523999 
L 142.609655 306.495539 
L 143.006897 306.640079 
L 143.404138 306.493192 
L 143.801379 306.547407 
L 144.595862 306.499461 
L 146.184828 306.583696 
L 147.773793 306.563797 
L 148.171034 306.634068 
L 148.568276 306.548194 
L 149.362759 306.611256 
L 150.554483 306.564227 
L 150.951724 306.692616 
L 153.335172 306.601037 
L 154.129655 306.609273 
L 158.49931 306.585889 
L 158.896552 306.431466 
L 159.293793 306.488577 
L 159.691034 306.412467 
L 160.088276 306.21918 
L 160.485517 306.215605 
L 162.074483 305.572425 
L 162.471724 305.733218 
L 163.266207 305.494419 
L 163.663448 305.458613 
L 164.855172 305.761037 
L 165.252414 305.825418 
L 165.649655 306.107134 
L 166.444138 306.265787 
L 167.238621 306.602953 
L 167.635862 306.573715 
L 168.827586 306.778554 
L 170.813793 306.785628 
L 172.005517 306.765421 
L 172.8 306.8521 
L 173.594483 306.742412 
L 173.991724 306.915109 
L 174.388966 306.793353 
L 175.183448 306.781144 
L 181.936552 306.771864 
L 182.731034 306.702113 
L 185.908966 306.651174 
L 186.306207 306.581302 
L 187.10069 306.711034 
L 187.497931 306.75462 
L 187.895172 306.663736 
L 188.292414 306.757802 
L 188.689655 306.629519 
L 189.086897 306.745258 
L 189.484138 306.710314 
L 189.881379 306.789338 
L 191.073103 306.729256 
L 193.456552 306.714704 
L 193.853793 306.768914 
L 194.251034 306.646342 
L 194.648276 306.723901 
L 195.84 306.579608 
L 201.798621 306.392874 
L 202.593103 306.359572 
L 203.387586 306.296555 
L 204.182069 306.206091 
L 204.57931 306.02811 
L 205.373793 306.210112 
L 205.771034 306.139755 
L 206.168276 305.946933 
L 206.565517 306.134578 
L 206.962759 305.986885 
L 208.154483 305.983301 
L 210.537931 305.444052 
L 214.510345 304.801223 
L 215.304828 304.884917 
L 216.09931 304.612672 
L 218.88 304.03321 
L 220.866207 303.42634 
L 221.263448 303.219787 
L 221.66069 303.376113 
L 222.057931 303.011555 
L 222.455172 302.983741 
L 222.852414 302.790189 
L 223.249655 302.433704 
L 224.044138 302.028413 
L 225.235862 300.675916 
L 226.030345 298.371553 
L 226.427586 296.38487 
L 227.222069 289.509468 
L 227.61931 283.878195 
L 228.016552 276.572063 
L 228.811034 253.291554 
L 229.605517 219.237138 
L 231.988966 93.175724 
L 232.386207 83.90471 
L 232.783448 78.140916 
L 233.18069 82.53398 
L 233.577931 90.968029 
L 233.975172 104.30202 
L 234.769655 147.102797 
L 236.358621 236.12786 
L 237.153103 266.913894 
L 237.550345 278.643414 
L 238.344828 293.128839 
L 238.742069 297.71696 
L 239.13931 300.746682 
L 239.933793 304.22828 
L 240.331034 304.939682 
L 241.125517 305.624289 
L 242.714483 306.034801 
L 243.111724 305.894229 
L 243.906207 306.085634 
L 244.70069 305.847448 
L 245.892414 305.640646 
L 247.084138 305.112392 
L 247.481379 304.602719 
L 247.878621 304.320314 
L 248.673103 302.872458 
L 249.070345 301.847767 
L 249.864828 298.89908 
L 251.056552 291.850402 
L 251.851034 286.025853 
L 253.042759 278.888478 
L 253.837241 276.61737 
L 254.234483 277.193428 
L 254.631724 278.234204 
L 255.028966 279.67368 
L 256.22069 287.508421 
L 257.809655 298.203959 
L 258.604138 302.17352 
L 259.398621 304.399438 
L 260.193103 305.900959 
L 260.590345 306.389581 
L 260.987586 306.489025 
L 261.384828 306.772031 
L 262.576552 307.011997 
L 263.371034 307.02605 
L 265.754483 307.016647 
L 266.946207 307.01997 
L 268.137931 307.0101 
L 268.535172 306.908991 
L 268.932414 306.985555 
L 269.726897 306.965774 
L 270.124138 306.963014 
L 270.521379 306.831598 
L 270.918621 306.950836 
L 272.110345 306.859317 
L 272.904828 306.869766 
L 273.69931 306.910653 
L 275.288276 306.979084 
L 275.685517 306.937022 
L 276.082759 307.031032 
L 276.48 306.986055 
L 276.877241 307.082379 
L 277.671724 307.078988 
L 279.26069 307.105606 
L 280.055172 307.140237 
L 286.013793 307.139558 
L 287.205517 307.184804 
L 287.602759 307.035688 
L 288.397241 307.133979 
L 291.972414 307.075528 
L 293.164138 307.003495 
L 294.355862 307.18124 
L 295.150345 307.044751 
L 296.342069 307.069522 
L 305.478621 307.171155 
L 306.273103 307.219784 
L 306.670345 307.087734 
L 307.464828 307.226809 
L 307.862069 307.127233 
L 308.656552 307.167628 
L 309.848276 307.136326 
L 310.245517 307.238542 
L 311.04 307.159445 
L 311.437241 307.051382 
L 312.231724 307.182953 
L 313.026207 307.113952 
L 313.82069 307.218018 
L 314.217931 306.934785 
L 314.615172 306.890052 
L 315.012414 307.198823 
L 315.806897 307.239741 
L 316.601379 307.020114 
L 316.998621 307.244151 
L 318.587586 307.127645 
L 318.984828 307.294435 
L 319.77931 307.151989 
L 320.573793 307.239415 
L 322.162759 307.19678 
L 324.546207 307.206532 
L 325.34069 307.216293 
L 325.737931 307.25492 
L 326.135172 307.168362 
L 327.326897 307.246302 
L 329.313103 307.192525 
L 333.285517 307.157438 
L 334.08 307.233156 
L 335.271724 307.209797 
L 336.463448 307.182326 
L 337.257931 307.174788 
L 339.641379 307.192427 
L 341.230345 307.180205 
L 342.024828 307.236228 
L 342.422069 307.105287 
L 342.81931 307.276271 
L 343.216552 307.197922 
L 343.613793 307.295231 
L 344.011034 307.186484 
L 344.805517 307.296004 
L 345.997241 307.174079 
L 346.394483 307.308357 
L 347.188966 307.212339 
L 347.586207 307.136471 
L 348.777931 307.287788 
L 349.572414 307.151906 
L 354.33931 307.166942 
L 355.531034 307.169743 
L 360.695172 307.254373 
L 362.284138 307.21474 
L 363.078621 307.226868 
L 365.064828 307.217326 
L 379.365517 307.194125 
L 380.16 307.091747 
L 385.721379 306.859805 
L 388.89931 307.183795 
L 389.296552 307.129781 
L 389.693793 307.214801 
L 390.885517 307.221471 
L 391.68 307.236573 
L 393.268966 307.23401 
L 394.063448 307.216098 
L 394.857931 307.236765 
L 396.049655 307.238337 
L 396.844138 307.251583 
L 397.638621 307.252434 
L 398.035862 307.201775 
L 398.433103 307.311145 
L 399.227586 307.237552 
L 403.2 307.243105 
L 404.391724 307.267933 
L 405.186207 307.218328 
L 406.377931 307.239654 
L 407.172414 307.254928 
L 414.72 307.27632 
L 414.72 307.27632 
" style="fill:none;stroke:#ff7f0e;stroke-linecap:square;stroke-width:1.5;"/>
   </g>
   <g id="line2d_18">
    <path clip-path="url(#p5b5684f6c1)" d="M 57.6 306.654161 
L 59.586207 306.42494 
L 60.38069 306.232219 
L 60.777931 306.197901 
L 61.175172 305.97198 
L 61.572414 306.065344 
L 62.366897 305.968887 
L 62.764138 306.052475 
L 63.161379 306.253398 
L 63.558621 306.13718 
L 64.353103 306.435826 
L 64.750345 306.62501 
L 65.147586 306.600438 
L 65.544828 306.731692 
L 65.942069 306.58358 
L 67.133793 306.592575 
L 67.531034 306.569222 
L 67.928276 306.68993 
L 73.092414 306.407053 
L 73.489655 306.272819 
L 73.886897 306.278027 
L 74.284138 306.129477 
L 74.681379 306.131994 
L 75.078621 305.878111 
L 75.475862 306.008285 
L 78.256552 304.779595 
L 79.448276 303.856965 
L 79.845517 303.232987 
L 80.242759 303.0479 
L 81.434483 301.148571 
L 82.228966 298.725827 
L 82.626207 295.876228 
L 83.023448 291.516385 
L 83.42069 284.166249 
L 83.817931 273.123822 
L 84.215172 258.088521 
L 85.009655 213.128041 
L 86.201379 131.837231 
L 86.598621 116.041285 
L 86.995862 109.026927 
L 87.393103 112.350477 
L 87.790345 127.321844 
L 88.584828 177.854162 
L 89.776552 252.039365 
L 90.571034 279.507825 
L 90.968276 287.455765 
L 91.365517 292.810411 
L 92.16 299.291687 
L 92.557241 301.381833 
L 93.351724 304.139401 
L 93.748966 305.149946 
L 94.543448 306.230588 
L 95.337931 306.761535 
L 96.132414 307.024891 
L 99.310345 307.085448 
L 100.502069 307.09904 
L 105.666207 307.13931 
L 107.255172 307.017125 
L 107.652414 307.161374 
L 110.830345 307.164277 
L 112.816552 307.182149 
L 126.72 307.200573 
L 127.514483 307.237053 
L 131.089655 307.251565 
L 133.870345 307.268128 
L 152.54069 307.112491 
L 155.718621 306.710445 
L 161.28 307.267731 
L 185.908966 307.333388 
L 187.10069 307.340889 
L 222.455172 307.394194 
L 223.249655 307.388499 
L 224.044138 307.395896 
L 225.235862 307.390991 
L 228.413793 307.415913 
L 229.208276 307.42252 
L 230.797241 307.584 
L 231.194483 307.395951 
L 232.386207 307.417243 
L 233.18069 307.349142 
L 244.70069 307.384073 
L 246.686897 307.423188 
L 247.878621 307.381898 
L 249.070345 307.457658 
L 249.864828 307.368653 
L 250.65931 307.403436 
L 253.44 307.361429 
L 254.631724 307.397776 
L 261.384828 307.434588 
L 264.165517 307.412354 
L 266.151724 307.447154 
L 268.932414 307.412392 
L 271.713103 307.3827 
L 274.493793 307.404419 
L 276.082759 307.424135 
L 277.274483 307.421177 
L 279.26069 307.404216 
L 284.822069 307.418018 
L 286.013793 307.433443 
L 289.986207 307.409523 
L 291.972414 307.444727 
L 293.561379 307.417425 
L 297.931034 307.425319 
L 333.682759 307.468814 
L 334.874483 307.424523 
L 336.86069 307.457094 
L 345.202759 307.433149 
L 347.188966 307.395913 
L 349.572414 307.376332 
L 352.353103 307.370777 
L 381.351724 307.318771 
L 382.543448 307.20934 
L 387.707586 307.258674 
L 388.89931 307.359612 
L 390.488276 307.400869 
L 393.666207 307.444525 
L 407.966897 307.434869 
L 410.350345 307.460314 
L 411.542069 307.428798 
L 414.322759 307.470623 
L 414.72 307.415813 
L 414.72 307.415813 
" style="fill:none;stroke:#2ca02c;stroke-linecap:square;stroke-width:1.5;"/>
   </g>
   <g id="line2d_19">
    <path clip-path="url(#p5b5684f6c1)" d="M 314.936938 307.584 
L 314.936938 108 
" style="fill:none;stroke:#1f77b4;stroke-dasharray:0.5,0.825;stroke-dashoffset:0;stroke-width:0.5;"/>
   </g>
   <g id="line2d_20">
    <path clip-path="url(#p5b5684f6c1)" d="M 346.183945 307.584 
L 346.183945 280.9728 
" style="fill:none;stroke:#1f77b4;stroke-dasharray:0.5,0.825;stroke-dashoffset:0;stroke-width:0.5;"/>
   </g>
   <g id="line2d_21">
    <path clip-path="url(#p5b5684f6c1)" d="M 232.970152 307.584 
L 232.970152 108 
" style="fill:none;stroke:#ff7f0e;stroke-dasharray:0.5,0.825;stroke-dashoffset:0;stroke-width:0.5;"/>
   </g>
   <g id="line2d_22">
    <path clip-path="url(#p5b5684f6c1)" d="M 254.103393 307.584 
L 254.103393 280.9728 
" style="fill:none;stroke:#ff7f0e;stroke-dasharray:0.5,0.825;stroke-dashoffset:0;stroke-width:0.5;"/>
   </g>
   <g id="line2d_23">
    <path clip-path="url(#p5b5684f6c1)" d="M 86.983945 307.584 
L 86.983945 108 
" style="fill:none;stroke:#2ca02c;stroke-dasharray:0.5,0.825;stroke-dashoffset:0;stroke-width:0.5;"/>
   </g>
   <g id="line2d_24">
    <path clip-path="url(#p5b5684f6c1)" d="M 90.924579 307.584 
L 90.924579 280.9728 
" style="fill:none;stroke:#2ca02c;stroke-dasharray:0.5,0.825;stroke-dashoffset:0;stroke-width:0.5;"/>
   </g>
   <g id="patch_3">
    <path d="M 57.6 307.584 
L 57.6 41.472 
" style="fill:none;stroke:#000000;stroke-linecap:square;stroke-linejoin:miter;stroke-width:0.8;"/>
   </g>
   <g id="patch_4">
    <path d="M 414.72 307.584 
L 414.72 41.472 
" style="fill:none;stroke:#000000;stroke-linecap:square;stroke-linejoin:miter;stroke-width:0.8;"/>
   </g>
   <g id="patch_5">
    <path d="M 57.6 307.584 
L 414.72 307.584 
" style="fill:none;stroke:#000000;stroke-linecap:square;stroke-linejoin:miter;stroke-width:0.8;"/>
   </g>
   <g id="patch_6">
    <path d="M 57.6 41.472 
L 414.72 41.472 
" style="fill:none;stroke:#000000;stroke-linecap:square;stroke-linejoin:miter;stroke-width:0.8;"/>
   </g>
   <g id="text_18">
    <!-- Ni-K$_\alpha$ -->
    <defs>
     <path d="M 9.8125 72.90625 
L 23.09375 72.90625 
L 55.421875 11.921875 
L 55.421875 72.90625 
L 64.984375 72.90625 
L 64.984375 0 
L 51.703125 0 
L 19.390625 60.984375 
L 19.390625 0 
L 9.8125 0 
z
" id="DejaVuSans-78"/>
     <path d="M 4.890625 31.390625 
L 31.203125 31.390625 
L 31.203125 23.390625 
L 4.890625 23.390625 
z
" id="DejaVuSans-45"/>
     <path d="M 9.8125 72.90625 
L 19.671875 72.90625 
L 19.671875 42.09375 
L 52.390625 72.90625 
L 65.09375 72.90625 
L 28.90625 38.921875 
L 67.671875 0 
L 54.6875 0 
L 19.671875 35.109375 
L 19.671875 0 
L 9.8125 0 
z
" id="DejaVuSans-75"/>
     <path d="M 40.921875 25.4375 
L 40.96875 36.71875 
Q 41.015625 48.25 32.328125 48.296875 
Q 25.828125 48.34375 21.78125 42.921875 
Q 16.703125 36.234375 14.984375 27.296875 
Q 12.890625 16.546875 15.53125 11.421875 
Q 18.265625 6.203125 24.171875 6.203125 
Q 30.71875 6.203125 36.234375 16.609375 
z
M 33.84375 55.90625 
Q 49.078125 56.15625 48.875 40.375 
Q 48.875 40.375 56.5 54.6875 
L 64.5 54.6875 
L 48.734375 25.046875 
L 48.578125 14.359375 
Q 48.578125 11.96875 49.90625 9.96875 
Q 51.421875 7.625 52.984375 7.625 
L 57.328125 7.625 
L 55.859375 0 
L 50.4375 0 
Q 45.84375 0 42.53125 4.109375 
Q 40.96875 6.15625 40.921875 10.453125 
Q 37.75 5.21875 32.28125 0.78125 
Q 29.6875 -1.265625 22.703125 -1.21875 
Q 11.28125 -1.125 7.125 6.203125 
Q 2.875 13.8125 5.515625 27.296875 
Q 8.34375 41.796875 15.765625 48.390625 
Q 24.125 55.765625 33.84375 55.90625 
z
" id="DejaVuSans-Oblique-945"/>
    </defs>
    <g style="fill:#1f77b4;" transform="translate(320.895559 189.281397)scale(0.1 -0.1)">
     <use transform="translate(0 0.015625)" xlink:href="#DejaVuSans-78"/>
     <use transform="translate(74.804688 0.015625)" xlink:href="#DejaVuSans-105"/>
     <use transform="translate(102.587891 0.015625)" xlink:href="#DejaVuSans-45"/>
     <use transform="translate(138.671875 0.015625)" xlink:href="#DejaVuSans-75"/>
     <use transform="translate(205.205078 -16.390625)scale(0.7)" xlink:href="#DejaVuSans-Oblique-945"/>
    </g>
   </g>
   <g id="text_19">
    <!-- Ni-K$_\beta$ -->
    <defs>
     <path d="M 13.625 3.375 
L 8.9375 -20.796875 
L -0.09375 -20.796875 
L 14.5 54.34375 
Q 18.84375 76.609375 39.65625 76.609375 
Q 60.75 76.609375 57.171875 57.8125 
Q 54.734375 44.4375 45.21875 39.546875 
Q 58.015625 35.15625 55.515625 22.125 
Q 51.125 -1.078125 27.484375 -1.03125 
Q 17.140625 -0.984375 13.625 3.375 
z
M 15.921875 15.09375 
Q 19.671875 6.59375 29.296875 6.640625 
Q 43.359375 6.640625 46.34375 21.96875 
Q 49.03125 35.75 26.171875 34.671875 
L 27.78125 42.96875 
Q 45.453125 42.671875 48.53125 58.59375 
Q 50.640625 69.34375 39.203125 69.28125 
Q 26.421875 69.28125 23.484375 54.046875 
z
" id="DejaVuSans-Oblique-946"/>
    </defs>
    <g style="fill:#1f77b4;" transform="translate(352.142566 277.967036)scale(0.1 -0.1)">
     <use transform="translate(0 0.015625)" xlink:href="#DejaVuSans-78"/>
     <use transform="translate(74.804688 0.015625)" xlink:href="#DejaVuSans-105"/>
     <use transform="translate(102.587891 0.015625)" xlink:href="#DejaVuSans-45"/>
     <use transform="translate(138.671875 0.015625)" xlink:href="#DejaVuSans-75"/>
     <use transform="translate(205.205078 -16.390625)scale(0.7)" xlink:href="#DejaVuSans-Oblique-946"/>
    </g>
   </g>
   <g id="text_20">
    <!-- Cr-K$_\alpha$ -->
    <defs>
     <path d="M 64.40625 67.28125 
L 64.40625 56.890625 
Q 59.421875 61.53125 53.78125 63.8125 
Q 48.140625 66.109375 41.796875 66.109375 
Q 29.296875 66.109375 22.65625 58.46875 
Q 16.015625 50.828125 16.015625 36.375 
Q 16.015625 21.96875 22.65625 14.328125 
Q 29.296875 6.6875 41.796875 6.6875 
Q 48.140625 6.6875 53.78125 8.984375 
Q 59.421875 11.28125 64.40625 15.921875 
L 64.40625 5.609375 
Q 59.234375 2.09375 53.4375 0.328125 
Q 47.65625 -1.421875 41.21875 -1.421875 
Q 24.65625 -1.421875 15.125 8.703125 
Q 5.609375 18.84375 5.609375 36.375 
Q 5.609375 53.953125 15.125 64.078125 
Q 24.65625 74.21875 41.21875 74.21875 
Q 47.75 74.21875 53.53125 72.484375 
Q 59.328125 70.75 64.40625 67.28125 
z
" id="DejaVuSans-67"/>
    </defs>
    <g style="fill:#ff7f0e;" transform="translate(238.928772 189.281397)scale(0.1 -0.1)">
     <use transform="translate(0 0.78125)" xlink:href="#DejaVuSans-67"/>
     <use transform="translate(69.824219 0.78125)" xlink:href="#DejaVuSans-114"/>
     <use transform="translate(110.9375 0.78125)" xlink:href="#DejaVuSans-45"/>
     <use transform="translate(147.021484 0.78125)" xlink:href="#DejaVuSans-75"/>
     <use transform="translate(213.554688 -15.625)scale(0.7)" xlink:href="#DejaVuSans-Oblique-945"/>
    </g>
   </g>
   <g id="text_21">
    <!-- Cr-K$_\beta$ -->
    <g style="fill:#ff7f0e;" transform="translate(260.062014 277.967036)scale(0.1 -0.1)">
     <use transform="translate(0 0.78125)" xlink:href="#DejaVuSans-67"/>
     <use transform="translate(69.824219 0.78125)" xlink:href="#DejaVuSans-114"/>
     <use transform="translate(110.9375 0.78125)" xlink:href="#DejaVuSans-45"/>
     <use transform="translate(147.021484 0.78125)" xlink:href="#DejaVuSans-75"/>
     <use transform="translate(213.554688 -15.625)scale(0.7)" xlink:href="#DejaVuSans-Oblique-946"/>
    </g>
   </g>
   <g id="text_22">
    <!-- Si-K$_\alpha$ -->
    <defs>
     <path d="M 53.515625 70.515625 
L 53.515625 60.890625 
Q 47.90625 63.578125 42.921875 64.890625 
Q 37.9375 66.21875 33.296875 66.21875 
Q 25.25 66.21875 20.875 63.09375 
Q 16.5 59.96875 16.5 54.203125 
Q 16.5 49.359375 19.40625 46.890625 
Q 22.3125 44.4375 30.421875 42.921875 
L 36.375 41.703125 
Q 47.40625 39.59375 52.65625 34.296875 
Q 57.90625 29 57.90625 20.125 
Q 57.90625 9.515625 50.796875 4.046875 
Q 43.703125 -1.421875 29.984375 -1.421875 
Q 24.8125 -1.421875 18.96875 -0.25 
Q 13.140625 0.921875 6.890625 3.21875 
L 6.890625 13.375 
Q 12.890625 10.015625 18.65625 8.296875 
Q 24.421875 6.59375 29.984375 6.59375 
Q 38.421875 6.59375 43.015625 9.90625 
Q 47.609375 13.234375 47.609375 19.390625 
Q 47.609375 24.75 44.3125 27.78125 
Q 41.015625 30.8125 33.5 32.328125 
L 27.484375 33.5 
Q 16.453125 35.6875 11.515625 40.375 
Q 6.59375 45.0625 6.59375 53.421875 
Q 6.59375 63.09375 13.40625 68.65625 
Q 20.21875 74.21875 32.171875 74.21875 
Q 37.3125 74.21875 42.625 73.28125 
Q 47.953125 72.359375 53.515625 70.515625 
z
" id="DejaVuSans-83"/>
    </defs>
    <g style="fill:#2ca02c;" transform="translate(92.942566 189.281397)scale(0.1 -0.1)">
     <use transform="translate(0 0.015625)" xlink:href="#DejaVuSans-83"/>
     <use transform="translate(63.476562 0.015625)" xlink:href="#DejaVuSans-105"/>
     <use transform="translate(91.259766 0.015625)" xlink:href="#DejaVuSans-45"/>
     <use transform="translate(127.34375 0.015625)" xlink:href="#DejaVuSans-75"/>
     <use transform="translate(193.876953 -16.390625)scale(0.7)" xlink:href="#DejaVuSans-Oblique-945"/>
    </g>
   </g>
   <g id="text_23">
    <!-- Si-K$_\beta$ -->
    <g style="fill:#2ca02c;" transform="translate(96.8832 277.967036)scale(0.1 -0.1)">
     <use transform="translate(0 0.015625)" xlink:href="#DejaVuSans-83"/>
     <use transform="translate(63.476562 0.015625)" xlink:href="#DejaVuSans-105"/>
     <use transform="translate(91.259766 0.015625)" xlink:href="#DejaVuSans-45"/>
     <use transform="translate(127.34375 0.015625)" xlink:href="#DejaVuSans-75"/>
     <use transform="translate(193.876953 -16.390625)scale(0.7)" xlink:href="#DejaVuSans-Oblique-946"/>
    </g>
   </g>
   <g id="legend_1">
    <g id="patch_7">
     <path d="M 64.6 93.506375 
L 155.295312 93.506375 
Q 157.295312 93.506375 157.295312 91.506375 
L 157.295312 48.472 
Q 157.295312 46.472 155.295312 46.472 
L 64.6 46.472 
Q 62.6 46.472 62.6 48.472 
L 62.6 91.506375 
Q 62.6 93.506375 64.6 93.506375 
z
" style="fill:#ffffff;opacity:0.8;stroke:#cccccc;stroke-linejoin:miter;"/>
    </g>
    <g id="line2d_25">
     <path d="M 66.6 54.570438 
L 86.6 54.570438 
" style="fill:none;stroke:#2ca02c;stroke-linecap:square;stroke-width:1.5;"/>
    </g>
    <g id="line2d_26"/>
    <g id="text_24">
     <!-- Factor 2: Si -->
     <defs>
      <path d="M 9.8125 72.90625 
L 51.703125 72.90625 
L 51.703125 64.59375 
L 19.671875 64.59375 
L 19.671875 43.109375 
L 48.578125 43.109375 
L 48.578125 34.8125 
L 19.671875 34.8125 
L 19.671875 0 
L 9.8125 0 
z
" id="DejaVuSans-70"/>
      <path d="M 34.28125 27.484375 
Q 23.390625 27.484375 19.1875 25 
Q 14.984375 22.515625 14.984375 16.5 
Q 14.984375 11.71875 18.140625 8.90625 
Q 21.296875 6.109375 26.703125 6.109375 
Q 34.1875 6.109375 38.703125 11.40625 
Q 43.21875 16.703125 43.21875 25.484375 
L 43.21875 27.484375 
z
M 52.203125 31.203125 
L 52.203125 0 
L 43.21875 0 
L 43.21875 8.296875 
Q 40.140625 3.328125 35.546875 0.953125 
Q 30.953125 -1.421875 24.3125 -1.421875 
Q 15.921875 -1.421875 10.953125 3.296875 
Q 6 8.015625 6 15.921875 
Q 6 25.140625 12.171875 29.828125 
Q 18.359375 34.515625 30.609375 34.515625 
L 43.21875 34.515625 
L 43.21875 35.40625 
Q 43.21875 41.609375 39.140625 45 
Q 35.0625 48.390625 27.6875 48.390625 
Q 23 48.390625 18.546875 47.265625 
Q 14.109375 46.140625 10.015625 43.890625 
L 10.015625 52.203125 
Q 14.9375 54.109375 19.578125 55.046875 
Q 24.21875 56 28.609375 56 
Q 40.484375 56 46.34375 49.84375 
Q 52.203125 43.703125 52.203125 31.203125 
z
" id="DejaVuSans-97"/>
      <path d="M 48.78125 52.59375 
L 48.78125 44.1875 
Q 44.96875 46.296875 41.140625 47.34375 
Q 37.3125 48.390625 33.40625 48.390625 
Q 24.65625 48.390625 19.8125 42.84375 
Q 14.984375 37.3125 14.984375 27.296875 
Q 14.984375 17.28125 19.8125 11.734375 
Q 24.65625 6.203125 33.40625 6.203125 
Q 37.3125 6.203125 41.140625 7.25 
Q 44.96875 8.296875 48.78125 10.40625 
L 48.78125 2.09375 
Q 45.015625 0.34375 40.984375 -0.53125 
Q 36.96875 -1.421875 32.421875 -1.421875 
Q 20.0625 -1.421875 12.78125 6.34375 
Q 5.515625 14.109375 5.515625 27.296875 
Q 5.515625 40.671875 12.859375 48.328125 
Q 20.21875 56 33.015625 56 
Q 37.15625 56 41.109375 55.140625 
Q 45.0625 54.296875 48.78125 52.59375 
z
" id="DejaVuSans-99"/>
      <path d="M 30.609375 48.390625 
Q 23.390625 48.390625 19.1875 42.75 
Q 14.984375 37.109375 14.984375 27.296875 
Q 14.984375 17.484375 19.15625 11.84375 
Q 23.34375 6.203125 30.609375 6.203125 
Q 37.796875 6.203125 41.984375 11.859375 
Q 46.1875 17.53125 46.1875 27.296875 
Q 46.1875 37.015625 41.984375 42.703125 
Q 37.796875 48.390625 30.609375 48.390625 
z
M 30.609375 56 
Q 42.328125 56 49.015625 48.375 
Q 55.71875 40.765625 55.71875 27.296875 
Q 55.71875 13.875 49.015625 6.21875 
Q 42.328125 -1.421875 30.609375 -1.421875 
Q 18.84375 -1.421875 12.171875 6.21875 
Q 5.515625 13.875 5.515625 27.296875 
Q 5.515625 40.765625 12.171875 48.375 
Q 18.84375 56 30.609375 56 
z
" id="DejaVuSans-111"/>
      <path d="M 11.71875 12.40625 
L 22.015625 12.40625 
L 22.015625 0 
L 11.71875 0 
z
M 11.71875 51.703125 
L 22.015625 51.703125 
L 22.015625 39.3125 
L 11.71875 39.3125 
z
" id="DejaVuSans-58"/>
     </defs>
     <g transform="translate(94.6 58.070438)scale(0.1 -0.1)">
      <use xlink:href="#DejaVuSans-70"/>
      <use x="57.378906" xlink:href="#DejaVuSans-97"/>
      <use x="118.658203" xlink:href="#DejaVuSans-99"/>
      <use x="173.638672" xlink:href="#DejaVuSans-116"/>
      <use x="212.847656" xlink:href="#DejaVuSans-111"/>
      <use x="274.029297" xlink:href="#DejaVuSans-114"/>
      <use x="315.142578" xlink:href="#DejaVuSans-32"/>
      <use x="346.929688" xlink:href="#DejaVuSans-50"/>
      <use x="410.552734" xlink:href="#DejaVuSans-58"/>
      <use x="444.244141" xlink:href="#DejaVuSans-32"/>
      <use x="476.03125" xlink:href="#DejaVuSans-83"/>
      <use x="539.507812" xlink:href="#DejaVuSans-105"/>
     </g>
    </g>
    <g id="line2d_27">
     <path d="M 66.6 69.248563 
L 86.6 69.248563 
" style="fill:none;stroke:#ff7f0e;stroke-linecap:square;stroke-width:1.5;"/>
    </g>
    <g id="line2d_28"/>
    <g id="text_25">
     <!-- Factor 1: Cr -->
     <g transform="translate(94.6 72.748563)scale(0.1 -0.1)">
      <use xlink:href="#DejaVuSans-70"/>
      <use x="57.378906" xlink:href="#DejaVuSans-97"/>
      <use x="118.658203" xlink:href="#DejaVuSans-99"/>
      <use x="173.638672" xlink:href="#DejaVuSans-116"/>
      <use x="212.847656" xlink:href="#DejaVuSans-111"/>
      <use x="274.029297" xlink:href="#DejaVuSans-114"/>
      <use x="315.142578" xlink:href="#DejaVuSans-32"/>
      <use x="346.929688" xlink:href="#DejaVuSans-49"/>
      <use x="410.552734" xlink:href="#DejaVuSans-58"/>
      <use x="444.244141" xlink:href="#DejaVuSans-32"/>
      <use x="476.03125" xlink:href="#DejaVuSans-67"/>
      <use x="545.855469" xlink:href="#DejaVuSans-114"/>
     </g>
    </g>
    <g id="line2d_29">
     <path d="M 66.6 83.926688 
L 86.6 83.926688 
" style="fill:none;stroke:#1f77b4;stroke-linecap:square;stroke-width:1.5;"/>
    </g>
    <g id="line2d_30"/>
    <g id="text_26">
     <!-- Factor 0: Ni -->
     <g transform="translate(94.6 87.426688)scale(0.1 -0.1)">
      <use xlink:href="#DejaVuSans-70"/>
      <use x="57.378906" xlink:href="#DejaVuSans-97"/>
      <use x="118.658203" xlink:href="#DejaVuSans-99"/>
      <use x="173.638672" xlink:href="#DejaVuSans-116"/>
      <use x="212.847656" xlink:href="#DejaVuSans-111"/>
      <use x="274.029297" xlink:href="#DejaVuSans-114"/>
      <use x="315.142578" xlink:href="#DejaVuSans-32"/>
      <use x="346.929688" xlink:href="#DejaVuSans-48"/>
      <use x="410.552734" xlink:href="#DejaVuSans-58"/>
      <use x="444.244141" xlink:href="#DejaVuSans-32"/>
      <use x="476.03125" xlink:href="#DejaVuSans-78"/>
      <use x="550.835938" xlink:href="#DejaVuSans-105"/>
     </g>
    </g>
   </g>
  </g>
 </g>
 <defs>
  <clipPath id="p5b5684f6c1">
   <rect height="266.112" width="357.12" x="57.6" y="41.472"/>
  </clipPath>
 </defs>
</svg>
