<?xml version="1.0" encoding="UTF-8" standalone="no"?>
<svg
   xmlns:dc="http://purl.org/dc/elements/1.1/"
   xmlns:cc="http://creativecommons.org/ns#"
   xmlns:rdf="http://www.w3.org/1999/02/22-rdf-syntax-ns#"
   xmlns:svg="http://www.w3.org/2000/svg"
   xmlns="http://www.w3.org/2000/svg"
   xmlns:sodipodi="http://sodipodi.sourceforge.net/DTD/sodipodi-0.dtd"
   xmlns:inkscape="http://www.inkscape.org/namespaces/inkscape"
   viewBox="0 0 315.15 51.477864"
   height="51.477863"
   width="315.14999"
   xml:space="preserve"
   version="1.1"
   id="svg4136"
   sodipodi:docname="nist_mml_logo.svg"
   inkscape:version="0.92.4 5da689c313, 2019-01-14"><sodipodi:namedview
     pagecolor="#ffffff"
     bordercolor="#666666"
     borderopacity="1"
     objecttolerance="10"
     gridtolerance="10"
     guidetolerance="10"
     inkscape:pageopacity="0"
     inkscape:pageshadow="2"
     inkscape:window-width="1920"
     inkscape:window-height="1119"
     id="namedview9"
     showgrid="false"
     fit-margin-top="0"
     fit-margin-left="0"
     fit-margin-right="0"
     fit-margin-bottom="0"
     inkscape:zoom="1.8794855"
     inkscape:cx="-12.657482"
     inkscape:cy="-28.90496"
     inkscape:window-x="0"
     inkscape:window-y="0"
     inkscape:window-maximized="1"
     inkscape:current-layer="svg4136" /><metadata
     id="metadata4142"><rdf:RDF><cc:Work
         rdf:about=""><dc:format>image/svg+xml</dc:format><dc:type
           rdf:resource="http://purl.org/dc/dcmitype/StillImage" /><dc:title /></cc:Work></rdf:RDF></metadata><defs
     id="defs4140"><clipPath
       clipPathUnits="userSpaceOnUse"
       id="clipPath8966"><path
         d="M 0,0 H 2521.2 V 88.2305 H 0 Z"
         id="path8968"
         inkscape:connector-curvature="0" /></clipPath></defs><g
     transform="matrix(1.25,0,0,-1.25,-46.565875,91.3099)"
     id="g4144"
     style="fill:#727272;fill-opacity:1;stroke:none;stroke-opacity:1"><g
       transform="scale(0.1)"
       id="g4146"
       style="fill:#727272;fill-opacity:1;stroke:none;stroke-opacity:1"><path
         id="path4278"
         style="fill:#727272;fill-opacity:1;fill-rule:nonzero;stroke:none;stroke-opacity:1"
         d="M 425.094,475.242 H 373.027 V 676.27 c 0,-0.231 0,37.929 38.094,50.64 34.359,11.024 57.336,-11.18 57.371,-11.113 L 640.129,530.191 c 8.617,-5.324 12.121,0.219 12.039,5.317 V 726.91 h 52.543 V 527.305 c -0.231,-16.992 -14.285,-38.082 -34.215,-46.301 -20.433,-7.93 -42.855,-7.863 -69.422,14.48 L 440.523,669.988 c -4.218,4.559 -15.253,5.051 -15.429,-3.851 V 475.242"
         inkscape:connector-curvature="0" /><path
         id="path4280"
         style="fill:#727272;fill-opacity:1;fill-rule:nonzero;stroke:none;stroke-opacity:1"
         d="m 738.473,726.91 h 52.543 V 546.57 c -0.161,-19.187 15.886,-19.187 31.82,-19.265 h 233.334 c 9.73,0.078 20.8,11.547 20.73,23.125 0.07,12.019 -11.19,24.164 -21.69,24.113 H 903.34 c -26.121,-0.953 -80.348,23.156 -80.504,74.266 0.156,62.367 51.394,76.445 74.742,78.101 H 1327.13 V 673.871 H 1219.59 V 475.242 h -52.04 V 673.871 H 904.297 c -25.067,2.168 -43.125,-41.019 -1.926,-47.266 h 161.509 c 24.27,0.227 64.43,-20.894 64.59,-73.277 -0.16,-53.051 -31.27,-78.168 -64.59,-78.086 H 825.242 c -39.418,-0.082 -53.547,8.887 -67.5,22.168 -12.929,12.774 -15.097,19.942 -19.269,46.285 V 726.91"
         inkscape:connector-curvature="0" /></g></g><g
     id="g8958"
     transform="matrix(1.25,0,0,-1.25,0,51.477864)"
     style="fill:#727272;fill-opacity:1;stroke:none;stroke-opacity:1"><g
       id="g8960"
       transform="scale(0.1)"
       style="fill:#727272;fill-opacity:1;stroke:none;stroke-opacity:1"><g
         id="g8962"
         style="fill:#727272;fill-opacity:1;stroke:none;stroke-opacity:1"><g
           id="g8964"
           clip-path="url(#clipPath8966)"
           style="fill:#727272;fill-opacity:1;stroke:none;stroke-opacity:1"><path
             d="M 53.6875,86.9102 H 81.8516 V 1.31641 H 64.6875 V 69.5273 H 64.4688 L 48.6289,1.31641 H 33.2227 L 17.3828,69.5273 H 17.1641 V 1.31641 H 0 V 86.9102 H 28.1641 L 40.8164,25.5234 h 0.2188 l 12.6523,61.3868"
             style="fill:#727272;fill-opacity:1;fill-rule:nonzero;stroke:none;stroke-opacity:1"
             id="path8970"
             inkscape:connector-curvature="0" /><path
             d="m 137.172,72.168 h -0.438 l -9.019,-35.8633 h 18.48 z M 172.711,1.31641 h -17.492 l -5.614,21.45699 h -25.304 l -5.61,-21.45699 h -17.492 l 23.989,85.59379 h 23.097 L 172.711,1.31641"
             style="fill:#727272;fill-opacity:1;fill-rule:nonzero;stroke:none;stroke-opacity:1"
             id="path8972"
             inkscape:connector-curvature="0" /><path
             d="M 242.004,72.3867 H 219.773 V 1.31641 H 202.617 V 72.3867 h -22.226 v 14.5235 h 61.613 V 72.3867"
             style="fill:#727272;fill-opacity:1;fill-rule:nonzero;stroke:none;stroke-opacity:1"
             id="path8974"
             inkscape:connector-curvature="0" /><path
             d="M 316.254,72.3867 H 280.172 V 51.9219 h 29.922 V 37.4023 H 280.172 V 15.8398 h 38.172 V 1.31641 H 263.008 V 86.9102 h 53.246 V 72.3867"
             style="fill:#727272;fill-opacity:1;fill-rule:nonzero;stroke:none;stroke-opacity:1"
             id="path8976"
             inkscape:connector-curvature="0" /><path
             d="m 367.953,51.375 c 7.481,0 18.922,-0.4375 18.922,10.2305 0,11.7734 -11.555,10.7812 -20.023,10.7812 h -6.379 V 51.375 Z m 9.133,35.5352 c 19.691,0 27.391,-14.0821 27.391,-24.9727 0,-9.3477 -5.829,-18.0391 -14.52,-21.5625 L 407.008,1.31641 H 388.965 L 373.563,36.8555 h -13.09 V 1.31641 h -17.16 V 86.9102 h 33.773"
             style="fill:#727272;fill-opacity:1;fill-rule:nonzero;stroke:none;stroke-opacity:1"
             id="path8978"
             inkscape:connector-curvature="0" /><path
             d="m 430.098,1.31641 h 17.1641 v 85.5938 H 430.098 Z"
             style="fill:#727272;fill-opacity:1;fill-rule:nonzero;stroke:none;stroke-opacity:1"
             id="path8980"
             inkscape:connector-curvature="0" /><path
             d="m 502.59,72.168 h -0.442 l -9.019,-35.8633 h 18.48 z M 538.125,1.31641 H 520.637 L 515.023,22.7734 H 489.719 L 484.105,1.31641 h -17.488 l 23.985,85.59379 h 23.097 L 538.125,1.31641"
             style="fill:#727272;fill-opacity:1;fill-rule:nonzero;stroke:none;stroke-opacity:1"
             id="path8982"
             inkscape:connector-curvature="0" /><path
             d="m 574.633,15.8398 h 35.644 V 1.31641 H 557.473 V 86.9102 h 17.16 V 15.8398"
             style="fill:#727272;fill-opacity:1;fill-rule:nonzero;stroke:none;stroke-opacity:1"
             id="path8984"
             inkscape:connector-curvature="0" /><path
             d="m 735.238,86.9102 h 28.164 V 1.31641 H 746.238 V 69.5273 H 746.02 L 730.18,1.31641 H 714.773 L 698.938,69.5273 h -0.223 V 1.31641 h -17.16 V 86.9102 h 28.164 l 12.648,-61.3868 h 0.223 l 12.648,61.3868"
             style="fill:#727272;fill-opacity:1;fill-rule:nonzero;stroke:none;stroke-opacity:1"
             id="path8986"
             inkscape:connector-curvature="0" /><path
             d="M 842.816,72.3867 H 806.734 V 51.9219 h 29.922 V 37.4023 H 806.734 V 15.8398 h 38.172 V 1.31641 H 789.57 V 86.9102 h 53.246 V 72.3867"
             style="fill:#727272;fill-opacity:1;fill-rule:nonzero;stroke:none;stroke-opacity:1"
             id="path8988"
             inkscape:connector-curvature="0" /><path
             d="m 899.023,72.168 h -0.437 l -9.02,-35.8633 h 18.481 z M 934.563,1.31641 H 917.07 L 911.461,22.7734 H 886.152 L 880.543,1.31641 h -17.492 l 23.984,85.59379 h 23.102 L 934.563,1.31641"
             style="fill:#727272;fill-opacity:1;fill-rule:nonzero;stroke:none;stroke-opacity:1"
             id="path8990"
             inkscape:connector-curvature="0" /><path
             d="m 993.848,61.7188 c -1.653,5.9375 -4.953,11.9921 -11.883,11.9921 -5.613,0 -10.449,-4.0742 -10.449,-9.9023 0,-16.8359 40.264,-5.832 40.264,-37.7344 C 1011.78,15.6211 1003.86,0 982.734,0 966.449,0 954.68,7.91797 952.043,24.6445 l 17.16,2.5274 c 1.539,-7.2578 5.277,-12.6485 13.418,-12.6485 6.715,0 12.324,3.5196 12.324,10.8868 0,17.164 -40.265,7.2617 -40.265,36.414 0,15.4063 12.98,26.4063 27.836,26.4063 14.519,0 25.414,-9.3477 26.844,-23.7617 l -15.512,-2.75"
             style="fill:#727272;fill-opacity:1;fill-rule:nonzero;stroke:none;stroke-opacity:1"
             id="path8992"
             inkscape:connector-curvature="0" /><path
             d="M 1095.92,86.9102 V 27.7266 C 1095.92,10.1172 1083.82,0 1065.79,0 c -18.05,0 -30.15,10.1172 -30.15,27.7266 v 59.1836 h 17.16 V 33.2227 c 0,-14.3008 4.29,-18.6993 12.99,-18.6993 8.69,0 12.97,4.3985 12.97,18.6993 v 53.6875 h 17.16"
             style="fill:#727272;fill-opacity:1;fill-rule:nonzero;stroke:none;stroke-opacity:1"
             id="path8994"
             inkscape:connector-curvature="0" /><path
             d="m 1146.19,51.375 c 7.48,0 18.92,-0.4375 18.92,10.2305 0,11.7734 -11.55,10.7812 -20.03,10.7812 h -6.37 V 51.375 Z m 9.13,35.5352 c 19.68,0 27.39,-14.0821 27.39,-24.9727 0,-9.3477 -5.83,-18.0391 -14.52,-21.5625 l 17.05,-39.05859 h -18.04 l -15.41,35.53909 h -13.08 V 1.31641 h -17.17 V 86.9102 h 33.78"
             style="fill:#727272;fill-opacity:1;fill-rule:nonzero;stroke:none;stroke-opacity:1"
             id="path8996"
             inkscape:connector-curvature="0" /><path
             d="M 1261.59,72.3867 H 1225.5 V 51.9219 h 29.92 V 37.4023 H 1225.5 V 15.8398 h 38.18 V 1.31641 h -55.35 V 86.9102 h 53.26 V 72.3867"
             style="fill:#727272;fill-opacity:1;fill-rule:nonzero;stroke:none;stroke-opacity:1"
             id="path8998"
             inkscape:connector-curvature="0" /><path
             d="m 1342.31,86.9102 h 28.17 V 1.31641 h -17.15 V 69.5273 h -0.23 L 1337.26,1.31641 h -15.39 l -15.86,68.21089 h -0.22 V 1.31641 h -17.17 V 86.9102 h 28.17 l 12.65,-61.3868 h 0.22 l 12.65,61.3868"
             style="fill:#727272;fill-opacity:1;fill-rule:nonzero;stroke:none;stroke-opacity:1"
             id="path9000"
             inkscape:connector-curvature="0" /><path
             d="m 1449.89,72.3867 h -36.07 V 51.9219 h 29.92 V 37.4023 h -29.92 V 15.8398 h 38.16 V 1.31641 h -55.33 V 86.9102 h 53.24 V 72.3867"
             style="fill:#727272;fill-opacity:1;fill-rule:nonzero;stroke:none;stroke-opacity:1"
             id="path9002"
             inkscape:connector-curvature="0" /><path
             d="m 1502.04,86.9102 25.63,-56.4375 h 0.21 v 56.4375 h 17.17 V 1.31641 h -18.38 l -32.34,68.76169 h -0.22 V 1.31641 h -17.17 V 86.9102 h 25.1"
             style="fill:#727272;fill-opacity:1;fill-rule:nonzero;stroke:none;stroke-opacity:1"
             id="path9004"
             inkscape:connector-curvature="0" /><path
             d="m 1627.76,72.3867 h -22.22 V 1.31641 h -17.15 V 72.3867 h -22.23 v 14.5235 h 61.6 V 72.3867"
             style="fill:#727272;fill-opacity:1;fill-rule:nonzero;stroke:none;stroke-opacity:1"
             id="path9006"
             inkscape:connector-curvature="0" /><path
             d="m 1714.44,15.8398 h 35.65 V 1.31641 h -52.81 V 86.9102 h 17.16 V 15.8398"
             style="fill:#727272;fill-opacity:1;fill-rule:nonzero;stroke:none;stroke-opacity:1"
             id="path9008"
             inkscape:connector-curvature="0" /><path
             d="m 1802,72.168 h -0.43 l -9.02,-35.8633 h 18.48 z m 35.55,-70.85159 h -17.5 l -5.61,21.45699 h -25.31 l -5.6,-21.45699 h -17.5 l 23.98,85.59379 h 23.11 l 24.43,-85.59379"
             style="fill:#727272;fill-opacity:1;fill-rule:nonzero;stroke:none;stroke-opacity:1"
             id="path9010"
             inkscape:connector-curvature="0" /><path
             d="m 1885.17,14.8477 c 5.15,0 15.17,-0.6602 15.17,12.3242 0,11.6601 -9.69,13.2031 -26.29,11.9922 V 14.8477 Z m -11.12,37.2968 c 12.64,0 24.63,-1.4257 24.63,10.3399 0,12.2109 -12.54,10.8945 -24.63,10.8945 z M 1856.88,1.31641 V 86.9102 h 24.65 c 27.72,0 34.77,-9.6797 34.77,-23.543 0,-8.0313 -3.87,-13.8594 -10.78,-17.7109 7.81,-3.7422 12.42,-11.1172 12.42,-19.6954 0,-14.7382 -11.99,-24.64449 -27.62,-24.64449 h -33.44"
             style="fill:#727272;fill-opacity:1;fill-rule:nonzero;stroke:none;stroke-opacity:1"
             id="path9012"
             inkscape:connector-curvature="0" /><path
             d="m 1958.31,44.1172 c 0,-11.0039 2.97,-30.5859 17.72,-30.5859 14.74,0 17.71,19.582 17.71,30.5859 0,11 -2.97,30.5781 -17.71,30.5781 -14.75,0 -17.72,-19.5781 -17.72,-30.5781 z m 53.03,0 C 2011.34,22.5547 2000.46,0 1976.03,0 c -24.42,0 -35.32,22.5547 -35.32,44.1172 0,21.5625 10.9,44.1133 35.32,44.1133 24.43,0 35.31,-22.5508 35.31,-44.1133"
             style="fill:#727272;fill-opacity:1;fill-rule:nonzero;stroke:none;stroke-opacity:1"
             id="path9014"
             inkscape:connector-curvature="0" /><path
             d="m 2060.4,51.375 c 7.48,0 18.93,-0.4375 18.93,10.2305 0,11.7734 -11.57,10.7812 -20.04,10.7812 h -6.37 V 51.375 Z m 9.12,35.5352 c 19.69,0 27.4,-14.0821 27.4,-24.9727 0,-9.3477 -5.84,-18.0391 -14.53,-21.5625 l 17.05,-39.05859 h -18.02 l -15.41,35.53909 h -13.09 V 1.31641 h -17.17 V 86.9102 h 33.77"
             style="fill:#727272;fill-opacity:1;fill-rule:nonzero;stroke:none;stroke-opacity:1"
             id="path9016"
             inkscape:connector-curvature="0" /><path
             d="m 2151.69,72.168 h -0.43 l -9.02,-35.8633 h 18.47 z m 35.55,-70.85159 h -17.5 l -5.61,21.45699 h -25.31 l -5.61,-21.45699 h -17.5 l 23.99,85.59379 h 23.1 l 24.44,-85.59379"
             style="fill:#727272;fill-opacity:1;fill-rule:nonzero;stroke:none;stroke-opacity:1"
             id="path9018"
             inkscape:connector-curvature="0" /><path
             d="m 2256.53,72.3867 h -22.22 V 1.31641 h -17.17 V 72.3867 h -22.23 v 14.5235 h 61.62 V 72.3867"
             style="fill:#727272;fill-opacity:1;fill-rule:nonzero;stroke:none;stroke-opacity:1"
             id="path9020"
             inkscape:connector-curvature="0" /><path
             d="m 2293.49,44.1172 c 0,-11.0039 2.97,-30.5859 17.71,-30.5859 14.73,0 17.7,19.582 17.7,30.5859 0,11 -2.97,30.5781 -17.7,30.5781 -14.74,0 -17.71,-19.5781 -17.71,-30.5781 z m 53.02,0 C 2346.51,22.5547 2335.62,0 2311.2,0 c -24.43,0 -35.33,22.5547 -35.33,44.1172 0,21.5625 10.9,44.1133 35.33,44.1133 24.42,0 35.31,-22.5508 35.31,-44.1133"
             style="fill:#727272;fill-opacity:1;fill-rule:nonzero;stroke:none;stroke-opacity:1"
             id="path9022"
             inkscape:connector-curvature="0" /><path
             d="m 2395.56,51.375 c 7.48,0 18.92,-0.4375 18.92,10.2305 0,11.7734 -11.54,10.7812 -20.02,10.7812 h -6.38 V 51.375 Z m 9.14,35.5352 c 19.68,0 27.38,-14.0821 27.38,-24.9727 0,-9.3477 -5.82,-18.0391 -14.51,-21.5625 l 17.05,-39.05859 h -18.05 l -15.41,35.53909 h -13.08 V 1.31641 h -17.17 V 86.9102 h 33.79"
             style="fill:#727272;fill-opacity:1;fill-rule:nonzero;stroke:none;stroke-opacity:1"
             id="path9024"
             inkscape:connector-curvature="0" /><path
             d="M 2492.8,35.8633 V 1.31641 h -17.15 V 35.8633 l -28.06,51.0469 h 18.26 l 18.5,-37.625 19.14,37.625 h 17.71 l -28.4,-51.0469"
             style="fill:#727272;fill-opacity:1;fill-rule:nonzero;stroke:none;stroke-opacity:1"
             id="path9026"
             inkscape:connector-curvature="0" /></g></g></g></g></svg>